<svg id="Layer_1" data-name="Layer 1" xmlns="http://www.w3.org/2000/svg" viewBox="0 0 168 168"><defs><style>.cls-1{fill:#1e1e1e;}.cls-2{fill:#248943;}</style></defs><title>Artboard 1</title><path class="cls-1" d="M69.78,74.65C68.2,78.24,66.7,81.88,65,85.44a6.44,6.44,0,0,0-.53,3.92c.69,4.29,1.41,8.58,1.92,12.9.38,3.22.67,6.53-.51,9.64a44.19,44.19,0,0,1-3.34,6.77,2,2,0,0,1-3.65-.14,13.38,13.38,0,0,1-1.57-5.36,46.18,46.18,0,0,1,1.63-14A35,35,0,0,0,60.26,94a11.2,11.2,0,0,0-.3-3.21c-.82-5.26-1.69-10.51-2.48-15.78-.48-3.21-.84-6.43-1.3-9.64-.06-.39-.44-.73-.67-1.09a4.56,4.56,0,0,0-.72,1.15c-.87,3.4-1.8,6.8-2.51,10.24-.59,2.86-1,5.77-1.32,8.67-.24,2,0,4.1-.41,6.08a37.63,37.63,0,0,1-2.14,7.72c-.9,2.13-3.83,2.32-6.16.8a11.36,11.36,0,0,1-4.4-5.68,27.79,27.79,0,0,1,.55-21.88c2.35-5.29,6.87-8.18,13.07-8.17,1.48,0,2.21-.33,2.44-1.78a19.07,19.07,0,0,0,.59-2.35c0-1.67,1.14-1.81,2.35-1.77,3.16.1,3.76.57,4.17,3.72.63,5,1.11,9.93,1.7,14.89.29,2.42.67,4.84,1,7.25a4.5,4.5,0,0,0,.62,1.12c2.31-5.63,5-10.87,6.57-16.43.92-.39.56,3.18.56,3.18M40.69,83A25.69,25.69,0,0,0,43.6,95.77a14.36,14.36,0,0,0,2,2.39c.62-.9,1.6-1.72,1.8-2.71.75-3.77,1.27-7.59,1.85-11.4.46-3.06.77-6.15,1.36-9.18.63-3.24,1.47-6.44,2.3-9.63.31-1.17-.2-1.56-1.1-1.18a13.11,13.11,0,0,0-4.12,2.29,22.32,22.32,0,0,0-3.26,4.58A27.59,27.59,0,0,0,40.69,83ZM60.87,98.69c-.31.43-.51.58-.53.75-.65,4.83-1.43,9.64-1.83,14.49a6.18,6.18,0,0,0,2.46,5.3c.53-1.22,1.32-2.25,1.39-3.32a58.32,58.32,0,0,0,0-8.59C62.08,104.54,61.41,101.8,60.87,98.69Z"/><path class="cls-1" d="M131.35,87c-.4,1.78-.72,3.58-1.22,5.33-.66,2.31-1.37,4.62-2.22,6.87a37.93,37.93,0,0,1-2.93,6.55c-1.22,2-3.63,1.66-4.65-.45a9,9,0,0,1-.88-3.33q-.57-10-1-20.09c-.21-5.54-.19-11.09-.48-16.62A24.67,24.67,0,0,0,116.67,60c-.1-.35-.49-.62-.79-1-2.66,2.65-3.79,5.91-4.46,9.31-.84,4.24-1.49,8.51-2.08,12.79a36.39,36.39,0,0,0,.47,13.24A8.38,8.38,0,0,0,111,97.25c.88,1.25.44,2.07-.62,2.71a1.87,1.87,0,0,1-2.86-.7c-1.13-2.11-2.52-4.19-3.09-6.46a146.56,146.56,0,0,1-3.27-16.21c-.69-5.15-.64-10.39-1-15.58-.1-1.29.35-1.44,1.39-1.31.87.11,1.76,0,2.61.18,1.23.21,1.48,1.12,1.5,2.25.05,4.27.12,8.53.25,12.8.06,1.9.29,3.79.47,5.69a1.23,1.23,0,0,0,.69,1c.12-1.17.18-2.36.39-3.51.63-3.47,1.13-7,2.06-10.36A55.66,55.66,0,0,1,112.58,60c1.29-2.92,4-2.73,6.53-2.63s2.69,2.36,3.3,4c1.44,3.87,1.32,8,1.2,12-.09,2.74.08,5.49.12,8.24.07,5,.08,10,.2,14.94,0,2,.29,4,.45,6l.56.2a36.87,36.87,0,0,0,2.31-4.26c1.47-3.77,2.77-7.61,4.14-11.42Z"/><path class="cls-1" d="M90.6,81.55c-.18,2-.38,3.85-.49,5.74a2,2,0,0,0,.4,1.39c1.72,2,3.54,3.88,5.31,5.82a3.18,3.18,0,0,1,.32.5,1.4,1.4,0,0,1-1.92-.45c-1.33-1.38-2.62-2.78-3.93-4.16-.14-.15-.32-.28-.61-.53-.2.29-.34.49-.47.69a27.46,27.46,0,0,1-1.7,2.69,4.34,4.34,0,0,1-3.61,1.17,3.5,3.5,0,0,1-3.19-1.64,6.28,6.28,0,0,1-.58-5.39c.62-1.86,1.5-3.67,2.2-5.51a1.14,1.14,0,0,0-.21-1,31.46,31.46,0,0,1-4.85-10.17c-.46-2-.9-3.92.35-5.85a4.33,4.33,0,0,1,3.58-2.4,26.32,26.32,0,0,1,4.15-.22,5.41,5.41,0,0,1,4.09,2.63,6.14,6.14,0,0,1,1,4.63,29.62,29.62,0,0,1-3,9.59c-.54,1.14-1.07,2.29-1.57,3.44-.1.23-.21.54-.07.72.82,1.07,1.72,2.11,2.59,3.16l.52-.1c0-1.25,0-2.5,0-3.76C89,81.78,89,81.78,90.6,81.55Zm-7.77-1.88c.36-.35.5-.43.55-.54A31,31,0,0,0,86,69.94a7,7,0,0,0-1.6-5.82,2.73,2.73,0,0,0-3.53-.51,4.91,4.91,0,0,0-2.43,4.82,27.65,27.65,0,0,0,1.73,6A58.58,58.58,0,0,0,82.82,79.67Zm2.17,5c-.47,1.07-.84,1.95-1.24,2.81C83,89.19,82.41,90.9,83,92.66a1.84,1.84,0,0,0,1.22,1,2.39,2.39,0,0,0,1.58-.55,7.56,7.56,0,0,0,2.33-4.56.76.76,0,0,0-.12-.62C87.11,86.91,86.16,85.92,85,84.69Z"/><path class="cls-2" d="M143.14,128.68c-.26-.6-.54-1.17-.81-1.76s-.54-1.19-.76-1.82a6.64,6.64,0,0,1-.06,1c-.09.55-.09,1.08-.23,1.63s-.28.94-.39,1.41a9.46,9.46,0,0,1-.63,1.42,11.75,11.75,0,0,0,.44,2c-.11.77-.31,1.56-.43,2.34a9.58,9.58,0,0,1-1.11,4,12.28,12.28,0,0,0-.7,1.49c-.3.68-.74,1.32-1.06,2a10.38,10.38,0,0,1-.93,1.47c-.29.29-.58.57-.85.87a1.09,1.09,0,0,1-.77.14,2.62,2.62,0,0,1,.11-1c.51-1.45.9-2.84,1.39-4.3.21-.58.37-1.15.54-1.73.32-.8.55-1.63.84-2.45.15-.43.37-.85.51-1.27a9.64,9.64,0,0,1-.9,1.07c-.5.48-1,.91-1.54,1.39a6.1,6.1,0,0,1-1,.73,2.93,2.93,0,0,0-.22.55,8.85,8.85,0,0,1-1.54,2.1,10.29,10.29,0,0,1-2,1.69c-.54.37-1,.82-1.58,1.15-.38.21-.69.54-1.08.75s-.64.22-1,.37a18.72,18.72,0,0,1-2.4,1.22,4.22,4.22,0,0,0-.72.24,1.28,1.28,0,0,1-.76.24c-.16-.12-.18-.34-.26-.52.35-.3.62-.66,1-.94.54-.46,1.15-.86,1.72-1.28s1.07-.76,1.6-1.16l1.53-1.24c.5-.38,1.08-.64,1.59-1a15.65,15.65,0,0,1-2.4.64,3.68,3.68,0,0,0-1,.24,14,14,0,0,1-1.37.82c-.66.28-1.32.56-2,.79a13.69,13.69,0,0,1-2,.55l-1.79.32c-.6.1-1.2.2-1.79.34-1,.18-2,.06-3,.28-.1-.18-.21-.37-.3-.56a3.18,3.18,0,0,1,1-.8,10.28,10.28,0,0,1,2-.74c1.12-.22,2.19-.6,3.32-.74.34,0,.67-.11,1-.17a5.38,5.38,0,0,1,1-.16c-.42-.11-.84-.21-1.25-.34a7.81,7.81,0,0,1-1.2-.47,1.51,1.51,0,0,0-.77-.25,11.51,11.51,0,0,1-3.25-.51,5.42,5.42,0,0,1-1.41-.61,6.51,6.51,0,0,1-1.92-1.57,5.49,5.49,0,0,1-1-1,2.21,2.21,0,0,0-.5-.42,2.86,2.86,0,0,1-.19-.39c.44-.42,1.08-.2,1.62-.23a4.57,4.57,0,0,1,1.07.09c.38.11.78.1,1.14.23a11.36,11.36,0,0,1,1.54.57c.48.17.77.6,1.2.85a5.56,5.56,0,0,1,.88.52c.23.23.4.52.63.75s.53.49.76.76.09.54.33.69a7,7,0,0,0,1.2.52,8.47,8.47,0,0,0,1.23.32c.39.09.75.23,1.15.32a2.84,2.84,0,0,0,1.09,0,8.94,8.94,0,0,0,.85-.31,7.47,7.47,0,0,0,.78.07,8.47,8.47,0,0,0,1.36-.34,12.65,12.65,0,0,1-2.42-.57c-.49-.22-1-.3-1.54-.53s-1-.32-1.43-.56a16.07,16.07,0,0,1-3-1.63c-.26-.21-.21-.58-.23-.89a4,4,0,0,1,1.88,0,8.63,8.63,0,0,1,1.24.25c.83.31,1.83.24,2.64.64A9.73,9.73,0,0,0,128,137c.42.21.92.25,1.32.49s.7.31,1,.49a11.62,11.62,0,0,0,1.24.47,6.26,6.26,0,0,1,1.23-.56,19.69,19.69,0,0,0,2.91-2,14.36,14.36,0,0,0,1.71-1.71,10.91,10.91,0,0,0,1.28-1.86,4.37,4.37,0,0,1,.37-.74,8.39,8.39,0,0,0,.72-1.26c-.73.6-1.42,1.24-2.18,1.76-.6.43-1.23.77-1.84,1.16a12.26,12.26,0,0,1-1.41.78c-.49.22-1,.42-1.47.62a11.64,11.64,0,0,1-2.24.45,18.79,18.79,0,0,1-2.75-.11l-.08-.41a5.66,5.66,0,0,1,.34-.5,5.9,5.9,0,0,1,1.34-.59c1.13-.55,2.31-1.06,3.45-1.66a7.23,7.23,0,0,1,1-.63c1.53-.6,3-1.5,4.52-2a11.9,11.9,0,0,0,1.41-.65.94.94,0,0,1,.5-.05,7.21,7.21,0,0,0,.38-1.66,12.11,12.11,0,0,1,.12-1.45,18.57,18.57,0,0,0,0-2.61,10.41,10.41,0,0,1-1.65,2.1c-.37.31-.69.68-1.07,1a18.92,18.92,0,0,1-1.68,1.36c-.62.42-1.22.88-1.87,1.24a10.36,10.36,0,0,1-1.63.89,11.89,11.89,0,0,1-1.61.64,2.61,2.61,0,0,1-.51,0l-.18-.35A3,3,0,0,1,132,128a22,22,0,0,0,2.09-1.57c.44-.37.87-.77,1.27-1.18s1-.82,1.47-1.29a6.75,6.75,0,0,1,1.06-.75c.42-.31.91-.5,1.32-.85s.75-.5,1.12-.77c.14-.1.29,0,.43,0-.24-.73-.47-1.46-.73-2.17-.14-.4-.44-.69-.58-1.1a5,5,0,0,0-.66-1.07,5.57,5.57,0,0,0-.81-1,8.75,8.75,0,0,1,0,.93c-.05.41-.19.82-.25,1.23a6,6,0,0,1-.23,1c-.1.31-.24.62-.34.93-.28.65-.52,1.32-.84,2s-1.12,1.27-1.42,2.06h-.63a1.75,1.75,0,0,1-.09-1.38,5.25,5.25,0,0,1,.33-1.28c.24-.47.41-1,.67-1.44a19.57,19.57,0,0,0,.9-2.06,17.63,17.63,0,0,1,.71-1.64,8,8,0,0,1,.36-1.14,5.93,5.93,0,0,0-1.15-1,7.64,7.64,0,0,0-1.08-.59,11.74,11.74,0,0,0-1.22-.55c-.24,0-.34-.26-.47-.44l.52-.43.14.23a3.73,3.73,0,0,1,1.22.6c.16.14.39.1.58.14a4.61,4.61,0,0,0,.5.24,10.09,10.09,0,0,1,1.14-.15c.52,0,1.06,0,1.59,0,.68,0,1.35-.09,2-.06.46.07.92.16,1.38.25s.75.13,1,.44a1.79,1.79,0,0,1,.43.89,2.85,2.85,0,0,1-.13.75,1.86,1.86,0,0,1-.8.18c-.61,0-1.17-.21-1.77-.28-.39-.09-.81-.08-1.2-.21a3,3,0,0,0-.63-.13,9.56,9.56,0,0,1-1.79-.56c.52.47,1,1,1.47,1.52a4.58,4.58,0,0,1,.82,1.13c.11.2.31.31.45.47a1.63,1.63,0,0,1,0,.4,7.45,7.45,0,0,1,1.1.19,19.08,19.08,0,0,1,2.12.73,7,7,0,0,1,.72.15,13.36,13.36,0,0,1,1.65.78c.62.23,1.16.6,1.76.88a8.17,8.17,0,0,0,.39.75,3,3,0,0,1-.14.46,4.5,4.5,0,0,1-1.43.25,18.77,18.77,0,0,1-2.44-.7,8.74,8.74,0,0,1-1.52-.53c-.55-.2-.89-.7-1.35-1,.06.37.17.72.26,1.07a8.8,8.8,0,0,1,.25,1.75,1.34,1.34,0,0,1,.68-.18,1.67,1.67,0,0,1,.73.38c.36.22.81.33,1,.71s.74,1,1.07,1.47a18.41,18.41,0,0,1,1.14,2.51,9.49,9.49,0,0,1,.88,2.81,5.47,5.47,0,0,1-.15,2.08,2.25,2.25,0,0,1-.24.5,1.89,1.89,0,0,1-.54-.14c-.28-.3-.52-.65-.78-1a15.57,15.57,0,0,1-1.3-1.55c-.16-.27-.26-.58-.41-.87A12.6,12.6,0,0,1,143.14,128.68Zm-.31-13.14c.2-.05.07-.32-.08-.26A.14.14,0,1,0,142.83,115.54ZM138.05,114a7.46,7.46,0,0,0,1.58.19,5.46,5.46,0,0,1,1.64.34,4.11,4.11,0,0,0,1.16.32c.19,0,.32-.18.47-.29a1.86,1.86,0,0,0-1.31-.41c-.32,0-.62-.17-1-.17C139.78,114,138.91,114,138.05,114Zm-.51.39c.7.24,1.42.43,2.13.67a16,16,0,0,0,1.91.18,4.78,4.78,0,0,0,1,.13c-.42-.12-.86-.16-1.28-.26a2.92,2.92,0,0,0-1.24-.48C139.17,114.66,138.37,114.42,137.54,114.42Zm0,2.75a3.15,3.15,0,0,0-.37,1c-.22,1.15-1,2.1-1.23,3.26a7.92,7.92,0,0,0-.52,1.46,5.84,5.84,0,0,0,.66-1.13,20.6,20.6,0,0,0,.87-2c.31-.64.28-1.38.53-2A1.9,1.9,0,0,0,137.58,117.17Zm-.65.43a9.93,9.93,0,0,0-.5,1.07c-.16.36-.33.71-.52,1.06s-.43,1-.7,1.52a5,5,0,0,0-.5,2.11l.5-1.22a13.76,13.76,0,0,1,.48-1.36c.23-.46.37-1,.63-1.4a6.64,6.64,0,0,0,.4-1.06A2.07,2.07,0,0,0,136.93,117.6Zm6,2.19a10.28,10.28,0,0,1,1.48.54,2.23,2.23,0,0,0,1.1.34,5,5,0,0,0-1.41-.7A6,6,0,0,0,142.89,119.79Zm-1.87-.21c.44.33.86.69,1.26,1.06a7.44,7.44,0,0,0,2.67,1,3.54,3.54,0,0,0,2.21.29c-.4-.2-.82-.36-1.23-.54a7.94,7.94,0,0,0-1.17-.27c-.59-.18-1.07-.59-1.67-.75S141.75,119.73,141,119.57Zm-6.55,7.11c.36-.19.68-.46,1-.69.86-.57,1.68-1.23,2.51-1.88a5.4,5.4,0,0,0,1.13-1,9.5,9.5,0,0,0-1.4.87c-.33.27-.68.5-1,.79l-1.12,1Zm5.82-3.89v-.23a7.35,7.35,0,0,1-1.23,1.2c-.41.41-.89.74-1.33,1.13s-.82.5-1.21.79a17.44,17.44,0,0,1-2,1.57c-.48.33-.91.73-1.38,1.09a7.83,7.83,0,0,1-1.47.92,10.68,10.68,0,0,0,2.9-1.38c.55-.37,1.1-.74,1.64-1.13s1-.82,1.56-1.27a9.36,9.36,0,0,0,1.34-1.24A17.28,17.28,0,0,0,140.29,122.79Zm-11.73,16c-.94-.25-1.83-.59-2.75-.85-.63-.26-1.32-.36-2-.6a12.83,12.83,0,0,0-2-.94A8.36,8.36,0,0,0,123,137a23.56,23.56,0,0,0,4.43,1.62A6.72,6.72,0,0,0,128.56,138.77Zm1.14-.37a8.29,8.29,0,0,0-1.39-.76c-.56-.17-1.08-.39-1.6-.6a9.15,9.15,0,0,0-2.19-.81,23.27,23.27,0,0,0-3.15-.6l1.06.32c.65.19,1.14.68,1.8.84s1.38.5,2.06.77a9.7,9.7,0,0,1,1,.29A6.22,6.22,0,0,0,129.7,138.4Zm-16.13-3.55.79.42c.29.14.48.4.79.51a5.81,5.81,0,0,1,1.07.61c.84.48,1.8.75,2.7,1.15a3.52,3.52,0,0,0,.49.13,9.34,9.34,0,0,0-1.48-1.26,5.69,5.69,0,0,0-1.59-1,5,5,0,0,0-1.66-.45C114.3,135,113.94,134.84,113.57,134.85Zm6.33,3.61a14,14,0,0,1-1.76-.6,7,7,0,0,0-1.44-.66,6.25,6.25,0,0,1-1.43-.71,3.92,3.92,0,0,0-.67-.4c-.51-.25-1-.59-1.45-.88a3.2,3.2,0,0,0,.72.74c.62.45,1.07,1.08,1.74,1.47a5.17,5.17,0,0,0,1.09.57A8.6,8.6,0,0,0,119.89,138.46Zm-.57,3a21.51,21.51,0,0,0,2.67-.35,15,15,0,0,0,1.93-.4,15.07,15.07,0,0,0-1.53.15,16,16,0,0,0-3.17.61h.07a2.38,2.38,0,0,0-.66.07A10.29,10.29,0,0,0,117,142,11.19,11.19,0,0,0,119.32,141.42Zm5.65-.53c-.74.19-1.47.36-2.21.5s-1.48.26-2.21.42c-.4.08-.79.07-1.19.15a7,7,0,0,0-1.43.4c-.29.13-.56,0-.85,0a4.36,4.36,0,0,0-.65.32,11.1,11.1,0,0,0,2.19-.2l1.11-.18c.37-.07.73-.12,1.1-.16a15.19,15.19,0,0,0,2.09-.45A13.12,13.12,0,0,0,125,140.89Zm8.36-2.26c-.53.54-1.13,1-1.62,1.57a4.36,4.36,0,0,1-.67.53,11.41,11.41,0,0,0-1,.83,11.15,11.15,0,0,0,1.72-1.29A6.51,6.51,0,0,0,133.33,138.63Zm2.43,4.66a8.57,8.57,0,0,1,.41-1c.59-1,.82-2.1,1.34-3.12a6,6,0,0,0,.69-1.47,7.82,7.82,0,0,1,.32-1.25c.24-.64.38-1.29.55-1.93a17.77,17.77,0,0,0,.2-1.9,5.65,5.65,0,0,1-.43,1.34c-.26.65-.5,1.31-.81,2s-.32,1.17-.56,1.73c-.26.87-.71,1.74-1,2.63s-.42,1.54-.66,2.31a7.64,7.64,0,0,0-.22,1.23l.33-.31Zm4.07-11.59c-.06.65,0,1.29-.15,2-.07.37-.07.71-.17,1.08-.18.82-.63,1.65-.75,2.48a4.41,4.41,0,0,1-.66,1.83c-.28.46-.38,1-.63,1.43a15.12,15.12,0,0,0-.56,1.56,3.18,3.18,0,0,0-.47,1,17.46,17.46,0,0,0,1.09-1.88c.27-.46.42-.94.66-1.4a16.14,16.14,0,0,0,1-2,10.1,10.1,0,0,0,.46-1.68c.12-.87.29-1.71.4-2.59A3.31,3.31,0,0,0,139.83,131.7Zm-8.71,8.41a12.74,12.74,0,0,0,1.17-1.21,11.73,11.73,0,0,0-1.48.9c-.48.32-1,.64-1.48.92s-.65.56-1,.81c-.52.4-1.05.78-1.58,1.17l-1.59,1.16a11.32,11.32,0,0,0,3.21-1.6,8.64,8.64,0,0,0,1.33-1C130.17,140.86,130.71,140.56,131.13,140.11Zm-.53-6.75a7,7,0,0,0,1.81-.5,11.64,11.64,0,0,0,2.91-1.13c.5-.28,1.06-.38,1.55-.69a23.3,23.3,0,0,0,2.77-1.83c-.43.15-.85.35-1.27.48-.59.18-1.16.46-1.73.7-.85.39-1.72.85-2.58,1.26A35.86,35.86,0,0,1,130.6,133.36Zm7.85-2.73a11.81,11.81,0,0,1-2,1c-.85.4-1.68.86-2.53,1.22a2.7,2.7,0,0,1-.89.32,2.07,2.07,0,0,1-.53.24c-.57.09-1.11.4-1.67.46a2.08,2.08,0,0,0-.77.22c-.26.11-.51.24-.77.34a6.39,6.39,0,0,0,3.2-.21,20.49,20.49,0,0,0,4.83-2.46,23.74,23.74,0,0,0,2.32-1.92A8.86,8.86,0,0,0,138.45,130.62Zm3.8-6.87c.17.36.36.7.56,1s.23.7.39,1c.24.55.64,1,.93,1.47a6.81,6.81,0,0,0,.72,1.15,16.1,16.1,0,0,0,1,1.54,3.07,3.07,0,0,1,.62.95,14.71,14.71,0,0,0-1.74-4.71,7.88,7.88,0,0,0-1.52-2A2.26,2.26,0,0,0,142.25,123.75Zm.69,3.22a27.39,27.39,0,0,0,1.49,2.89,5.2,5.2,0,0,0,1.66,2.08,3.72,3.72,0,0,0-.76-1.61,5,5,0,0,1-.7-1.12c-.29-.59-.77-1-1-1.63s-.66-1-.87-1.54a9.73,9.73,0,0,0-.79-1.6,11.19,11.19,0,0,0,.63,1.75C142.71,126.44,142.83,126.71,142.94,127Z"/><path class="cls-2" d="M109.24,159.26a3.3,3.3,0,0,1-.31.69l-.32-1a14.44,14.44,0,0,0,.57-4.73,7.69,7.69,0,0,0-.44-2.42,2.35,2.35,0,0,0-.65-.87c0,.39,0,.77,0,1.15s-.13.71-.14,1.06a16.14,16.14,0,0,0,.15,1.7,6.16,6.16,0,0,0,.12,1.32,13.56,13.56,0,0,0,.21,1.8,2.42,2.42,0,0,1,.14.88l-1.06-3.26a2.86,2.86,0,0,1,0-.73c0-.59-.14-1.14-.05-1.73a9.22,9.22,0,0,0,.05-1.75,10.11,10.11,0,0,0-.27,1.8c0,.28,0,.56-.05.85,0,.13,0,.25,0,.38l-.45-1.39c0-.42.08-.84.14-1.26-.11.19-.23.39-.36.58l-.25-.77a17,17,0,0,0,1.19-2.18,16.57,16.57,0,0,1-1.66.74l-.15-.45c.41-.15.8-.33,1.2-.51l.12-.19a9.25,9.25,0,0,1-1.42.39l-.14-.44.25-.08h-.28l-.15-.48a4.86,4.86,0,0,0,.86-.05c.46-.08.92-.07,1.38-.11.17,0,.27.12.4.19.15-.74.3-1.48.42-2.21.07-.41-.05-.81,0-1.23a4.93,4.93,0,0,0-.06-1.25,5.58,5.58,0,0,0-.22-1.26,8.47,8.47,0,0,1-.45.81c-.25.33-.57.62-.84.94a9.88,9.88,0,0,1-1.47,1.32l-.79.6-.12-.38c.34-.26.66-.53,1-.77.59-.41,1-1,1.5-1.46a1.88,1.88,0,0,0,.34-.5,3.2,3.2,0,0,0-.84.71,20.79,20.79,0,0,1-2.13,1.62l-.14-.44a8.64,8.64,0,0,1,.88-.63,11.2,11.2,0,0,0,.9-.7,1.79,1.79,0,0,0,.56-.51c-.68.41-1.29.9-2,1.31a5.1,5.1,0,0,0-.43.28l-.12-.38c.52-.35,1-.76,1.5-1.11s1-.68,1.45-1.05a6.46,6.46,0,0,1,.89-.81,5.94,5.94,0,0,0-.52-1.4,7.9,7.9,0,0,0-.64-1.05,12.38,12.38,0,0,0-.79-1.1c-.2-.15-.16-.4-.18-.61l.68-.09v.26a3.82,3.82,0,0,1,.75,1.14c.07.2.29.28.44.42a4.42,4.42,0,0,0,.32.46,10,10,0,0,1,1.06.43c.44.29.93.51,1.37.81s1.24.61,1.82,1c.38.29.73.59,1.09.89s.6.48.66.86a1.71,1.71,0,0,1-.05,1,2.29,2.29,0,0,1-.49.56,2,2,0,0,1-.8-.24c-.52-.33-.95-.75-1.44-1.11-.3-.27-.68-.47-1-.77a3.08,3.08,0,0,0-.49-.43,9.13,9.13,0,0,1-1.3-1.36c.22.66.31,1.36.52,2a4.54,4.54,0,0,1,.16,1.36,3.21,3.21,0,0,0,.17.63,1.58,1.58,0,0,1-.17.35,7.85,7.85,0,0,1,.89.71,21.24,21.24,0,0,1,1.55,1.67,7.43,7.43,0,0,1,.58.48,14.29,14.29,0,0,1,1.12,1.47c.45.5.77,1.07,1.19,1.59a7.32,7.32,0,0,0,0,.82,4,4,0,0,1-.35.32,4.35,4.35,0,0,1-1.42-.46,18.84,18.84,0,0,1-1.88-1.78,8.83,8.83,0,0,1-1.12-1.19,5.65,5.65,0,0,1-.7-1.55c-.12.34-.2.69-.3,1a8.58,8.58,0,0,1-.63,1.62,1.46,1.46,0,0,1,.7.18c.26.16.33.44.48.67s.57.66.6,1.1c.06.61.22,1.18.28,1.79a17.29,17.29,0,0,1-.14,2.68A8.7,8.7,0,0,1,109.24,159.26Zm3.38-15.06a.13.13,0,1,0,.06-.26A.13.13,0,1,0,112.62,144.19Zm-3.47-3.65a7.46,7.46,0,0,0,1.3.94,5.65,5.65,0,0,1,1.28,1.11,4.31,4.31,0,0,0,.87.85c.16.11.38,0,.57,0-.12-.48-.57-.73-1-1s-.47-.46-.76-.63C110.69,141.36,109.92,140.94,109.15,140.54Zm-.64.08c.49.56,1,1.07,1.53,1.63a16,16,0,0,0,1.6,1.1,4.91,4.91,0,0,0,.79.59c-.31-.31-.68-.56-1-.85s-.44-.79-.86-1C109.82,141.63,109.24,141,108.51,140.62Zm2.09,7.22a11.05,11.05,0,0,1,1.07,1.18,2.24,2.24,0,0,0,.82.82,5.13,5.13,0,0,0-.93-1.27A6.49,6.49,0,0,0,110.6,147.85Zm-1.58-1.1c.23.5.43,1,.62,1.53a7.56,7.56,0,0,0,2,2.12,3.64,3.64,0,0,0,1.87,1.3c-.27-.36-.58-.69-.86-1a9.11,9.11,0,0,0-.93-.8c-.45-.44-.68-1-1.14-1.46S109.6,147.24,109,146.75Z"/><path class="cls-2" d="M151.2,94.06a2.38,2.38,0,0,0,.39-.37,13.1,13.1,0,0,0,.77-1.62,13.49,13.49,0,0,0,.64-1.81c.24-.72.38-1.49.56-2.23a7.51,7.51,0,0,0,.22-1.09c0-.37.08-.74.14-1.1s.07-1,.14-1.46a6.48,6.48,0,0,0,.06-.9h-.48a12.32,12.32,0,0,1-.17,2.42c0,.34-.08.68-.13,1s-.13.67-.21,1l-.47,2A12.39,12.39,0,0,1,151.4,93a8.43,8.43,0,0,0,.48-1.73l.16-.89c0-.3.09-.6.16-.89.25-.82.26-1.7.44-2.54.09-.49.26-.95.37-1.43s.19-1.17.26-1.76c0-.09,0-.19.06-.29h-.47a5.37,5.37,0,0,1-.18,1.29,26.88,26.88,0,0,1-.64,3.15c-.11.41-.16.84-.3,1.23.12-1,.35-2,.42-3,0-.43.15-.85.21-1.28a5.39,5.39,0,0,1,.42-1.36h-.5a6.33,6.33,0,0,0-.23.72,5.66,5.66,0,0,0-.29,1.29c0,.67-.17,1.32-.24,2s-.09,1.18-.17,1.77a9.75,9.75,0,0,1-.22,1.33c-.11.44-.22.87-.31,1.31a3.22,3.22,0,0,0,0,2Z"/><path class="cls-2" d="M163.53,83.55l-.22-.07h-3.43a7.64,7.64,0,0,1,1.15.22,4.65,4.65,0,0,0,1.26.28,3.44,3.44,0,0,1,1.64.58,4.89,4.89,0,0,1-2.62-.25c-.89-.27-1.8-.47-2.67-.83h-1.46c.79.33,1.59.61,2.39.92a11.3,11.3,0,0,0,1.19.38c.3.1.58.24.88.32a14.07,14.07,0,0,0,2,.14c.41,0,.82.1,1.23.11a2.1,2.1,0,0,0,.5-.3,2.14,2.14,0,0,0-.15-.52,6.76,6.76,0,0,0-.72-1.05h-1Z"/><path class="cls-2" d="M149.75,84.38a8,8,0,0,1,.25,1.29,6.09,6.09,0,0,1-.58-1.45,4.58,4.58,0,0,1-.32-.74h-.47c0,.15.09.29.12.45a9.25,9.25,0,0,0,.53,1.35l.46,1.25a4.74,4.74,0,0,1-1-1.91c-.08-.39-.21-.76-.32-1.13H148c0,.13.06.26.09.39.1.53.28,1,.43,1.54a5.39,5.39,0,0,0,.62,1.18c.25.41.5.89,1,1l.48-.45c-.29-.8-.11-1.7-.32-2.52-.09-.38-.21-.75-.32-1.11h-.4A5.9,5.9,0,0,1,149.75,84.38Z"/><path class="cls-2" d="M155.65,83.48h.81l.15.22c.28.46.65.84.9,1.34s.42.87.65,1.29a9.36,9.36,0,0,1,.48,1.47,10.51,10.51,0,0,0,1.63,1.08c.43.62.8,1.34,1.23,2a8.65,8.65,0,0,1,1.3,2.07c.43,1,.62,2.13,1,3.11.22.69.31,1.48.52,2.19a10.2,10.2,0,0,1,.32,1.72c0,.41-.06.83-.07,1.24a1.29,1.29,0,0,1-.5.68,2.29,2.29,0,0,1-.61-.81c-.54-1.39-1.29-2.67-1.85-4.06-.22-.56-.49-1.09-.74-1.62-.33-.8-.71-1.57-1-2.36-.17-.42-.28-.87-.46-1.28a9.82,9.82,0,0,1,0,1.42c-.07.71-.18,1.42-.22,2.13a6.59,6.59,0,0,1-.29,1.27c0,.21.15.36.2.55a10.85,10.85,0,0,1-.17,5.34,20.15,20.15,0,0,1-.44,2c-.15.43-.18.89-.32,1.33a8.21,8.21,0,0,1-.47,1,26.92,26.92,0,0,1-1,2.64,5.63,5.63,0,0,0-.37.71,1.46,1.46,0,0,1-.43.72c-.21,0-.37-.11-.56-.18.06-.47.06-.92.14-1.4a18.89,18.89,0,0,1,.46-2.19l.24-1c.07-.33.13-.67.19-1l.36-2c.15-.64.37-1.26.53-1.89-.23.37-.43.77-.64,1.15a8.4,8.4,0,0,1-.74,1.07,4.2,4.2,0,0,0-.58.87c-.19.52-.26,1.09-.49,1.6-.32.68-.65,1.36-1,2q-.27.49-.55,1t-.63.91c-.8,1-1.57,2-2.33,3.09A12.74,12.74,0,0,1,149.2,114c-.19.19-.37.38-.54.58a5.79,5.79,0,0,0-.52.63l-.61-.19a3.55,3.55,0,0,1,.27-1.35,11.68,11.68,0,0,1,1-2c.36-.49.68-1,1-1.5a16,16,0,0,1,1.07-1.45c.49-.53.82-1.2,1.32-1.7a12.3,12.3,0,0,1-2.42,1.19,1.64,1.64,0,0,0-.76.37,12.39,12.39,0,0,1-2.86,2,5.76,5.76,0,0,1-1.5.56,6.42,6.42,0,0,1-2.52.21,5.38,5.38,0,0,1-1.45,0,2.28,2.28,0,0,0-.67,0,2.66,2.66,0,0,1-.4-.16,1.23,1.23,0,0,1,.46-.75c.22-.21.47-.38.67-.59a4.9,4.9,0,0,1,.87-.7c.36-.19.67-.48,1.05-.64a13.73,13.73,0,0,1,1.56-.67,7.07,7.07,0,0,1,1.48-.22,5.72,5.72,0,0,1,1-.24c.33,0,.65.1,1,.11s.73,0,1.09,0,.43.33.71.27a7.18,7.18,0,0,0,1.27-.49,9.34,9.34,0,0,0,1.16-.66c.36-.21.74-.38,1.1-.6a3.2,3.2,0,0,0,.81-.82c.19-.25.25-.59.43-.85s.46-.28.65-.52a9.67,9.67,0,0,0,.82-1.24,14,14,0,0,1-2.23,1.35c-.52.2-1,.54-1.53.73s-1,.47-1.48.62a16.34,16.34,0,0,1-3.36.93c-.34,0-.54-.29-.77-.5a4.33,4.33,0,0,1,1.45-1.33,8.13,8.13,0,0,1,1.13-.7c.84-.36,1.56-1.14,2.44-1.43a10.07,10.07,0,0,0,2.27-.9c.45-.16.87-.48,1.32-.6s.73-.28,1.11-.39a12.46,12.46,0,0,0,1.26-.56,7.78,7.78,0,0,1,.56-1.3,24.14,24.14,0,0,0,.84-3.58,19.16,19.16,0,0,0,.14-2.48l-.08-1.15a5.76,5.76,0,0,0-.21-1.11,4.32,4.32,0,0,1-.21-.8,8.25,8.25,0,0,0-.3-1.42c-.15,1-.24,1.92-.46,2.85-.15.74-.42,1.44-.61,2.17a15.32,15.32,0,0,1-.53,1.59c-.22.51-.46,1-.7,1.51a13.69,13.69,0,0,1-1.4,1.95c-.61.84-1.49,1.18-2.16,1.9l-.33-.25a5.87,5.87,0,0,1-.07-.62,6.25,6.25,0,0,1,.63-1.39c.5-1.22,1-2.45,1.51-3.7a7.81,7.81,0,0,1,.36-1.2c.36-.77.7-1.57,1-2.37a19.24,19.24,0,0,1,1-2.35,12.07,12.07,0,0,0,.63-1.48,1,1,0,0,1,.33-.4,6.83,6.83,0,0,0-.82-1.47,8.24,8.24,0,0,1-.86-1.14Zm-.32,18.79c-.89.5-1.8.9-2.68,1.38-.66.27-1.25.7-1.91,1a13.65,13.65,0,0,0-2.18.76,8.6,8.6,0,0,0,1.33-.38,24.12,24.12,0,0,0,4.47-2A7.59,7.59,0,0,0,155.32,102.27Zm.61-1.11a8.3,8.3,0,0,0-1.55.46c-.54.28-1.08.5-1.63.72a9.83,9.83,0,0,0-2.22,1,25.88,25.88,0,0,0-2.82,1.82l1-.52c.62-.32,1.32-.31,1.93-.67s1.39-.63,2.09-.93a10.63,10.63,0,0,1,1-.51A6.44,6.44,0,0,0,155.93,101.16Zm-13.86,8.75a7.86,7.86,0,0,0,.94-.18,5.85,5.85,0,0,1,1.23-.31,26,26,0,0,0,2.86-1.08,3.82,3.82,0,0,0,.46-.26,9.53,9.53,0,0,0-2,.13,5.78,5.78,0,0,0-1.86.41,5,5,0,0,0-1.6.84c-.3.27-.66.42-.94.7Zm6.39-1.59a15.18,15.18,0,0,1-1.76.82c-1.05.21-2.07.89-3.14,1a4,4,0,0,0-.78.18c-.56.18-1.13.25-1.69.37a3.06,3.06,0,0,0,1,0,22,22,0,0,0,2.31-.15,5.39,5.39,0,0,0,1.21-.36A9.21,9.21,0,0,0,148.47,108.32Zm.08,4.73a11.56,11.56,0,0,0,1.44-2.13,25.08,25.08,0,0,0,1.83-2.2A19.34,19.34,0,0,0,153,107a12.87,12.87,0,0,0-1.07,1.23,18.57,18.57,0,0,0-2,2.75l.06-.05a3.16,3.16,0,0,0-.46.53A11.65,11.65,0,0,0,148.55,113.06Zm5.45-6.63c-.44.68-.91,1.33-1.37,2s-1,1.27-1.44,1.91c-.26.35-.57.62-.82,1a9,9,0,0,0-.83,1.33c-.14.31-.43.42-.64.64a5,5,0,0,0-.3.7,37.31,37.31,0,0,0,3.06-3.61A15.66,15.66,0,0,0,153,108.5,18,18,0,0,0,154,106.42Zm4.86-7.74c0,.77-.19,1.54-.19,2.31a5.9,5.9,0,0,1-.15.87c-.09.43-.1.87-.16,1.31a12.34,12.34,0,0,0,.42-2.19A6.45,6.45,0,0,0,158.85,98.68Zm-1.63,4.42c-.13.43-.13.87-.22,1.31-.15.66-.26,1.34-.41,2s-.3,1.33-.46,2a11.13,11.13,0,0,0,1.39-3.51,9.29,9.29,0,0,0,.38-1.68,17.54,17.54,0,0,0,.27-1.88,13.14,13.14,0,0,0,.09-1.72,12.94,12.94,0,0,0-.54,1.73A16.54,16.54,0,0,1,157.23,103.1Zm7-2.9-.35,0c-.11-.31-.25-.63-.35-1-.27-1.14-.8-2.08-1.09-3.19a5.09,5.09,0,0,0-.5-1.55,6.77,6.77,0,0,1-.59-1.13c-.25-.63-.57-1.19-.86-1.77s-.79-1-1.13-1.5a6.5,6.5,0,0,1,.59,1.27c.23.66.49,1.3.69,2s.53,1.06.75,1.64c.42.81.63,1.75,1,2.56s.73,1.4,1.09,2.12a7.38,7.38,0,0,0,.66,1ZM159.1,89c.39.51.84.95,1.2,1.51.19.32.44.56.62.89.42.71.62,1.63,1.09,2.31a4.67,4.67,0,0,1,.76,1.78c.1.53.35,1,.48,1.47a11.52,11.52,0,0,0,.62,1.51,3.1,3.1,0,0,0,.33,1c-.07-.76-.35-1.4-.47-2.13-.1-.52-.3-1-.43-1.47a19.29,19.29,0,0,0-.62-2.15,9.25,9.25,0,0,0-.77-1.52l-1.44-2.13A3,3,0,0,0,159.1,89Zm-5.84,7.87a7.75,7.75,0,0,0,1-1.66,12.57,12.57,0,0,0,1.44-2.92c.19-.56.55-1,.7-1.62a26,26,0,0,0,.86-3.32c-.23.41-.4.86-.64,1.26-.32.56-.56,1.17-.83,1.75-.39.9-.73,1.86-1.1,2.77A38.7,38.7,0,0,1,153.26,96.84Zm3.25-5.44c-.37.91-.69,1.84-1.09,2.71A2.91,2.91,0,0,1,155,95a2.27,2.27,0,0,1-.24.56c-.37.47-.57,1.1-1,1.54a6.17,6.17,0,0,0-.8,1.52,7,7,0,0,0,2.28-2.47,22.07,22.07,0,0,0,2-5.28,25.35,25.35,0,0,0,.46-3.06,9.5,9.5,0,0,0-.35,1.38A12.76,12.76,0,0,1,156.51,91.4Z"/><path class="cls-2" d="M59.36,153.63c1-.87,1.87-1.81,2.92-2.6a6.48,6.48,0,0,1-.93.22c-.55.08-1.06.26-1.63.3s-1,0-1.46.06a13.7,13.7,0,0,1-1.54-.17,12.12,12.12,0,0,0-1.74,1c-.76.13-1.57.16-2.35.28a9.82,9.82,0,0,1-2.48.33c-1.07,0-2.2-.33-3.28-.35-.74-.07-1.48-.32-2.22-.42a10.54,10.54,0,0,1-1.7-.41c-.37-.17-.72-.38-1.08-.55a1.12,1.12,0,0,1-.37-.7,2.54,2.54,0,0,1,1-.2c.75,0,1.51,0,2.27,0s1.5,0,2.26,0a18,18,0,0,0,1.81,0c.88,0,1.73,0,2.59.05.45,0,.92.08,1.37.08a7.06,7.06,0,0,1-1.3-.52c-.6-.35-1.17-.74-1.8-1a5.29,5.29,0,0,1-1-.73,2.86,2.86,0,0,0-.58,0,10.79,10.79,0,0,1-2.48-.81A11.48,11.48,0,0,1,43.42,146a15.45,15.45,0,0,1-1.58-1.15c-.32-.3-.71-.51-1-.8s-.41-.54-.65-.78a18.32,18.32,0,0,1-1.89-1.93,4.16,4.16,0,0,0-.46-.6,1.23,1.23,0,0,1-.47-.64c.07-.19.27-.28.41-.41.4.23.83.38,1.21.64a17.19,17.19,0,0,1,1.73,1.27c1.06.78,2.15,1.51,3.24,2.24.52.36,1,.8,1.45,1.19A18.85,18.85,0,0,1,44,142.95a3.85,3.85,0,0,0-.51-.85c-.38-.37-.84-.67-1.2-1.06s-.48-.53-.71-.8-.44-.56-.65-.84a18.1,18.1,0,0,1-1.15-1.74c-.57-1.07-1.08-2.18-1.72-3.2-.49-.91-.63-1.91-1.18-2.78.14-.16.29-.31.44-.46a2.9,2.9,0,0,1,1.09.73,14.92,14.92,0,0,1,1.29,1.64c.59,1,1.21,1.94,1.72,2.93.28.61.71,1.17.93,1.81a13.08,13.08,0,0,1,0-2.59,1.47,1.47,0,0,0,0-.8,11.64,11.64,0,0,1-.51-3.26,5.26,5.26,0,0,1,.13-1.52,6.5,6.5,0,0,1,.91-2.32,5.61,5.61,0,0,1,.63-1.28,2.26,2.26,0,0,0,.25-.61,2.85,2.85,0,0,1,.31-.3c.53.3.5,1,.7,1.49a4.42,4.42,0,0,1,.26,1c0,.39.15.77.13,1.16a12.81,12.81,0,0,1-.08,1.65,6.84,6.84,0,0,1-.43,1.39,5.42,5.42,0,0,1-.22,1c-.15.29-.37.54-.52.83s-.3.65-.48.95-.48.26-.55.53a7.79,7.79,0,0,0-.13,1.3,8.75,8.75,0,0,0,.06,1.28c0,.41,0,.79.05,1.19a2.76,2.76,0,0,0,.38,1c.14.26.41.46.56.72A7.7,7.7,0,0,0,44,142a6.44,6.44,0,0,0,.75,1.19,11.27,11.27,0,0,1-.2-2.48c.06-.54,0-1.11,0-1.64s0-1,.08-1.52a15.19,15.19,0,0,1,.64-3.33c.12-.31.49-.37.77-.49a4.24,4.24,0,0,1,.56,1.79,7.29,7.29,0,0,1,.14,1.25c-.05.9.31,1.85.19,2.72a9.5,9.5,0,0,0-.18,2.34c-.06.46,0,1-.07,1.41s-.08.76-.15,1.13a11.17,11.17,0,0,0-.07,1.33,6.18,6.18,0,0,1,.93,1,16.75,16.75,0,0,0,2.83,2.14,16.1,16.1,0,0,0,2.15,1.12,14.26,14.26,0,0,0,2.17.63,4.31,4.31,0,0,1,.81.14,7,7,0,0,0,1.43.28,19.56,19.56,0,0,1-2.35-1.54c-.59-.43-1.13-.91-1.68-1.37a20.75,20.75,0,0,1-2.22-2.3,11.81,11.81,0,0,1-1.1-2,16.12,16.12,0,0,1-.75-2.63l.37-.2c.19.06.39.1.58.17a5.63,5.63,0,0,1,1,1.07c.43.46.85,1,1.29,1.41l1.35,1.37a7.63,7.63,0,0,1,.9.81c.53.61,1.12,1.2,1.69,1.81.29.3.57.61.85.92s.55.61.8.93.7.76,1,1.14a1,1,0,0,1,.2.46,6.09,6.09,0,0,0,1.7-.16,9,9,0,0,1,1.42-.34,14.27,14.27,0,0,0,2.47-.84,8.75,8.75,0,0,1-2.51-.94c-.41-.25-.87-.42-1.26-.68-.6-.4-1.26-.75-1.81-1.2A16.41,16.41,0,0,1,57,145.46a15.45,15.45,0,0,1-1.35-1.27,8.6,8.6,0,0,1-1.1-1.34,2.71,2.71,0,0,1-.16-.49l.28-.28a2.4,2.4,0,0,1,1,.25,4.08,4.08,0,0,1,.86.54c.72.49,1.37,1.09,2.14,1.52.49.3,1,.55,1.52.83s1.08.74,1.68,1a5.35,5.35,0,0,1,1,.76c.43.31.75.73,1.21,1s.72.53,1.08.8c.14.1.11.27.17.39.62-.44,1.24-.88,1.83-1.34.33-.25.52-.63.86-.9a5.16,5.16,0,0,0,.81-1,5.7,5.7,0,0,0,.7-1.09,9,9,0,0,1-.88.33c-.41.09-.84.09-1.25.14a12.52,12.52,0,0,1-2,0,21,21,0,0,1-2.13-.21c-.83-.12-1.57-.62-2.41-.7l-.2-.6c.27-.39.81-.44,1.28-.49a5.93,5.93,0,0,1,1.33-.11c.53.07,1.06.09,1.58.21a16.92,16.92,0,0,0,2.24.2c.6,0,1.17.17,1.77.18a6.48,6.48,0,0,1,1.2,0,5.88,5.88,0,0,0,.56-1.39,7.66,7.66,0,0,0,.23-1.21,11.84,11.84,0,0,0,.14-1.34c0-.24.14-.4.27-.58l.57.38-.17.2a3.75,3.75,0,0,1-.19,1.35c-.08.2,0,.4,0,.6a4.63,4.63,0,0,0-.07.55c.12.36.41.67.49,1s.35,1,.47,1.5.51,1.25.69,1.9c.08.46.13.93.19,1.4s.11.76-.11,1.08a1.75,1.75,0,0,1-.71.68,2.91,2.91,0,0,1-.75.1,1.8,1.8,0,0,1-.42-.69c-.16-.58-.17-1.17-.29-1.75,0-.4-.18-.8-.17-1.2a3.07,3.07,0,0,0-.07-.65,9.68,9.68,0,0,1,0-1.88c-.28.64-.69,1.22-1,1.86A4.7,4.7,0,0,1,69,146.9a3.37,3.37,0,0,0-.31.58,1.69,1.69,0,0,1-.37.15,7.26,7.26,0,0,1,.16,1.1,18.45,18.45,0,0,1,0,2.24,7.12,7.12,0,0,1,.08.74,13.42,13.42,0,0,1-.23,1.82c0,.66-.21,1.3-.29,2a8,8,0,0,0-.59.6,4.18,4.18,0,0,1-.48,0,4.35,4.35,0,0,1-.69-1.26,18,18,0,0,1-.09-2.53,8.85,8.85,0,0,1,0-1.62,5.83,5.83,0,0,1,.57-1.6c-.33.17-.63.37-.93.56a10.88,10.88,0,0,1-1.59.78,1.3,1.3,0,0,1,.38.58,1.66,1.66,0,0,1-.13.81c-.1.41-.06.87-.35,1.21s-.69,1-1.07,1.49a17.21,17.21,0,0,1-2,1.88,9.44,9.44,0,0,1-2.39,1.69,5.6,5.6,0,0,1-2,.53,2.24,2.24,0,0,1-.55-.08,1.92,1.92,0,0,1,0-.56c.2-.36.46-.7.69-1a15.37,15.37,0,0,1,1.08-1.71c.21-.23.48-.44.7-.66S59,153.9,59.36,153.63Zm12.41-4.38c.11.16.33,0,.22-.16S71.65,149.12,71.76,149.24Zm-.05-5a7.25,7.25,0,0,0,.32,1.55,5.34,5.34,0,0,1,.18,1.65,4.17,4.17,0,0,0,.05,1.2c0,.19.27.26.42.37a1.88,1.88,0,0,0,0-1.38c-.08-.32,0-.64-.14-1C72.29,145.87,72,145.06,71.71,144.26Zm-.52-.37c0,.74,0,1.49,0,2.24a15.54,15.54,0,0,0,.42,1.85,4.65,4.65,0,0,0,.18.95c0-.43-.11-.86-.16-1.29a2.89,2.89,0,0,0,.06-1.32C71.46,145.52,71.44,144.7,71.18,143.89Zm-2.6.89a3.72,3.72,0,0,0-1.09,0c-1.14.09-2.33-.26-3.48-.16a6.1,6.1,0,0,0-1.56,0,8,8,0,0,0,1.28.27,6.55,6.55,0,0,0,1.08.16c.36,0,.73,0,1.09.06.72.07,1.39-.15,2.09-.11A1.63,1.63,0,0,0,68.58,144.78ZM68,144.3c-.77-.17-1.56-.17-2.34-.3-.56-.09-1.11-.11-1.66-.21a4.91,4.91,0,0,0-2.17.2c.44,0,.88,0,1.32.07a9.2,9.2,0,0,1,1.44,0c.5.1,1,.07,1.52.16s.76,0,1.14,0A2,2,0,0,0,68,144.3Zm-.23,6.33a10.13,10.13,0,0,1,0,1.56,2.2,2.2,0,0,0,0,1.14,5,5,0,0,0,.23-1.55A5.88,5.88,0,0,0,67.74,150.63Zm-.39-1.82c-.18.52-.39,1-.62,1.53a7.33,7.33,0,0,0-.08,2.83,3.45,3.45,0,0,0,.42,2.17c.07-.44.08-.89.13-1.34a7.76,7.76,0,0,0-.11-1.19c0-.62.23-1.2.2-1.81S67.44,149.54,67.36,148.8Zm-8.79-4c.3.28.66.49,1,.74s.82.64,1.25.95.87.57,1.32.86a6.29,6.29,0,0,0,1.33.77A8,8,0,0,0,62.18,147c-.37-.22-.7-.48-1.07-.68Zm5.51,4.33.22-.06a5.94,5.94,0,0,1-1.52-.81c-.51-.29-1-.62-1.49-.91s-.73-.62-1.12-.91c-.68-.49-1.48-.82-2.11-1.36a22.52,22.52,0,0,1-2.8-2.09,12.23,12.23,0,0,0,2.21,2.33,34.46,34.46,0,0,0,3.27,2.31A12.6,12.6,0,0,0,64.07,149.1Zm-18.84-6.25c-.06-1,0-1.9,0-2.88.05-.68,0-1.39,0-2.07a12.48,12.48,0,0,0,.26-2.2,8.17,8.17,0,0,0-.23,1.32,25.41,25.41,0,0,0-.18,4.73A6.54,6.54,0,0,0,45.23,142.86Zm.71,1a7.9,7.9,0,0,0,.3-1.55c0-.57,0-1.14.07-1.7a9.92,9.92,0,0,0,.1-2.34A19,19,0,0,0,46,135c0,.36,0,.73,0,1.1,0,.67-.28,1.28-.24,2s-.07,1.48-.11,2.22a10,10,0,0,1,0,1A6.28,6.28,0,0,0,45.95,143.82Zm-1.6-16.42c-.06.29-.11.58-.16.87a7.65,7.65,0,0,0-.23.9,5.57,5.57,0,0,1-.24,1.2,27.32,27.32,0,0,0-.28,2.95,3.43,3.43,0,0,0,0,.5A9.18,9.18,0,0,0,44.2,132a5.93,5.93,0,0,0,.45-1.83,4.55,4.55,0,0,0-.08-1.72C44.46,128.13,44.47,127.75,44.35,127.4Zm-1.48,7.12a11.65,11.65,0,0,1,0-1.86c.29-1,.1-2.17.42-3.16a3.81,3.81,0,0,0,.17-.76,14.87,14.87,0,0,1,.39-1.65,3.26,3.26,0,0,0-.49.92,21.48,21.48,0,0,0-.86,2.1,5,5,0,0,0-.19,1.2,13.92,13.92,0,0,0,.1,1.61A5.82,5.82,0,0,0,42.86,134.52Zm-3,.35A15.32,15.32,0,0,0,41,137.31c.28.59.64,1.15,1,1.72a11.68,11.68,0,0,0-.6-1.43c-.24-.48-.47-1-.72-1.43a9.66,9.66,0,0,0-.83-1.4l0,.07a2.19,2.19,0,0,0-.27-.6,14.52,14.52,0,0,0-1-1.43A9.65,9.65,0,0,0,39.88,134.88Zm2.22,5.23c-.41-.64-.77-1.32-1.14-2s-.73-1.29-1.08-2c-.19-.36-.29-.75-.5-1.1a6.91,6.91,0,0,0-.84-1.21c-.22-.23-.18-.54-.28-.8a4.38,4.38,0,0,0-.49-.53c.35,1.42,1.3,2.65,1.86,4a11.5,11.5,0,0,0,1.08,1.84A14,14,0,0,0,42.11,140.11Zm4.74,7.24c-.68-.32-1.32-.74-2-1.06a5.53,5.53,0,0,1-.71-.48,11.45,11.45,0,0,0-1.1-.64,15.11,15.11,0,0,0,1.77,1.23A5.59,5.59,0,0,0,46.84,147.35Zm-3.7,3.77a8.78,8.78,0,0,1,1,.08c1.16.22,2.24.15,3.38.33a6.13,6.13,0,0,0,1.63.18,7.13,7.13,0,0,1,1.28-.06,15.21,15.21,0,0,0,2-.07c.67,0,1.23-.31,1.87-.39a7,7,0,0,1-1.4,0,20.8,20.8,0,0,1-2.13-.16c-.61,0-1.2,0-1.82,0-.46,0-.93,0-1.41,0s-.94-.08-1.39-.07c-.83,0-1.6.08-2.41.1a9.64,9.64,0,0,0-1.24.17l.4.22Zm12.3.31c-.64.14-1.23.35-1.9.44-.37,0-.7.16-1.08.18a9.78,9.78,0,0,1-1.31,0,6.53,6.53,0,0,0-1.29,0,4.92,4.92,0,0,1-1.95-.06c-.53-.12-1,0-1.55-.15a12.17,12.17,0,0,0-1.65-.07,3.25,3.25,0,0,0-1.08-.13c.71.25,1.42.26,2.13.45a13.79,13.79,0,0,0,1.53.21c.75.15,1.49.25,2.22.32a8.36,8.36,0,0,0,1.73-.07c.86-.16,1.74-.29,2.6-.43A3.2,3.2,0,0,0,55.45,151.43Zm-10.68-5.72a10,10,0,0,0,1.5.76c-.8-.83-1.78-1.49-2.64-2.26-.34-.27-.73-.45-1.07-.7-1-.79-2.16-1.49-3.18-2.31a10.11,10.11,0,0,0,2.51,2.57,7.17,7.17,0,0,0,1.33,1C43.74,145,44.21,145.44,44.76,145.71ZM51,143.14a5.87,5.87,0,0,0,1,1.56,12.35,12.35,0,0,0,2,2.43c.42.38.7.86,1.15,1.24s.82.74,1.24,1.1a11.37,11.37,0,0,0,1.36,1c-.27-.36-.6-.68-.86-1s-.8-1-1.2-1.44c-.62-.73-1.36-1.35-2-2C52.77,145,51.86,144.11,51,143.14Zm5,6.64a14.76,14.76,0,0,1-1.6-1.64c-.33-.34-.67-.66-1-1s-.65-.69-.94-1a3.08,3.08,0,0,1-.58-.74,2,2,0,0,1-.4-.42,17.15,17.15,0,0,1-.95-1.45,4.61,4.61,0,0,0-1-1.29,6.85,6.85,0,0,0,1.18,3A20.37,20.37,0,0,0,54.6,149a12,12,0,0,0,1.23.87c.43.27.88.5,1.32.75A9,9,0,0,0,56,149.78Zm7.73,1.47c-.29.28-.55.57-.81.86a10.41,10.41,0,0,1-.85.68c-.45.39-.71.9-1.11,1.33a6.67,6.67,0,0,0-.87,1c-.33.51-.89.88-1.15,1.43a3.12,3.12,0,0,1-.71.89,14.83,14.83,0,0,0,3.94-3.1,8,8,0,0,0,1.42-2.07A2.23,2.23,0,0,0,63.77,151.26Zm-2.85,1.64a25.93,25.93,0,0,0-2.29,2.32,5.26,5.26,0,0,0-1.47,2.23,3.8,3.8,0,0,0,1.31-1.23,5.14,5.14,0,0,1,.85-1c.47-.46.72-1.05,1.24-1.48s.71-.92,1.2-1.29A9.45,9.45,0,0,0,63,151.2a11,11,0,0,0-1.46,1.12Q61.25,152.62,60.92,152.9Z"/><path class="cls-2" d="M19.81,130.83a3.22,3.22,0,0,1-.74-.09l.85-.62a14,14,0,0,0,4.68-.93A7.78,7.78,0,0,0,26.76,128a2.31,2.31,0,0,0,.62-.88c-.38.1-.74.24-1.1.37s-.72.1-1.06.2a16.83,16.83,0,0,0-1.57.67,6.09,6.09,0,0,0-1.21.52,13.43,13.43,0,0,0-1.64.75,2.4,2.4,0,0,1-.79.4l2.78-2a2.82,2.82,0,0,1,.68-.25c.56-.15,1-.48,1.62-.58a8.93,8.93,0,0,0,1.68-.49A10.77,10.77,0,0,0,25,127l-.82.21-.37.08,1.18-.86c.41-.1.81-.18,1.23-.25-.22-.05-.44-.1-.65-.17l.65-.48c.41.11.81.21,1.21.29s.82.13,1.23.17l-.64-.65c-.2-.23-.39-.46-.58-.7l.39-.28a10.71,10.71,0,0,0,.84,1l.22.06a6.72,6.72,0,0,1-.8-1.23l.38-.27.15.22c0-.09-.06-.18-.09-.26l.4-.29a4.93,4.93,0,0,0,.3.81c.23.41.36.84.55,1.26.07.16,0,.29,0,.44.74-.08,1.49-.16,2.21-.28.41-.06.75-.3,1.17-.35a5,5,0,0,0,1.17-.45,5.66,5.66,0,0,0,1.14-.6,7.5,7.5,0,0,1-.92-.17c-.39-.14-.75-.36-1.14-.52a12.23,12.23,0,0,1-1.72-1l-.8-.57.32-.23,1,.72c.59.43,1.28.57,1.87,1a1.82,1.82,0,0,0,.57.18,3.13,3.13,0,0,0-.92-.6,15.93,15.93,0,0,1-2.21-1.52l.38-.27c.29.21.58.41.86.65a11.41,11.41,0,0,0,1,.62,2,2,0,0,0,.65.37c-.58-.54-1.29-.93-1.88-1.47a5,5,0,0,0-.39-.32l.32-.23c.24.2.49.38.75.55s.52.34.78.52c.52.29,1,.73,1.44,1.07a9.14,9.14,0,0,1,1,.59,6,6,0,0,0,1.17-.93,7.81,7.81,0,0,0,.8-.93,12.16,12.16,0,0,0,.79-1.08c.08-.23.33-.27.53-.36l.31.61-.25.08a3.76,3.76,0,0,1-.85,1.06c-.17.13-.18.36-.26.54a4.53,4.53,0,0,0-.34.44,10.39,10.39,0,0,1-.09,1.16c-.15.51-.21,1.06-.36,1.56s-.18,1.35-.34,2c-.16.45-.34.89-.52,1.32s-.28.72-.62.9a1.67,1.67,0,0,1-.93.24,2.8,2.8,0,0,1-.68-.29,1.91,1.91,0,0,1,0-.83c.15-.6.41-1.12.6-1.7.17-.37.24-.8.44-1.15a3.17,3.17,0,0,0,.26-.61,9.52,9.52,0,0,1,.9-1.66c-.56.42-1.2.72-1.77,1.13a4.62,4.62,0,0,1-1.25.58,3.24,3.24,0,0,0-.55.36,1.63,1.63,0,0,1-.39-.05,7.62,7.62,0,0,1-.39,1.05,20.16,20.16,0,0,1-1.1,2c-.1.23-.16.49-.28.7a14.51,14.51,0,0,1-1.06,1.52c-.34.58-.79,1.07-1.16,1.62a7.15,7.15,0,0,0-.78.25,4,4,0,0,1-.41-.23,4.87,4.87,0,0,1,0-1.49,18.49,18.49,0,0,1,1.1-2.33,8.57,8.57,0,0,1,.79-1.44c.3-.52.85-.76,1.26-1.15-.36,0-.71,0-1.07,0a10.14,10.14,0,0,1-1.73-.1,1.42,1.42,0,0,1,.06.71c-.07.3-.32.46-.5.66s-.46.75-.87.92-1.05.57-1.6.82a17.84,17.84,0,0,1-2.61.71A8.48,8.48,0,0,1,19.81,130.83Zm15.37-1.47a.13.13,0,1,0,.27,0A.13.13,0,1,0,35.18,129.37Zm2.4-4.42a7.16,7.16,0,0,0-.5,1.53,5.51,5.51,0,0,1-.65,1.55,4.22,4.22,0,0,0-.54,1.09c-.06.18.11.36.19.54a1.93,1.93,0,0,0,.66-1.23c.08-.32.29-.58.35-.91C37.27,126.66,37.42,125.81,37.57,124.94Zm-.27-.59c-.38.64-.71,1.32-1.09,2a13.8,13.8,0,0,0-.55,1.86,4.78,4.78,0,0,0-.31.93c.2-.39.32-.82.49-1.22a2.94,2.94,0,0,0,.7-1.13C36.74,125.92,37.13,125.18,37.31,124.35Zm-6.23,4.22A10.83,10.83,0,0,1,30.3,130a2.29,2.29,0,0,0-.53,1,5.19,5.19,0,0,0,.92-1.28A6.31,6.31,0,0,0,31.08,128.57Zm.54-1.82c-.4.37-.83.72-1.26,1.06a7.42,7.42,0,0,0-1.4,2.5,3.71,3.71,0,0,0-.66,2.17c.26-.37.49-.77.73-1.15a8.46,8.46,0,0,0,.47-1.13c.28-.56.76-1,1-1.53S31.33,127.44,31.62,126.75Z"/><path class="cls-2" d="M94.75,150.58a2.84,2.84,0,0,0,.47.25,13.19,13.19,0,0,0,1.78.25,5.73,5.73,0,0,0,1,.07c.32,0,.64,0,1,0,.76,0,1.54-.09,2.31-.13a21,21,0,0,0,2.2-.34c.49-.06,1-.22,1.44-.3a6.12,6.12,0,0,0,.87-.25l-.15-.45a9.54,9.54,0,0,1-2.36.6c-.68.13-1.36.24-2,.32l-2.05.15a11.42,11.42,0,0,1-3.33-.26,8.47,8.47,0,0,0,1.8-.06c.6-.07,1.19-.21,1.79-.25a18.47,18.47,0,0,0,2.55-.37c.49-.06,1,0,1.48-.08s1.18-.15,1.76-.3l.29,0-.14-.44a4.32,4.32,0,0,1-1.28.25c-1.07.14-2.14.31-3.2.37-.43,0-.85.1-1.27.08l1.51-.24,1.5-.3c.43-.09.86-.11,1.29-.18a6.83,6.83,0,0,1,1.42,0l-.15-.48a22.52,22.52,0,0,0-2.07.14c-.65.17-1.32.21-2,.39s-1.15.27-1.74.37a21.71,21.71,0,0,1-2.68.31,3.14,3.14,0,0,0-1.94.63Z"/><path class="cls-2" d="M108.57,159.06v-.23l-1.06-3.26a7.72,7.72,0,0,1,.15,1.17,4.72,4.72,0,0,0,.12,1.3,3.48,3.48,0,0,1,0,1.75,4.88,4.88,0,0,1-.57-2.57c0-.94-.11-1.87,0-2.82l-.45-1.39c-.07.86-.08,1.72-.14,2.58a11.21,11.21,0,0,0,0,1.25c0,.31-.05.63,0,.93a14,14,0,0,0,.48,1.95c.09.4.15.81.28,1.21a2.12,2.12,0,0,0,.44.38,2.14,2.14,0,0,0,.46-.31,6.82,6.82,0,0,0,.77-1l-.32-1Z"/><path class="cls-2" d="M103.53,146.24a8,8,0,0,1-1.16.63c.28-.44.83-.63,1.2-1a4.78,4.78,0,0,1,.6-.56l-.14-.44-.38.27a13.34,13.34,0,0,0-1.12.92l-1.05.81a4.69,4.69,0,0,1,1.51-1.56,8.66,8.66,0,0,0,1-.68l-.12-.38-.34.22c-.46.28-.89.58-1.34.88a5.33,5.33,0,0,0-.94.95c-.31.36-.68.77-.61,1.24l.57.3a23.1,23.1,0,0,1,2.31-1.07,9.84,9.84,0,0,0,1-.68l-.12-.38A5.38,5.38,0,0,1,103.53,146.24Z"/><path class="cls-2" d="M106.2,151.55l.25.77-.16.21a13.3,13.3,0,0,1-1,1.29c-.34.34-.71.66-1,1a13.32,13.32,0,0,1-1.26.91,11.26,11.26,0,0,0-.52,1.89c-.46.6-1,1.17-1.51,1.77a8.76,8.76,0,0,1-1.57,1.88c-.78.7-1.85,1.22-2.65,1.93-.59.45-1.31.75-1.92,1.17a10.12,10.12,0,0,1-1.54.83l-1.19.33a1.29,1.29,0,0,1-.79-.27,2.26,2.26,0,0,1,.58-.82c1.15-1,2.14-2.06,3.29-3a17.61,17.61,0,0,0,1.31-1.21c.67-.56,1.28-1.15,1.94-1.69.35-.29.75-.53,1.08-.83a8.65,8.65,0,0,1-1.34.46c-.7.15-1.41.24-2.09.44a5.21,5.21,0,0,1-1.29.12c-.2.08-.3.25-.46.35a10.59,10.59,0,0,1-2.42,1.06,13.21,13.21,0,0,1-2.7.41,15.39,15.39,0,0,1-2,.2c-.46,0-.9.1-1.36.1s-.7-.12-1.06-.14a19,19,0,0,1-2.81-.18,4.67,4.67,0,0,0-.78-.14,1.43,1.43,0,0,1-.82-.16c-.1-.19,0-.39,0-.58.47-.1.89-.27,1.37-.33a18.58,18.58,0,0,1,2.21-.21c1.36-.11,2.7-.33,4-.49.65-.08,1.3-.06,2-.09a16.34,16.34,0,0,1-2.53-.63,4.2,4.2,0,0,0-1-.29c-.56,0-1.11.07-1.67,0a23.22,23.22,0,0,1-4.36-.85c-1.22-.44-2.41-.92-3.65-1.26-1-.38-1.88-1-2.94-1.31,0-.21,0-.42,0-.64a3.17,3.17,0,0,1,1.37-.18,14.62,14.62,0,0,1,2.18.39,35.67,35.67,0,0,1,3.44,1.06c.65.27,1.39.4,2,.72a14.14,14.14,0,0,1-1.87-1.93,1.69,1.69,0,0,0-.59-.6,14.29,14.29,0,0,1-2.76-2.11,5.22,5.22,0,0,1-1-1.25,6.55,6.55,0,0,1-1-2.35,5.35,5.35,0,0,1-.43-1.38,2.19,2.19,0,0,0-.24-.61,2.64,2.64,0,0,1,0-.43c.64-.13,1.11.39,1.62.65a5,5,0,0,1,.94.63c.29.29.67.47.94.78a11.94,11.94,0,0,1,1.12,1.28,7.2,7.2,0,0,1,.67,1.35,6.22,6.22,0,0,1,.54.89c.09.32.1.65.2,1s.24.68.32,1-.18.52,0,.76a8.2,8.2,0,0,0,.85,1.05,9.49,9.49,0,0,0,1,.91c.31.28.59.59.91.87a3,3,0,0,0,1,.49c.29.1.64.06.94.16s.41.36.69.47a8.51,8.51,0,0,0,1.43.4,13.51,13.51,0,0,1-2-1.72c-.35-.44-.82-.8-1.16-1.24s-.75-.75-1-1.19A16.66,16.66,0,0,1,82,150.49c-.13-.31.11-.61.24-.88a4.38,4.38,0,0,1,1.71,1,8.71,8.71,0,0,1,1,.83c.6.69,1.56,1.15,2.1,1.9a11.77,11.77,0,0,0,.71,1,8.77,8.77,0,0,0,.84.88c.29.38.72.68,1,1.08s.49.62.71.94a12.61,12.61,0,0,0,.92,1,9.51,9.51,0,0,1,1.41.11l1.84-.07a8.79,8.79,0,0,0,1.83-.23,19.16,19.16,0,0,0,2.41-.61,11.11,11.11,0,0,0,2.07-1,4.31,4.31,0,0,1,.69-.44,7.72,7.72,0,0,0,1.27-.72c-1,.15-1.91.35-2.87.42a21.63,21.63,0,0,1-2.25.09,17.25,17.25,0,0,1-3.32-.22,14.17,14.17,0,0,1-2.28-.74c-1-.28-1.58-1.06-2.47-1.47l.14-.39a5.8,5.8,0,0,1,.56-.25,8.1,8.1,0,0,1,1.52.16l2,.17,1,.09,1,0a7.85,7.85,0,0,1,1.26,0c.42.06.85.1,1.28.15s.86,0,1.29.08a19.51,19.51,0,0,1,2.56.29c.52.08,1.06.08,1.6.12a1.05,1.05,0,0,1,.48.2,6.77,6.77,0,0,0,1.16-1.22,10.46,10.46,0,0,1,.81-1.19Zm-18,5.48c-.75-.67-1.41-1.44-2.13-2.13-.46-.54-1-1-1.53-1.51a15.58,15.58,0,0,0-1.39-1.83,8.75,8.75,0,0,0,.77,1.16,26.81,26.81,0,0,0,3.29,3.62A6.1,6.1,0,0,0,88.21,157Zm1.24.23a8.35,8.35,0,0,0-.91-1.34,15.58,15.58,0,0,1-1.18-1.31,10,10,0,0,0-1.62-1.82,26.29,26.29,0,0,0-2.59-2.11l.81.82c.5.49.7,1.13,1.23,1.61s1,1.14,1.52,1.72a10.74,10.74,0,0,1,.78.76A6.54,6.54,0,0,0,89.45,157.26ZM76.87,146.8c.19.27.23.6.46.85A6.11,6.11,0,0,1,78,148.7c.53.84,1.29,1.57,1.91,2.39a3.9,3.9,0,0,0,.39.37,9.69,9.69,0,0,0-.73-1.85,5.9,5.9,0,0,0-1-1.66,5.1,5.1,0,0,0-1.29-1.23c-.35-.2-.6-.5-1-.69C76.53,146.28,76.7,146.54,76.87,146.8Zm3.49,5.59A15.48,15.48,0,0,1,79,151c-.52-1-1.49-1.66-2-2.64a4.09,4.09,0,0,0-.41-.69c-.35-.48-.59-1-.88-1.51a3.12,3.12,0,0,0,.28,1,22.46,22.46,0,0,0,.85,2.17,4.72,4.72,0,0,0,.72,1A10.23,10.23,0,0,0,80.37,152.39Zm-4.47,1.54a10.06,10.06,0,0,0,2.47.69A18.41,18.41,0,0,0,81,155.69c.64.25,1.32.42,2,.63a12.93,12.93,0,0,0-1.49-.66,25.11,25.11,0,0,0-3.24-1.09l.07,0a2.47,2.47,0,0,0-.64-.27l-.89-.22A7.36,7.36,0,0,0,75.9,153.92Zm8,3.13c-.78-.22-1.54-.47-2.29-.71L80.45,156l-1.13-.39c-.41-.14-.76-.36-1.18-.49a8.69,8.69,0,0,0-1.53-.35c-.33,0-.53-.29-.8-.42a5,5,0,0,0-.76-.07,10.79,10.79,0,0,0,2.14,1,23,23,0,0,1,2.23.83,11.86,11.86,0,0,0,2.16.66A18,18,0,0,0,83.87,157.05Zm8.83,2.22c-.74.23-1.52.31-2.25.54a5.85,5.85,0,0,1-.88.12,12.2,12.2,0,0,0-1.29.26,16,16,0,0,0,2.21-.27A5.78,5.78,0,0,0,92.7,159.27ZM88,159.1c-.45,0-.87.14-1.31.18-1.35.12-2.69.34-4.05.4a10.93,10.93,0,0,0,3.74.24,8.73,8.73,0,0,0,1.7-.14c.61-.14,1.26-.16,1.86-.33a13,13,0,0,0,1.66-.43C90.42,158.91,89.21,159.1,88,159.1Zm4.89,5.72-.08-.34a8.26,8.26,0,0,1,.81-.63c1-.61,1.74-1.38,2.7-2a5.85,5.85,0,0,0,1.32-1,6.71,6.71,0,0,1,.89-.9,15.64,15.64,0,0,0,1.42-1.37c.46-.48.67-1,1.09-1.54a6.72,6.72,0,0,1-1,.94,20.66,20.66,0,0,1-1.68,1.28c-.46.39-.85.83-1.34,1.21a12.36,12.36,0,0,1-1.06.91,12.23,12.23,0,0,0-1.06.88c-.64.52-1.1,1.12-1.68,1.67a7,7,0,0,0-.76,1Zm9.14-8.28c-.37.52-.65,1.08-1.08,1.59-.25.28-.4.59-.66.86-.54.65-1.36,1.1-1.86,1.75A4.64,4.64,0,0,1,97,162c-.48.27-.79.65-1.25.92a11.39,11.39,0,0,0-1.25,1,3.07,3.07,0,0,0-.88.62c.7-.29,1.23-.75,1.88-1.08a13.44,13.44,0,0,0,1.26-.87,22,22,0,0,0,1.85-1.25,9.17,9.17,0,0,0,1.22-1.19c.52-.69,1.06-1.37,1.59-2A3,3,0,0,0,102,156.54Zm-9.3-3.15a7.8,7.8,0,0,0,1.9.49,14.27,14.27,0,0,0,3.22.47c.6,0,1.15.19,1.76.16l1.71,0a8.71,8.71,0,0,0,1.72-.18c-.46-.07-.94-.09-1.39-.2-.63-.14-1.29-.18-1.93-.26-1-.08-2-.1-3-.19-.68,0-1.35,0-2-.06Zm6.18,1.44c-1-.07-2-.1-2.92-.22a3.37,3.37,0,0,1-1-.15,2.23,2.23,0,0,1-.61-.06c-.56-.21-1.22-.22-1.76-.45a5.6,5.6,0,0,0-1.69-.27,7.33,7.33,0,0,0,3,1.41,13.47,13.47,0,0,0,2.78.31,27.83,27.83,0,0,0,2.86,0,23,23,0,0,0,3.06-.49,11.75,11.75,0,0,0-1.43.09A16.16,16.16,0,0,1,98.92,154.83Z"/><path class="cls-2" d="M9.76,81.64c1.13.66,2.28,1.22,3.36,2a5.54,5.54,0,0,1-.5-.81c-.24-.5-.57-.92-.77-1.45s-.34-.92-.53-1.36A10.72,10.72,0,0,1,11,78.47a11.86,11.86,0,0,0-1.52-1.32c-.37-.68-.69-1.44-1-2.14A10.64,10.64,0,0,1,7.4,72.76c-.36-1-.37-2.19-.68-3.23-.16-.72-.19-1.51-.32-2.25a10.43,10.43,0,0,1-.11-1.74c.06-.4.13-.8.17-1.21A1.09,1.09,0,0,1,7,63.76a2.63,2.63,0,0,1,.52.91c.21.74.46,1.45.7,2.16l.35,1.06c.12.36.24.72.35,1.09.17.59.39,1.15.58,1.72s.24.83.36,1.24.28.82.4,1.24.2.9.34,1.33a9.66,9.66,0,0,1,.09-1.39c.11-.68.32-1.35.43-2a6.12,6.12,0,0,1,.39-1.19,3,3,0,0,0-.15-.57,9,9,0,0,1,0-2.61,10.2,10.2,0,0,1,.67-2.57c.22-.62.35-1.27.61-1.86.19-.4.23-.85.43-1.24s.39-.55.56-.86a19.83,19.83,0,0,1,1.23-2.4,4.23,4.23,0,0,0,.44-.62,1.28,1.28,0,0,1,.47-.64c.2,0,.35.17.52.27-.1.45-.12.9-.26,1.34-.16.7-.42,1.37-.64,2.05S15,61.41,14.81,62L14.29,64c-.18.6-.5,1.16-.7,1.75a15.83,15.83,0,0,1,1.57-1.93,3.69,3.69,0,0,0,.63-.76c.11-.24.2-.5.29-.75a5.54,5.54,0,0,1,.34-.73,18.28,18.28,0,0,1,2.45-3.44l1.26-1.31c.41-.44.86-.87,1.25-1.33.72-.74,1.57-1.22,2.27-2l.57.28A3.31,3.31,0,0,1,23.86,55a10.3,10.3,0,0,1-1.16,1.74c-.39.42-.74.86-1.1,1.3a14.26,14.26,0,0,1-1.15,1.25,9,9,0,0,0-.71.73,5.35,5.35,0,0,1-.71.71A11.61,11.61,0,0,1,21.48,60a1.51,1.51,0,0,0,.77-.25,11.78,11.78,0,0,1,2.93-1.5,5.44,5.44,0,0,1,1.5-.33,6.52,6.52,0,0,1,2.48.14,5.5,5.5,0,0,1,1.41.2,2.21,2.21,0,0,0,.65,0,2.86,2.86,0,0,1,.39.2c-.11.6-.76.8-1.18,1.14a4.59,4.59,0,0,1-.92.55c-.38.13-.68.38-1.06.49a11.41,11.41,0,0,1-1.58.44,7,7,0,0,1-1.47,0,5.58,5.58,0,0,1-1,.1c-.32-.05-.63-.19-1-.24s-.71-.08-1.06-.17-.39-.38-.67-.36a7,7,0,0,0-1.27.29,8.48,8.48,0,0,0-1.18.46c-.37.15-.75.26-1.12.42a2.84,2.84,0,0,0-.86.67c-.22.21-.31.53-.51.75s-.47.2-.68.4a8.49,8.49,0,0,0-.9,1.08,12.64,12.64,0,0,1,2.29-1c.53-.11,1-.37,1.56-.47s1-.32,1.49-.39a16.06,16.06,0,0,1,3.36-.42c.33,0,.51.35.71.58a4,4,0,0,1-1.54,1.08,8.83,8.83,0,0,1-1.15.52c-.86.23-1.62.88-2.51,1a9.71,9.71,0,0,0-2.3.55c-.47.08-.89.34-1.36.38s-.74.16-1.12.21a11.58,11.58,0,0,0-1.28.35,6.28,6.28,0,0,1-.66,1.18,18.71,18.71,0,0,0-1.15,3.36,12.93,12.93,0,0,0-.33,4.65,4.38,4.38,0,0,1,.14.81,8.42,8.42,0,0,0,.17,1.44,24.64,24.64,0,0,1,.73-2.71c.23-.7.54-1.35.8-2a15.46,15.46,0,0,1,1.5-2.83,11,11,0,0,1,1.55-1.68c.67-.73,1.57-.93,2.28-1.53l.3.29a5.67,5.67,0,0,1,0,.61A5.73,5.73,0,0,1,18,69.8c-.6,1.11-1.23,2.23-1.82,3.38a7.21,7.21,0,0,1-.46,1.12c-.42.69-.82,1.43-1.22,2.17a17.79,17.79,0,0,1-1.24,2.14c-.29.42-.53.89-.77,1.35-.08.17-.24.24-.37.34a7.27,7.27,0,0,0,.68,1.57,8.76,8.76,0,0,1,.75,1.24,16,16,0,0,0,1.58,2.08,8.54,8.54,0,0,1,.11-2.67c.11-.47.14-1,.28-1.41s.16-.7.24-1.06A7.56,7.56,0,0,1,16,79c.25-.71.46-1.43.76-2.1a12,12,0,0,1,.8-1.68,11.84,11.84,0,0,1,.91-1.47,2.59,2.59,0,0,1,.41-.3l.35.18a3,3,0,0,1-.17,2c-.13.42-.29.82-.43,1.24a11.87,11.87,0,0,0-.34,1.27c-.14.56-.22,1.13-.34,1.7s-.32,1.25-.42,1.9A5.39,5.39,0,0,1,17.16,83a13.32,13.32,0,0,0-.57,1.46c-.1.44-.3.84-.44,1.27-.05.16-.22.19-.33.28.61.45,1.2.91,1.84,1.32.36.24.77.3,1.13.54a5.11,5.11,0,0,0,1.17.47,5.66,5.66,0,0,0,1.25.33,9,9,0,0,1-.57-.74c-.2-.36-.34-.77-.54-1.15a12.41,12.41,0,0,1-.62-1.86A20.27,20.27,0,0,1,19,82.8a22.06,22.06,0,0,0-.08-2.5l.51-.38c.44.13.68.63.89,1.06a5.31,5.31,0,0,1,.5,1.23c.1.52.21,1,.28,1.56.09.75.34,1.47.5,2.2.17.56.23,1.17.39,1.74a6.42,6.42,0,0,1,.39,1.13,5.85,5.85,0,0,0,1.49.1,7.66,7.66,0,0,0,1.22-.15,11.87,11.87,0,0,0,1.32-.28c.21-.12.43,0,.63.08l-.19.66-.24-.1a3.76,3.76,0,0,1-1.34.23c-.21,0-.38.15-.56.23a4.59,4.59,0,0,0-.55.1c-.3.23-.49.59-.82.79s-.84.63-1.29.9-1,.87-1.61,1.24c-.42.22-.85.41-1.28.61s-.69.33-1.06.23a1.73,1.73,0,0,1-.86-.47,2.89,2.89,0,0,1-.32-.68,1.82,1.82,0,0,1,.53-.62c.51-.33,1.06-.52,1.58-.81s.7-.41,1.08-.53a3,3,0,0,0,.59-.26,9.56,9.56,0,0,1,1.78-.6c-.69-.07-1.37-.28-2.06-.37a4.66,4.66,0,0,1-1.32-.43,3.35,3.35,0,0,0-.65-.12,1.67,1.67,0,0,1-.26-.31,7.32,7.32,0,0,1-1,.49,18.55,18.55,0,0,1-2.15.66,7.17,7.17,0,0,1-.68.3,13.47,13.47,0,0,1-1.8.34c-.64.18-1.3.2-1.94.33A7.9,7.9,0,0,0,9.89,90a4.13,4.13,0,0,1-.15-.45,4.4,4.4,0,0,1,1-1,18.58,18.58,0,0,1,2.37-.86,8.66,8.66,0,0,1,1.54-.46,5.89,5.89,0,0,1,1.71.05c-.27-.26-.55-.48-.83-.71a10.74,10.74,0,0,1-1.22-1.27,1.32,1.32,0,0,1-.44.54,1.67,1.67,0,0,1-.81.12,2.68,2.68,0,0,1-1.26,0c-.57-.22-1.16-.34-1.74-.56A18.73,18.73,0,0,1,7.64,84,9,9,0,0,1,5.3,82.29a5.52,5.52,0,0,1-1.12-1.76A2.25,2.25,0,0,1,4.07,80a1.87,1.87,0,0,1,.52-.2c.41.08.81.22,1.21.33a15.68,15.68,0,0,1,2,.49c.29.13.56.32.84.46A12.74,12.74,0,0,1,9.76,81.64Zm8,10.42c-.12.16.13.3.22.16S17.82,91.92,17.74,92.07Zm4.73-1.58a7.31,7.31,0,0,0-1.38.78,5.37,5.37,0,0,1-1.52.68,4.2,4.2,0,0,0-1.13.42c-.17.09-.16.34-.22.52a1.89,1.89,0,0,0,1.31-.44c.28-.18.6-.23.88-.42C21.12,91.54,21.81,91,22.47,90.49Zm.18-.61c-.71.22-1.4.49-2.1.71a15.69,15.69,0,0,0-1.64,1,4.69,4.69,0,0,0-.85.46c.41-.14.79-.37,1.18-.55a2.9,2.9,0,0,0,1.28-.35C21.2,90.64,22,90.36,22.65,89.88ZM21,87.67a3.42,3.42,0,0,0-.32-1c-.43-1.06-.43-2.3-.92-3.35a6,6,0,0,0-.43-1.49,7.93,7.93,0,0,0,.12,1.3,15,15,0,0,0,.48,2.13c.16.7.54,1.28.74,2A1.94,1.94,0,0,0,21,87.67Zm.26-.73c-.09-.78-.31-1.54-.42-2.32-.07-.56-.28-1.09-.33-1.64a4.71,4.71,0,0,0-.84-2L20,82.26a10.7,10.7,0,0,1,.4,1.38c.09.51.27,1,.33,1.5s.21.73.29,1.1A1.77,1.77,0,0,0,21.28,86.95Zm-6.09,1.73a10.19,10.19,0,0,1-1.5.43,2.22,2.22,0,0,0-1.09.36,5,5,0,0,0,1.55-.26A5.93,5.93,0,0,0,15.19,88.67Zm1.63-.93c-.55,0-1.1-.05-1.65-.11a7.38,7.38,0,0,0-2.72.79,3.48,3.48,0,0,0-1.94,1.06c.44-.07.88-.19,1.31-.29a7.83,7.83,0,0,0,1.1-.46c.58-.2,1.21-.15,1.79-.37S16.14,88,16.82,87.75Zm1.12-9.59c-.18.37-.27.78-.42,1.16s-.19.49-.28.73L17,80.8l-.42,1.51a5.34,5.34,0,0,0-.33,1.5,9.8,9.8,0,0,0,.64-1.53c.1-.41.25-.81.33-1.22C17.42,80.08,17.71,79.12,17.94,78.16Zm-2.42,6.56.12.19a6.42,6.42,0,0,1,.28-1.69c.12-.57.3-1.12.42-1.69s.36-.89.5-1.35a24.61,24.61,0,0,1,.67-2.42,17.47,17.47,0,0,1,1.11-3.31,8.92,8.92,0,0,0-.86,1.34,12,12,0,0,0-.68,1.48,28.62,28.62,0,0,0-1.17,3.82A11.13,11.13,0,0,0,15.52,84.72Zm.08-19.83c.91-.35,1.83-.6,2.73-.93.67-.16,1.28-.49,1.95-.68a12.87,12.87,0,0,0,2.19-.43,8.36,8.36,0,0,0-1.34.18,23.46,23.46,0,0,0-4.54,1.3A6.72,6.72,0,0,0,15.6,64.89Zm-.71,1a8.29,8.29,0,0,0,1.57-.2c.55-.19,1.1-.32,1.65-.46a9.16,9.16,0,0,0,2.25-.63,23.71,23.71,0,0,0,2.91-1.37l-1,.36c-.64.23-1.32.12-1.94.38s-1.41.4-2.12.59a9.71,9.71,0,0,1-1,.35A6.25,6.25,0,0,0,14.89,65.87ZM30,59.26l-.89.12a7.87,7.87,0,0,0-.94.05,6.07,6.07,0,0,1-1.22.14c-1,.1-1.9.45-2.87.66a3.54,3.54,0,0,0-.47.18,9.36,9.36,0,0,0,1.94.15,5.7,5.7,0,0,0,1.86-.14,4.9,4.9,0,0,0,1.6-.61C29.37,59.58,29.74,59.48,30,59.26ZM22.8,60a14,14,0,0,1,1.78-.54c1.05,0,2.06-.59,3.13-.58a3.94,3.94,0,0,0,.78-.07c.56-.1,1.13-.09,1.69-.13a3.21,3.21,0,0,0-1-.18c-.76,0-1.5-.24-2.28-.17a5.19,5.19,0,0,0-1.21.18A8.76,8.76,0,0,0,22.8,60Zm-1.27-2.73a21.55,21.55,0,0,0-2,1.85,15.36,15.36,0,0,0-1.33,1.46,13.46,13.46,0,0,0,1.15-1,16.12,16.12,0,0,0,2.21-2.35l-.06,0a2.66,2.66,0,0,0,.49-.44,10.31,10.31,0,0,0,1.06-1.39A10.59,10.59,0,0,0,21.52,57.31Zm-4.26,3.75c.49-.59,1-1.15,1.5-1.7s1-1.08,1.55-1.64c.28-.3.61-.51.87-.82a7,7,0,0,0,.92-1.16c.16-.28.45-.34.67-.52a4.37,4.37,0,0,0,.34-.63,34.18,34.18,0,0,0-3.25,3,15.22,15.22,0,0,0-1.43,1.59A13.94,13.94,0,0,0,17.26,61.06Zm-5.43,6.76c.11-.75.32-1.48.38-2.23a4.2,4.2,0,0,1,.23-.82,11.47,11.47,0,0,0,.29-1.24,11.15,11.15,0,0,0-.64,2.06A6.53,6.53,0,0,0,11.83,67.82ZM7.12,65.48a8.63,8.63,0,0,1,.23,1c.12,1.16.56,2.18.75,3.32a6,6,0,0,0,.31,1.6,9.56,9.56,0,0,1,.47,1.2c.19.66.45,1.27.69,1.89s.65,1.07.94,1.65a6.12,6.12,0,0,1-.43-1.33c-.17-.68-.37-1.36-.51-2.07S9.16,71.62,9,71c-.31-.86-.46-1.83-.78-2.7s-.56-1.49-.83-2.26a7.67,7.67,0,0,0-.55-1.12l-.08.45Zm3.53,11.78a19.09,19.09,0,0,1-1-1.67c-.15-.34-.36-.62-.5-1-.35-.77-.47-1.7-.87-2.45A4.52,4.52,0,0,1,7.7,70.3c0-.54-.26-1-.34-1.53S7,67.71,6.9,67.18a3.2,3.2,0,0,0-.2-1.07,18,18,0,0,0,.22,2.16c0,.53.21,1,.29,1.52A18.77,18.77,0,0,0,7.59,72a10.17,10.17,0,0,0,.62,1.63C8.62,74.4,9,75.18,9.4,76A3.34,3.34,0,0,0,10.64,77.26Zm2.09-11.94A12.78,12.78,0,0,0,12.5,67a11.78,11.78,0,0,0,.67-1.6c.2-.55.42-1.09.66-1.62s.2-.83.33-1.24c.19-.63.39-1.25.6-1.88l.61-1.87A11.24,11.24,0,0,0,13.69,62a8.67,8.67,0,0,0-.51,1.58C13.07,64.15,12.8,64.71,12.73,65.32Zm4.4,5.15A6.93,6.93,0,0,0,16,71.94a11.24,11.24,0,0,0-1.69,2.63c-.24.52-.62.93-.85,1.47a22,22,0,0,0-1.15,3.11c.26-.37.48-.78.74-1.14s.66-1.06,1-1.58c.49-.82.89-1.71,1.35-2.53l.4-.88c.14-.29.3-.58.45-.86Q16.66,71.31,17.13,70.48Zm-4.74,6.84c.14-.36.3-.71.47-1s.38-.66.58-1c.45-.83.84-1.69,1.32-2.48a3.14,3.14,0,0,1,.54-.78,2.07,2.07,0,0,1,.28-.51c.41-.4.66-1,1.08-1.36a5.4,5.4,0,0,0,.92-1.36,5.19,5.19,0,0,0-1.34.85,9.29,9.29,0,0,0-1.13,1.21,13.87,13.87,0,0,0-1.37,2.3c-.38.82-.73,1.68-1.07,2.54a19.24,19.24,0,0,0-.74,2.91A8.81,8.81,0,0,0,12.39,77.32Zm1,7.78c-.35-.19-.71-.35-1.07-.5s-.6-.43-.92-.6c-.52-.3-1.09-.39-1.62-.64a6.61,6.61,0,0,0-1.24-.5,15,15,0,0,0-1.71-.65,3.1,3.1,0,0,1-1.06-.4,10.62,10.62,0,0,0,2,1.59c.71.44,1.45.82,2.18,1.18a8,8,0,0,0,2.4.7A2.25,2.25,0,0,0,13.37,85.1Zm-2.46-2.2A25.5,25.5,0,0,0,8,81.44a5.24,5.24,0,0,0-2.57-.7A3.76,3.76,0,0,0,7,81.6a5.1,5.1,0,0,1,1.23.49c.58.3,1.22.35,1.78.72s1.09.39,1.59.74a9.89,9.89,0,0,0,1.59.83,12,12,0,0,0-1.55-1C11.41,83.19,11.16,83,10.92,82.9Z"/><path class="cls-2" d="M19.22,37a3.3,3.3,0,0,1-.15-.74l.85.62A14.46,14.46,0,0,0,22.22,41,7.7,7.7,0,0,0,24,42.7,2.36,2.36,0,0,0,25,43c-.21-.32-.45-.63-.69-.93s-.31-.65-.51-.94a16.15,16.15,0,0,0-1.12-1.29,6.17,6.17,0,0,0-.87-1c-.45-.39-.72-1-1.22-1.33a2.42,2.42,0,0,1-.63-.63l2.78,2a2.86,2.86,0,0,1,.45.57c.32.49.78.84,1.06,1.37a9.23,9.23,0,0,0,1,1.45,10.09,10.09,0,0,0-.84-1.61Q24.2,40.36,24,40l-.19-.33,1.18.86c.22.36.43.72.62,1.1,0-.22,0-.45,0-.68l.65.48a17,17,0,0,0,.31,2.46,16.53,16.53,0,0,1,.91-1.57l.39.28c-.24.36-.46.73-.67,1.11v.22a9.23,9.23,0,0,1,.92-1.14l.38.27-.16.21.22-.17.4.29a4.86,4.86,0,0,0-.67.55c-.32.34-.71.59-1.06.9-.13.11-.3.06-.43.09.32.69.62,1.37,1,2,.19.38.52.63.7,1a4.93,4.93,0,0,0,.78,1,5.57,5.57,0,0,0,.92.89,8.45,8.45,0,0,1-.11-.92c0-.42.1-.83.13-1.25a9.49,9.49,0,0,1,.41-1.93l.29-.94.32.23c-.12.41-.22.82-.36,1.21-.24.68-.18,1.37-.35,2.07a1.88,1.88,0,0,0,0,.6,3.19,3.19,0,0,0,.27-1.07,19.6,19.6,0,0,1,.77-2.56l.38.27a8.61,8.61,0,0,1-.34,1,11.18,11.18,0,0,0-.32,1.09,1.88,1.88,0,0,0-.15.74c.31-.74.52-1.49.83-2.23a5.09,5.09,0,0,0,.18-.48l.32.23c-.22.59-.36,1.19-.56,1.78s-.39,1.14-.56,1.7A6.44,6.44,0,0,1,31,50.58a5.94,5.94,0,0,0,1.24.83,7.9,7.9,0,0,0,1.14.48,12.39,12.39,0,0,0,1.28.43c.24,0,.36.23.5.39l-.5.47L34.54,53a3.82,3.82,0,0,1-1.28-.48c-.17-.12-.4-.06-.6-.08a4.48,4.48,0,0,0-.53-.19,10,10,0,0,1-1.12.28c-.53,0-1.06.13-1.59.14s-1.37.23-2,.28c-.47,0-.94,0-1.41-.08s-.77,0-1-.31a1.71,1.71,0,0,1-.53-.81,2.45,2.45,0,0,1,.06-.74,2,2,0,0,1,.79-.28c.62,0,1.21.06,1.81.06.41,0,.83,0,1.22.06a3.09,3.09,0,0,0,.65.06,9.32,9.32,0,0,1,1.85.34c-.57-.4-1.05-.92-1.61-1.33a4.54,4.54,0,0,1-.93-1,3.21,3.21,0,0,0-.51-.41,1.57,1.57,0,0,1-.07-.39A7.86,7.86,0,0,1,26.55,48a21.86,21.86,0,0,1-2.23-.44,7.45,7.45,0,0,1-.75-.05A14.31,14.31,0,0,1,21.81,47c-.66-.14-1.25-.42-1.89-.6a7.3,7.3,0,0,0-.48-.67,4,4,0,0,1,.09-.46,4.42,4.42,0,0,1,1.42-.47,18.9,18.9,0,0,1,2.57.34,8.86,8.86,0,0,1,1.61.31,5.66,5.66,0,0,1,1.48.84c-.1-.35-.24-.68-.37-1a8.81,8.81,0,0,1-.44-1.68,1.53,1.53,0,0,1-.67.27,1.68,1.68,0,0,1-.78-.27c-.39-.17-.85-.2-1.14-.54s-.87-.83-1.28-1.28a17,17,0,0,1-1.47-2.25A8.71,8.71,0,0,1,19.22,37Zm6.11,14.17c-.19.08,0,.32.11.24A.13.13,0,1,0,25.32,51.13Zm5,.92a7.48,7.48,0,0,0-1.6,0A5.66,5.66,0,0,1,27,51.9a4.32,4.32,0,0,0-1.21-.18c-.2,0-.31.22-.45.34a1.91,1.91,0,0,0,1.37.24c.33,0,.65.09,1,.06C28.55,52.3,29.42,52.19,30.28,52.06Zm.47-.44c-.73-.16-1.47-.26-2.2-.42a16.06,16.06,0,0,0-1.94,0,4.92,4.92,0,0,0-1,0c.43.07.88.06,1.32.1a3,3,0,0,0,1.3.32C29.1,51.57,29.92,51.71,30.75,51.61ZM24.82,47a11.24,11.24,0,0,1-1.56-.32,2.25,2.25,0,0,0-1.14-.18,5.12,5.12,0,0,0,1.5.48A6.85,6.85,0,0,0,24.82,47Zm1.92,0c-.48-.27-.94-.57-1.4-.87a7.58,7.58,0,0,0-2.83-.57,3.62,3.62,0,0,0-2.27,0c.43.13.88.22,1.31.34a9.27,9.27,0,0,0,1.22.1c.63.09,1.15.43,1.78.51S26,46.89,26.74,47Z"/><path class="cls-2" d="M23.58,114.37a2.9,2.9,0,0,0-.1.53,10,10,0,0,0,.3,1.78,17,17,0,0,0,.56,1.83,11.37,11.37,0,0,0,.39,1.09l.47,1.06c.26.69.66,1.33,1,2,.22.44.52.83.76,1.26a6.49,6.49,0,0,0,.49.76l.39-.28a12.34,12.34,0,0,1-1.31-2c-.33-.61-.62-1.23-.91-1.86s-.56-1.25-.8-1.89a12.23,12.23,0,0,1-.78-3.24,21,21,0,0,0,1.4,3.32,22.9,22.9,0,0,0,1.16,2.3c.2.45.31.94.53,1.39s.54,1.05.85,1.57l.12.27.38-.27a5.36,5.36,0,0,1-.63-1.14,26.63,26.63,0,0,1-1.34-2.93c-.16-.39-.37-.77-.5-1.17l1.45,2.69c.2.39.38.78.59,1.16a5.35,5.35,0,0,1,.48,1.34l.4-.29a6.27,6.27,0,0,0-.25-.71,5.63,5.63,0,0,0-.54-1.21c-.38-.55-.59-1.2-1-1.76s-.65-1-.92-1.52c-.44-.79-.73-1.65-1.12-2.46A3.31,3.31,0,0,0,24,114.26Z"/><path class="cls-2" d="M19.79,130.13l.22-.07,2.78-2a7.67,7.67,0,0,1-1.06.5,4.67,4.67,0,0,0-1.19.52,3.46,3.46,0,0,1-1.67.5,4.89,4.89,0,0,1,2.27-1.34c.88-.31,1.74-.68,2.66-.91l1.18-.86c-.83.2-1.65.45-2.48.66a11.4,11.4,0,0,0-1.19.4c-.3.09-.62.15-.9.26a14.05,14.05,0,0,0-1.7,1.06c-.36.21-.73.4-1.06.64a2.07,2.07,0,0,0-.22.53,2.17,2.17,0,0,0,.44.33,6.88,6.88,0,0,0,1.21.42l.85-.62Z"/><path class="cls-2" d="M30.44,121.36a8.07,8.07,0,0,1-1-.89c.51.13.88.57,1.33.82a4.66,4.66,0,0,1,.71.41l.38-.27-.37-.28a9.41,9.41,0,0,0-1.23-.77c-.38-.24-.74-.49-1.09-.75a5.28,5.28,0,0,1,2,.94c.3.27.62.48.94.72l.32-.23-.31-.27c-.39-.37-.84-.66-1.27-1a6.33,6.33,0,0,0-1.18-.6,1.66,1.66,0,0,0-1.35-.21l-.12.64a3.82,3.82,0,0,1,.87.92,5.63,5.63,0,0,0,.86.94c.3.25.62.48.93.7l.32-.23A6,6,0,0,1,30.44,121.36Z"/><path class="cls-2" d="M26.2,125.55l-.65.48-.25-.09c-.51-.21-1-.29-1.53-.54l-1.29-.66a13.08,13.08,0,0,1-1.24-.93,10.71,10.71,0,0,0-2,.1c-.36-.12-.73-.27-1.09-.43s-.71-.32-1.07-.46a9.79,9.79,0,0,1-2.27-.91c-.94-.51-1.73-1.37-2.65-1.92-.6-.43-1.15-1-1.74-1.45a10,10,0,0,1-1.25-1.22c-.23-.35-.45-.7-.69-1a1.26,1.26,0,0,1,0-.83,2.35,2.35,0,0,1,1,.29c1.3.79,2.59,1.41,3.88,2.2.52.32,1,.58,1.57.87.74.46,1.45.88,2.2,1.32.39.24.75.53,1.14.75a9.89,9.89,0,0,1-.88-1.12c-.37-.61-.66-1.27-1.05-1.86a6.57,6.57,0,0,1-.53-1.18c-.14-.16-.33-.2-.49-.33a10.62,10.62,0,0,1-1.73-2,11.23,11.23,0,0,1-.7-1.18,13.57,13.57,0,0,1-.54-1.27c-.27-.62-.61-1.21-.83-1.86-.14-.44-.37-.83-.51-1.27s-.09-.71-.18-1.06-.28-.91-.42-1.36a9.33,9.33,0,0,1-.3-1.38,4.74,4.74,0,0,0-.1-.79,1.45,1.45,0,0,1-.09-.83c.15-.15.37-.13.55-.18.23.42.52.77.72,1.21.37.64.57,1.37.89,2s.55,1.26.83,1.87l.43.92.46.91c.27.59.45,1.23.67,1.84a21.71,21.71,0,0,1-.18-2.61,5.38,5.38,0,0,0,0-1c-.15-.54-.4-1-.52-1.59a20.42,20.42,0,0,1-.53-4.42c0-.64,0-1.29.06-1.93s0-1.29,0-1.94c0-1.09.39-2.1.34-3.2l.6-.2a3.15,3.15,0,0,1,.58,1.25c.07.36.14.73.19,1.1a9.52,9.52,0,0,1,.13,1.1c0,1.2.09,2.42.05,3.61-.06.71,0,1.45-.08,2.15a14.3,14.3,0,0,1,1.28-2.39,1.59,1.59,0,0,0,.39-.74,13.08,13.08,0,0,1,1.16-3.28,5.35,5.35,0,0,1,.86-1.33,6.61,6.61,0,0,1,1.94-1.65,5.4,5.4,0,0,1,1.18-.83,2.22,2.22,0,0,0,.51-.42,2.65,2.65,0,0,1,.42-.11c.31.57,0,1.18-.13,1.75a6.56,6.56,0,0,1-.3,1.08c-.17.36-.24.78-.45,1.13a12.14,12.14,0,0,1-.89,1.46c-.27.46-.75.67-1.08,1a5.54,5.54,0,0,1-.67.79c-.27.19-.58.3-.85.49s-.57.44-.88.62-.55,0-.73.2a8.31,8.31,0,0,0-.75,1.14,9.63,9.63,0,0,0-.57,1.22c-.17.38-.36.74-.52,1.13a3.15,3.15,0,0,0-.16,1.13c0,.31.13.63.13.95s-.22.5-.24.81a8.51,8.51,0,0,0,.09,1.47,12,12,0,0,1,1-2.4c.31-.47.52-1,.83-1.5s.5-1,.81-1.36a15.24,15.24,0,0,1,2.19-2.73c.26-.22.61-.08.91,0a4.89,4.89,0,0,1-.4,1.93,7.79,7.79,0,0,1-.48,1.22c-.47.79-.64,1.85-1.16,2.59a10,10,0,0,0-1.28,2.06c-.28.4-.43.9-.74,1.27s-.44.66-.68,1a11.26,11.26,0,0,0-.68,1.19,6.88,6.88,0,0,1,.33,1.38c.22.57.39,1.16.62,1.73a12.14,12.14,0,0,0,.81,1.66,13.42,13.42,0,0,0,1.33,2.1,14.16,14.16,0,0,0,1.56,1.66,5.82,5.82,0,0,1,.63.52,8.36,8.36,0,0,0,1.1,1,20.67,20.67,0,0,1-1.3-2.58c-.31-.69-.53-1.4-.8-2.1a21.85,21.85,0,0,1-.82-3.23,12,12,0,0,1,0-2.41,16.89,16.89,0,0,1,.61-2.8h.41c.14.15.28.29.41.46a6.17,6.17,0,0,1,.34,1.49c.15.65.28,1.3.44,1.95l.51,1.93a8.1,8.1,0,0,1,.39,1.2c.35,1.65.87,3.35,1.14,5,.08.52.24,1,.36,1.57a1.08,1.08,0,0,1,0,.53,6.67,6.67,0,0,0,1.54.7,8.42,8.42,0,0,1,1.37.41Zm-10.79-15.4c.42-.93.88-1.77,1.34-2.68.38-.61.63-1.31,1-1.93A13.6,13.6,0,0,0,19,103.65a8,8,0,0,0-.84,1.09A25.77,25.77,0,0,0,15.75,109,7.37,7.37,0,0,0,15.42,110.15Zm.15,1.26a8.5,8.5,0,0,0,1-1.29c.26-.54.57-1,.87-1.53a11.12,11.12,0,0,0,1.22-2.1,21,21,0,0,0,1.2-3.12c-.18.34-.34.68-.51,1-.31.63-.86,1-1.16,1.67s-.77,1.33-1.17,2a10.28,10.28,0,0,1-.46,1A6.94,6.94,0,0,0,15.57,111.4Zm6.06-15.22c-.2.27-.49.4-.65.7a5.66,5.66,0,0,1-.8,1c-.64.76-1.11,1.71-1.7,2.56a3.7,3.7,0,0,0-.22.48,10.19,10.19,0,0,0,1.52-1.26,6,6,0,0,0,1.29-1.43,4.78,4.78,0,0,0,.77-1.61c.07-.39.29-.73.36-1.12C22,95.7,21.82,95.94,21.63,96.18Zm-4.23,5a12.26,12.26,0,0,1,.95-1.7c.76-.79,1.15-1.94,1.92-2.68a4.68,4.68,0,0,0,.53-.61c.36-.48.78-.87,1.17-1.3a3.14,3.14,0,0,0-.88.57A21,21,0,0,0,19.27,97a5.22,5.22,0,0,0-.75,1A9.56,9.56,0,0,0,17.39,101.23Zm-2.85-3.78a11.62,11.62,0,0,0,.11,2.57,8.68,8.68,0,0,0-.16,1.42c0,.48,0,1,0,1.44,0,.69,0,1.4,0,2.1a13.18,13.18,0,0,0,.18-1.63c0-.57.06-1.13.07-1.7a12.89,12.89,0,0,0,0-1.72l0,.08a2.5,2.5,0,0,0,.06-.7A14.79,14.79,0,0,0,14.55,97.45ZM14,106c-.07-.8,0-1.61,0-2.41v-2.38c0-.43.12-.84.11-1.28A7.89,7.89,0,0,0,14,98.38c-.08-.33.09-.59.14-.89a5,5,0,0,0-.16-.75,9.14,9.14,0,0,0-.2,1.15c0,.39,0,.78-.05,1.18a23.27,23.27,0,0,1-.12,2.39,15.41,15.41,0,0,0,.05,2.26A13,13,0,0,0,14,106Zm.64,9.11c-.42-.65-.78-1.35-1.23-2a5.87,5.87,0,0,1-.37-.8,12.22,12.22,0,0,0-.63-1.15,16.08,16.08,0,0,0,.92,2A6.57,6.57,0,0,0,14.68,115.12Zm-1.29-4.53c-.15-.42-.43-.78-.61-1.18-.51-1.26-1.13-2.48-1.63-3.75a12.17,12.17,0,0,0,.94,3.65,7.38,7.38,0,0,0,.69,1.57c.32.54.53,1.16.88,1.68a9.39,9.39,0,0,0,.94,1.44C14.26,112.85,13.76,111.74,13.38,110.6ZM9.46,117l.3-.18a8.13,8.13,0,0,1,.84.58c.86.78,1.86,1.22,2.76,1.94a5.76,5.76,0,0,0,1.3,1,8.1,8.1,0,0,1,1.13.57c.58.36,1.18.62,1.76.92s1.19.32,1.78.57a6.57,6.57,0,0,1-1.2-.69c-.58-.39-1.18-.75-1.76-1.19s-1-.56-1.55-.9c-.8-.42-1.56-1-2.37-1.46s-1.4-.71-2.1-1.09a6.91,6.91,0,0,0-1.14-.43Zm10.7,6.12a15.69,15.69,0,0,1-1.85-.52c-.33-.15-.67-.2-1-.37-.76-.33-1.48-.94-2.26-1.21a4.47,4.47,0,0,1-1.63-1c-.4-.37-.85-.56-1.26-.9a15.41,15.41,0,0,0-1.39-.86c-.28-.23-.54-.56-.86-.65a18,18,0,0,0,1.61,1.45c.39.36.83.6,1.23.93a19.78,19.78,0,0,0,1.74,1.39,9.45,9.45,0,0,0,1.54.77c.81.28,1.61.59,2.41.89A3,3,0,0,0,20.17,123.15Zm.1-9.81a6.36,6.36,0,0,0,.14,2c0,.53.09,1.06.17,1.6A8.26,8.26,0,0,0,21,118.5c.18.56.19,1.15.4,1.72a18.68,18.68,0,0,0,1.27,3.19c-.06-.46-.19-.93-.24-1.38s-.1-.63-.17-.95l-.18-1c-.19-1-.53-1.92-.75-2.88q-.29-1-.54-1.95C20.56,114.64,20.39,114,20.27,113.34Zm.57,6.31c-.12-.47-.26-.94-.39-1.41s-.23-1-.32-1.43a3.41,3.41,0,0,1-.14-1,2.25,2.25,0,0,1-.15-.59,17.76,17.76,0,0,1-.12-1.81,5.08,5.08,0,0,0-.25-1.7,7.49,7.49,0,0,0-.41,3.34,18.69,18.69,0,0,0,.57,2.74c.25.92.61,1.8.94,2.7a10.3,10.3,0,0,0,.65,1.4l.78,1.34a9.44,9.44,0,0,0-.55-1.32A13.56,13.56,0,0,1,20.84,119.65Z"/><path class="cls-2" d="M62.87,12.2c-.14.63-.26,1.27-.38,1.9S62.22,15.39,62,16a6.66,6.66,0,0,1,.62-.74c.4-.39.71-.82,1.15-1.18s.78-.6,1.14-.91a9.48,9.48,0,0,1,1.35-.78,11.74,11.74,0,0,0,.8-1.84c.54-.56,1.17-1.08,1.73-1.64a10.55,10.55,0,0,1,1.82-1.7A11.79,11.79,0,0,1,72,6.38a14.25,14.25,0,0,0,1.44-.8c.64-.37,1.38-.63,2-1A8.29,8.29,0,0,1,77.15,4c.4-.06.8-.12,1.2-.19a1.1,1.1,0,0,1,.71.34,2.59,2.59,0,0,1-.7.77c-.64.43-1.23.87-1.83,1.31s-1.19.92-1.83,1.34-1,.71-1.46,1.07c-.73.46-1.4,1-2.12,1.5-.38.25-.8.47-1.16.73a9.66,9.66,0,0,1,1.36-.33c.69-.08,1.38-.13,2.07-.22a6.13,6.13,0,0,1,1.25,0c.2-.06.32-.22.5-.31a10.18,10.18,0,0,1,1.2-.49,9.41,9.41,0,0,1,1.28-.3A12.54,12.54,0,0,1,80.25,9c.65,0,1.31,0,2,0,.43.05.87,0,1.31,0a6.77,6.77,0,0,1,1,.25,24.33,24.33,0,0,1,2.65.44,4.19,4.19,0,0,0,.72.2,1.29,1.29,0,0,1,.75.26c.06.2-.05.39-.09.58-.46,0-.89.15-1.35.18A17.13,17.13,0,0,1,85,11l-1,0-1,0-2,.08c-.63,0-1.25-.09-1.87-.12.39.14.79.26,1.19.39a7.4,7.4,0,0,1,1.13.5,3.71,3.71,0,0,0,.91.38c.53.07,1.07,0,1.59.13a21.39,21.39,0,0,1,4,1.27c1.09.55,2.16,1.11,3.28,1.57.93.46,1.64,1.16,2.59,1.54,0,.21,0,.42-.08.63a2.91,2.91,0,0,1-1.32.06,12.89,12.89,0,0,1-2-.57,29.71,29.71,0,0,1-3.11-1.36c-.58-.32-1.26-.52-1.81-.9a12.93,12.93,0,0,1,1.5,2.09,1.49,1.49,0,0,0,.47.65,12.76,12.76,0,0,1,2.33,2.34A5,5,0,0,1,90.69,21a6.64,6.64,0,0,1,.63,2.41,5.58,5.58,0,0,1,.24,1.41,2.25,2.25,0,0,0,.16.63,2.85,2.85,0,0,1-.07.43c-.61.07-1-.49-1.45-.8a4.8,4.8,0,0,1-.81-.68c-.24-.3-.57-.53-.79-.86a11.67,11.67,0,0,1-.91-1.38,7.26,7.26,0,0,1-.47-1.4,5.35,5.35,0,0,1-.41-.92c0-.32,0-.65-.07-1s-.14-.7-.17-1,.24-.5.14-.75a7.69,7.69,0,0,0-.66-1.12,8.63,8.63,0,0,0-.8-1c-.26-.31-.47-.64-.74-.94a2.48,2.48,0,0,0-.9-.6c-.26-.13-.6-.12-.87-.24s-.34-.39-.59-.53a8.54,8.54,0,0,0-1.3-.53A12.83,12.83,0,0,1,82.47,14c.27.47.67.87.93,1.34s.61.82.83,1.28a16.35,16.35,0,0,1,1.44,3.08c.09.32-.18.59-.34.85a4.24,4.24,0,0,1-1.5-1.14A7.13,7.13,0,0,1,83,18.5c-.49-.75-1.33-1.29-1.75-2.09a9,9,0,0,0-1.22-2c-.22-.41-.59-.75-.78-1.17s-.38-.66-.54-1A11.72,11.72,0,0,0,78,11.11a6.32,6.32,0,0,1-1.33-.28,22.88,22.88,0,0,0-3.55-.07,16.65,16.65,0,0,0-2.39.38,10.52,10.52,0,0,0-2.13.75,4.38,4.38,0,0,1-.73.38,8.41,8.41,0,0,0-1.32.6c.94-.05,1.88-.17,2.81-.14.73,0,1.45.11,2.17.15a13.89,13.89,0,0,1,1.6.19c.52.1,1,.24,1.55.36a12.49,12.49,0,0,1,2.08,1c.9.4,1.37,1.21,2.15,1.71l-.18.38a5.62,5.62,0,0,1-.57.19,7.35,7.35,0,0,1-1.43-.3L74.81,16c-.63-.12-1.26-.25-1.9-.33a7.26,7.26,0,0,1-1.21-.11c-1.59-.43-3.28-.53-4.86-1a11.89,11.89,0,0,0-1.52-.3,1,1,0,0,1-.44-.25,7.22,7.22,0,0,0-1.29,1.12,12.06,12.06,0,0,1-1,1.1,18.59,18.59,0,0,0-1.5,2.14,10.27,10.27,0,0,1,2.58-.73c.48,0,1-.15,1.43-.16a19.32,19.32,0,0,1,2.16-.12c.75,0,1.51,0,2.24.1.31,0,.62.05.93.07a5.05,5.05,0,0,1,.91.16,11.94,11.94,0,0,1,1.68.43,2.62,2.62,0,0,1,.42.3l-.06.39a3,3,0,0,1-1.95.43H70.18a11.93,11.93,0,0,0-1.31.06c-.57,0-1.15.11-1.72.21s-1.3.07-1.95.18a6.69,6.69,0,0,1-1.3,0c-.53,0-1-.13-1.57-.09s-.9,0-1.35,0c-.17,0-.25-.15-.37-.23-.24.73-.48,1.46-.68,2.19-.12.41,0,.82-.17,1.23A5,5,0,0,0,59.67,24a5.57,5.57,0,0,0,.07,1.28,8.76,8.76,0,0,1,.53-.77c.29-.3.63-.55.93-.85A5.92,5.92,0,0,1,62,23l.83-.55c.61-.36,1.2-.76,1.84-1.1A24.32,24.32,0,0,0,67,20.52l.51.36c0,.47-.39.85-.74,1.17a5.26,5.26,0,0,1-1,.84c-.47.23-.91.55-1.39.77A21.34,21.34,0,0,0,62.4,24.8a17.66,17.66,0,0,1-1.53.92,6.81,6.81,0,0,1-1,.71,5.94,5.94,0,0,0,.37,1.46A7.64,7.64,0,0,0,60.8,29a11.74,11.74,0,0,0,.67,1.16c.18.16.12.41.12.63l-.68,0,0-.26a3.73,3.73,0,0,1-.63-1.2c-.05-.21-.26-.31-.39-.46a4.61,4.61,0,0,0-.27-.49,10.06,10.06,0,0,1-1-.54c-.4-.34-.87-.61-1.26-1s-1.15-.73-1.67-1.14c-.34-.33-.65-.67-1-1s-.53-.55-.55-.93a1.8,1.8,0,0,1,.17-1,2.46,2.46,0,0,1,.55-.52,1.86,1.86,0,0,1,.75.32c.47.38.83.85,1.27,1.26.26.31.61.54.85.87a3,3,0,0,0,.43.48,9.54,9.54,0,0,1,1.12,1.5c-.15-.69-.16-1.4-.29-2.09a4.51,4.51,0,0,1,0-1.39,3.31,3.31,0,0,0-.09-.65,1.64,1.64,0,0,1,.21-.34,7.44,7.44,0,0,1-.78-.8,18.78,18.78,0,0,1-1.29-1.84,7,7,0,0,1-.49-.55,13.34,13.34,0,0,1-.88-1.6c-.37-.55-.59-1.17-.91-1.74a8.2,8.2,0,0,0,.12-.84,2.85,2.85,0,0,1,.38-.28,4.49,4.49,0,0,1,1.31.63,18.7,18.7,0,0,1,1.56,2,8.72,8.72,0,0,1,.92,1.32,5.86,5.86,0,0,1,.48,1.64c.16-.33.29-.68.42-1a8.88,8.88,0,0,1,.83-1.56,1.34,1.34,0,0,1-.65-.25,1.67,1.67,0,0,1-.37-.74c-.16-.39-.46-.74-.43-1.18,0-.61,0-1.21,0-1.82a18.39,18.39,0,0,1,.55-2.71,9.41,9.41,0,0,1,.94-2.79,5.48,5.48,0,0,1,1.34-1.6,2.26,2.26,0,0,1,.49-.27,1.88,1.88,0,0,1,.35.43c0,.41,0,.83.06,1.25a15.55,15.55,0,0,1,.13,2c0,.31-.13.63-.18.94A12.6,12.6,0,0,1,62.87,12.2ZM55.4,23c-.19-.07-.25.22-.09.26A.14.14,0,1,0,55.4,23Zm3,4A7.44,7.44,0,0,0,57.21,26a5.45,5.45,0,0,1-1.13-1.24,4.21,4.21,0,0,0-.75-.94c-.14-.13-.37,0-.55,0a1.86,1.86,0,0,0,.82,1.1c.25.21.4.5.67.69C57,26.07,57.67,26.57,58.38,27ZM59,27c-.43-.61-.9-1.18-1.33-1.79A16,16,0,0,0,56.26,24a4.77,4.77,0,0,0-.7-.67c.26.34.6.64.89,1a2.92,2.92,0,0,0,.73,1.11C57.84,25.89,58.35,26.54,59,27Zm1.58-2.25a3.16,3.16,0,0,0,.9-.62,5.58,5.58,0,0,1,.69-.53l.76-.43a6.91,6.91,0,0,0,1.45-1c.4-.34,1-.47,1.28-.88a5.87,5.87,0,0,0-1.2.52A20.61,20.61,0,0,0,62.62,23c-.63.34-1,.94-1.63,1.33A1.9,1.9,0,0,0,60.61,24.78Zm.78,0a10.16,10.16,0,0,0,1-.58c.34-.19.68-.39,1-.55.51-.23,1-.58,1.46-.82a5,5,0,0,0,1.64-1.41l-1.12.7a14.45,14.45,0,0,1-1.19.82c-.46.24-.86.55-1.33.76a6.9,6.9,0,0,0-1,.62A2.08,2.08,0,0,0,61.38,24.82Zm-3.54-5.27a10.27,10.27,0,0,1-.88-1.3,2.23,2.23,0,0,0-.69-.92A5,5,0,0,0,57,18.72,6,6,0,0,0,57.84,19.55Zm1.39,1.27c-.16-.53-.29-1.06-.4-1.6a7.42,7.42,0,0,0-1.6-2.35,3.53,3.53,0,0,0-1.62-1.53c.21.4.46.77.68,1.16a7.92,7.92,0,0,0,.79.91c.37.49.52,1.11.91,1.59S58.73,20.26,59.23,20.82Zm9.48-1.91c-.4-.06-.82,0-1.24,0-1,0-2.08,0-3.14,0a5.26,5.26,0,0,0-1.52.17,9.93,9.93,0,0,0,1.65.12c.43,0,.85,0,1.27,0L67.23,19C67.72,19,68.22,19,68.72,18.91Zm-7-.27-.14.18a7.36,7.36,0,0,1,1.71-.25c.58-.09,1.16-.07,1.74-.13s1,.08,1.44.07A17,17,0,0,1,69,18.39c.58,0,1.17,0,1.76-.08a7.86,7.86,0,0,1,1.74.12A9,9,0,0,0,70.92,18a14.82,14.82,0,0,0-1.62-.18l-2-.05c-.67,0-1.33,0-2,.11a9.61,9.61,0,0,0-1.82.22A17.31,17.31,0,0,0,61.71,18.64Zm18.91-6c.61.76,1.13,1.56,1.72,2.32.36.58.85,1.09,1.24,1.64a14.14,14.14,0,0,0,1.08,1.94,8.48,8.48,0,0,0-.59-1.22,25.72,25.72,0,0,0-2.63-3.9A6.81,6.81,0,0,0,80.62,12.61Zm-1.14-.35a7.78,7.78,0,0,0,.67,1.42,15.94,15.94,0,0,1,.94,1.42,9.28,9.28,0,0,0,1.29,2,21.77,21.77,0,0,0,2.19,2.33c-.22-.3-.44-.6-.67-.88-.41-.53-.52-1.19-1-1.71s-.82-1.22-1.21-1.85a9.83,9.83,0,0,1-.63-.83A5.91,5.91,0,0,0,79.48,12.26ZM90.43,24.6c-.12-.27-.25-.55-.39-.81s-.15-.6-.34-.86a5.51,5.51,0,0,1-.51-1.11c-.39-.89-1-1.68-1.51-2.55a3.26,3.26,0,0,0-.32-.4,9.52,9.52,0,0,0,.46,1.9,5.81,5.81,0,0,0,.71,1.74,4.5,4.5,0,0,0,1.07,1.33C89.91,24.07,90.12,24.37,90.43,24.6Zm-3-6.65a14.12,14.12,0,0,1,1.07,1.54c.37,1,1.2,1.8,1.52,2.79a3.86,3.86,0,0,0,.31.71c.27.51.44,1.05.65,1.58a3.25,3.25,0,0,0-.14-1,22,22,0,0,0-.54-2.22,5,5,0,0,0-.55-1.08A9.17,9.17,0,0,0,87.43,17.95Zm2.2-2a18.17,18.17,0,0,0-2.36-1.3c-.57-.31-1.19-.54-1.8-.8a11.48,11.48,0,0,0,1.32.79A20.94,20.94,0,0,0,89.71,16l-.06,0a2.17,2.17,0,0,0,.57.32l.81.3a6.54,6.54,0,0,0,.84.27A8.87,8.87,0,0,0,89.63,15.92ZM84.76,13c1.42.59,2.75,1.21,4.11,1.87.37.18.67.43,1,.59a8.45,8.45,0,0,0,1.39.48c.31.07.46.33.7.49a4.38,4.38,0,0,0,.71.14,10.21,10.21,0,0,0-1.89-1.15,20.33,20.33,0,0,1-2-1A13.23,13.23,0,0,0,84.76,13ZM76.68,9.92c.74-.12,1.5-.13,2.24-.3a5.51,5.51,0,0,1,.85,0c.43,0,.85-.08,1.27-.11a10.78,10.78,0,0,0-2.15,0A6.49,6.49,0,0,0,76.68,9.92Zm.78-5.19a8.5,8.5,0,0,1-.89.52c-1.07.48-1.9,1.23-2.93,1.74a5.54,5.54,0,0,0-1.43.79,7.3,7.3,0,0,1-1,.82c-.57.38-1.07.81-1.59,1.23a17.88,17.88,0,0,0-1.28,1.42,5.83,5.83,0,0,1,1.13-.84c.6-.37,1.18-.76,1.82-1.11s.95-.76,1.47-1.08c.72-.55,1.6-1,2.33-1.55a9.68,9.68,0,0,0,1-.75c.31-.25.61-.5.93-.74a7.56,7.56,0,0,0,.9-.86l-.45.06Zm-10.13,7c.43-.49.79-1,1.28-1.5.28-.26.47-.55.77-.78.63-.56,1.48-1,2.07-1.56a4.41,4.41,0,0,1,1.61-1.1c.5-.21.87-.54,1.35-.78A12.41,12.41,0,0,0,75.78,5a3.58,3.58,0,0,0,1-.52,17.64,17.64,0,0,0-2,.89c-.49.21-.9.5-1.36.74s-.68.31-1,.48-.65.37-1,.56A10.09,10.09,0,0,0,70,8.26c-.61.62-1.24,1.22-1.85,1.86A3.3,3.3,0,0,0,67.33,11.7Zm12-1.66a12.71,12.71,0,0,0-1.66.28,11.77,11.77,0,0,0,1.73.16l.87,0c.29,0,.58,0,.86.08s.85-.06,1.28-.06l2,0,2,0a10,10,0,0,0-3.53-.6,8.61,8.61,0,0,0-1.65,0c-.3,0-.61,0-.91,0A6.26,6.26,0,0,0,79.33,10Zm-3.55,5.76A7,7,0,0,0,74,15.12a12.23,12.23,0,0,0-3-.79c-.57-.07-1.08-.32-1.66-.35A23,23,0,0,0,66,13.83c.43.13.89.22,1.31.36.59.2,1.21.31,1.81.46l2.83.5c.65.08,1.29.15,1.92.27Zm-8-2.41a12.52,12.52,0,0,1,2.25.36c.93.18,1.87.3,2.77.51a2.66,2.66,0,0,1,.9.26,2.08,2.08,0,0,1,.57.12c.51.27,1.14.33,1.62.62a5.19,5.19,0,0,0,1.58.44A6.53,6.53,0,0,0,74.8,14c-.42-.14-.84-.26-1.28-.37s-.88-.16-1.33-.23c-.9-.12-1.83-.2-2.75-.25a23.8,23.8,0,0,0-3,.19A8.91,8.91,0,0,0,67.81,13.38Zm-7.12,3.33c.07-.39.11-.78.15-1.16s.23-.7.29-1.06c.13-.58,0-1.15.11-1.74a6.81,6.81,0,0,0,.09-1.35,16,16,0,0,0,.09-1.83,3.06,3.06,0,0,1,.05-1.13,9.88,9.88,0,0,0-.9,2.41c-.2.81-.33,1.63-.46,2.43a7.87,7.87,0,0,0,.07,2.49A2.26,2.26,0,0,0,60.69,16.71Zm1.34-3a27.19,27.19,0,0,0,.5-3.21,5.19,5.19,0,0,0-.12-2.66,3.72,3.72,0,0,0-.34,1.75A5,5,0,0,1,62,10.89c-.11.65,0,1.26-.13,1.92s0,1.17-.2,1.76a9.73,9.73,0,0,0-.3,1.76,11.22,11.22,0,0,0,.52-1.79C61.9,14.26,62,14,62,13.69Z"/><path class="cls-2" d="M108.27,7.39a3.21,3.21,0,0,1,.65-.37l-.32,1a14,14,0,0,0-3.24,3.5,7.76,7.76,0,0,0-1.07,2.23,2.31,2.31,0,0,0,0,1.08c.24-.3.46-.62.67-.95s.52-.5.74-.79a16.77,16.77,0,0,0,.88-1.46,6.08,6.08,0,0,0,.68-1.13c.23-.55.73-1,.89-1.57a2.4,2.4,0,0,1,.4-.79l-1.06,3.26a2.81,2.81,0,0,1-.41.6c-.37.45-.56,1-1,1.42a9,9,0,0,0-1.07,1.39,10.88,10.88,0,0,0,1.28-1.3q.26-.33.54-.65l.25-.28L106.67,14c-.27.32-.55.63-.85.92.21-.09.41-.17.63-.24l-.25.77c-.39.15-.78.31-1.15.48s-.74.38-1.1.58l.9.15c.3.06.59.14.88.23l-.15.45a10.28,10.28,0,0,0-1.26-.3l-.21.08a6.58,6.58,0,0,1,1.37.53l-.14.44-.25-.09.23.16-.15.48a4.94,4.94,0,0,0-.72-.48c-.42-.19-.79-.47-1.19-.7-.15-.09-.15-.26-.22-.38-.55.51-1.11,1-1.63,1.52-.3.29-.43.68-.74,1a4.92,4.92,0,0,0-.69,1,5.66,5.66,0,0,0-.57,1.16,7.1,7.1,0,0,1,.84-.41c.4-.11.82-.15,1.23-.24a12.24,12.24,0,0,1,2-.23h1l-.12.38-1.26,0c-.73,0-1.37.29-2.08.31a1.82,1.82,0,0,0-.56.19,3.13,3.13,0,0,0,1.09-.06,15.92,15.92,0,0,1,2.68-.07l-.14.44c-.36,0-.71,0-1.07,0a11.42,11.42,0,0,0-1.14.06,2,2,0,0,0-.75.08c.79.1,1.59,0,2.38.08a5,5,0,0,0,.51,0l-.12.38c-.62,0-1.24,0-1.86,0s-1.2,0-1.79,0a9.51,9.51,0,0,1-1.2.14,6,6,0,0,0-.4,1.44,7.8,7.8,0,0,0-.1,1.22,12.15,12.15,0,0,0,0,1.34c.07.23-.1.41-.21.6l-.61-.31.15-.22a3.76,3.76,0,0,1,.06-1.36c.06-.2-.07-.4-.11-.59a4.53,4.53,0,0,0,0-.56,10.38,10.38,0,0,1-.6-1c-.18-.5-.45-1-.63-1.47s-.65-1.2-.91-1.83c-.14-.45-.25-.92-.36-1.38s-.2-.75,0-1.09a1.67,1.67,0,0,1,.61-.74,2.81,2.81,0,0,1,.73-.17,1.91,1.91,0,0,1,.51.65c.23.57.33,1.15.51,1.73.08.4.27.79.32,1.19a3.16,3.16,0,0,0,.15.64,9.49,9.49,0,0,1,.25,1.87c.21-.67.54-1.29.77-2a4.62,4.62,0,0,1,.67-1.21,3.24,3.24,0,0,0,.23-.61,1.63,1.63,0,0,1,.35-.19A7.61,7.61,0,0,1,100,17.8a20.15,20.15,0,0,1-.28-2.25c-.05-.25-.16-.49-.18-.73a14.5,14.5,0,0,1,0-1.85c-.07-.67,0-1.33,0-2a7.15,7.15,0,0,0,.48-.66,4,4,0,0,1,.47,0,4.87,4.87,0,0,1,.88,1.21,18.42,18.42,0,0,1,.48,2.53,8.6,8.6,0,0,1,.2,1.63,5.67,5.67,0,0,1-.34,1.67c.3-.2.57-.43.85-.66a10.13,10.13,0,0,1,1.46-.94,1.42,1.42,0,0,1-.47-.55,1.71,1.71,0,0,1,0-.83,2.7,2.7,0,0,1,.16-1.25c.31-.52.52-1.08.82-1.6a17.79,17.79,0,0,1,1.69-2.11A8.49,8.49,0,0,1,108.27,7.39ZM96.68,17.6c-.13-.15-.32.07-.2.18S96.81,17.71,96.68,17.6Zm.66,5a7.48,7.48,0,0,0-.49-1.54,5.49,5.49,0,0,1-.39-1.63,4.21,4.21,0,0,0-.21-1.19c-.06-.18-.3-.23-.47-.33A1.93,1.93,0,0,0,96,19.28c.12.31.11.64.25.94C96.58,21,97,21.8,97.35,22.59Zm.56.32c-.07-.74-.21-1.49-.28-2.23A14.1,14.1,0,0,0,97,18.85a4.76,4.76,0,0,0-.3-.93c.07.43.22.85.32,1.27a3,3,0,0,0,.1,1.33C97.45,21.31,97.57,22.14,97.91,22.91Zm2.56-7.08a10.81,10.81,0,0,1-.18-1.57,2.29,2.29,0,0,0-.19-1.15,5.18,5.18,0,0,0,0,1.58A6.3,6.3,0,0,0,100.47,15.83Zm.64,1.79c.11-.54.25-1.07.4-1.6a7.4,7.4,0,0,0-.34-2.85,3.7,3.7,0,0,0-.75-2.14c0,.45.06.91.08,1.36a8.45,8.45,0,0,0,.29,1.19c.11.62,0,1.23.07,1.84S100.93,16.9,101.11,17.63Z"/><path class="cls-2" d="M36,35.47a2.82,2.82,0,0,0-.53.07,13.14,13.14,0,0,0-1.59.85,11.22,11.22,0,0,0-1.58,1.09c-.62.44-1.19,1-1.78,1.46A20.51,20.51,0,0,0,29,40.51c-.36.33-.64.74-1,1.09a6.48,6.48,0,0,0-.55.71l.39.28a9.52,9.52,0,0,1,1.56-1.87c.47-.5,1-1,1.46-1.45l1.56-1.33a11.65,11.65,0,0,1,2.84-1.74,8.44,8.44,0,0,0-1.41,1.11c-.45.41-.84.87-1.3,1.25a18.9,18.9,0,0,0-1.84,1.8c-.37.34-.77.61-1.15.94s-.86.82-1.24,1.28l-.21.2.38.27a4.39,4.39,0,0,1,.89-1c.78-.74,1.54-1.51,2.37-2.17.33-.27.63-.58,1-.81-.35.37-.72.72-1.08,1.08s-.7.74-1,1.12-.63.59-.94.9a6.66,6.66,0,0,1-1.12.87l.4.29a6.17,6.17,0,0,0,.59-.46,6.36,6.36,0,0,0,1-.87c.42-.52.94-.94,1.36-1.46s.77-.9,1.18-1.32a21.37,21.37,0,0,1,2-1.82,3.13,3.13,0,0,0,1.19-1.66Z"/><path class="cls-2" d="M19.87,36.73l.14.19,2.78,2a7.74,7.74,0,0,1-.8-.86,4.72,4.72,0,0,0-.86-1,3.5,3.5,0,0,1-1-1.44,4.9,4.9,0,0,1,2,1.75c.57.75,1.19,1.45,1.69,2.26l1.18.86c-.45-.74-.94-1.44-1.41-2.17a11.49,11.49,0,0,0-.74-1c-.18-.25-.33-.54-.52-.78a14,14,0,0,0-1.53-1.29c-.31-.28-.6-.57-.93-.81a2.12,2.12,0,0,0-.58-.05,2.12,2.12,0,0,0-.19.51,7,7,0,0,0,0,1.29l.85.62Z"/><path class="cls-2" d="M31.48,44.15A8,8,0,0,1,32,43a6.36,6.36,0,0,1-.39,1.5,4.77,4.77,0,0,1-.16.81l.38.27c0-.15.09-.3.15-.44a13.45,13.45,0,0,0,.36-1.4l.38-1.27a4.68,4.68,0,0,1-.3,2.15,9,9,0,0,0-.39,1.12l.32.23c0-.13.1-.25.15-.38.21-.5.37-1,.56-1.5a5.32,5.32,0,0,0,.2-1.32,1.72,1.72,0,0,0-.23-1.36l-.64.09c-.23.83-.92,1.43-1.24,2.22a10.56,10.56,0,0,0-.37,1.11l.32.23A5.73,5.73,0,0,1,31.48,44.15Z"/><path class="cls-2" d="M26.2,41.42l-.65-.48c0-.09,0-.18,0-.27a13.75,13.75,0,0,1,0-1.62c.07-.47.18-.95.24-1.42a13.29,13.29,0,0,1,.48-1.48,11.11,11.11,0,0,0-.69-1.83c0-.76.15-1.55.18-2.32A8.65,8.65,0,0,1,26,29.56c.21-1,.77-2.07,1-3.12.22-.69.62-1.37.86-2.07a10.15,10.15,0,0,1,.75-1.58c.25-.33.53-.63.78-1a1.28,1.28,0,0,1,.8-.25,2.28,2.28,0,0,1,0,1c-.38,1.44-.52,2.92-.89,4.37-.15.59-.25,1.16-.35,1.75-.21.85-.35,1.68-.56,2.51-.11.44-.29.87-.38,1.3a9.78,9.78,0,0,1,.81-1.16c.47-.53,1-1,1.43-1.59a6.19,6.19,0,0,1,1-.85c.12-.18.09-.38.17-.56a9.38,9.38,0,0,1,1.34-2.27,13.23,13.23,0,0,1,1.93-1.94,19.62,19.62,0,0,1,1.52-1.34c.38-.26.67-.62,1-.89a8,8,0,0,1,.95-.51,26.84,26.84,0,0,1,2.38-1.52,6.58,6.58,0,0,0,.72-.35A1.45,1.45,0,0,1,42,19.2c.19.1.24.31.34.47-.33.35-.59.72-.93,1.05a18.79,18.79,0,0,1-1.65,1.5c-1.07.85-2,1.86-3,2.78-.49.43-1,.8-1.53,1.22.4-.17.8-.37,1.19-.55a8.37,8.37,0,0,1,1.23-.43,4.18,4.18,0,0,0,1-.36c.46-.31.84-.73,1.34-1,.66-.37,1.32-.72,2-1,.34-.16.67-.32,1-.46s.69-.25,1-.36c1.24-.37,2.46-.72,3.7-1.13,1.06-.31,2.09-.33,3.14-.67.13.17.26.34.38.51a3.39,3.39,0,0,1-1,.93,11.66,11.66,0,0,1-2,1l-.86.3-.84.32a16,16,0,0,1-1.71.55c-.7.14-1.37.48-2.06.6a12.23,12.23,0,0,1,2.66.47,1.64,1.64,0,0,0,.83.15,12.28,12.28,0,0,1,3.47.08,5.74,5.74,0,0,1,1.54.42,6.37,6.37,0,0,1,2.16,1.31,5.51,5.51,0,0,1,1.16.88,2.27,2.27,0,0,0,.56.36,2.66,2.66,0,0,1,.23.37c-.45.46-1.14.31-1.7.42a4.88,4.88,0,0,1-1.12.06c-.4-.06-.83,0-1.22-.1a14.92,14.92,0,0,1-1.66-.38c-.52-.11-.86-.49-1.33-.69a5.71,5.71,0,0,1-1-.4c-.26-.2-.47-.46-.73-.66s-.6-.41-.87-.65-.16-.52-.42-.64A7.06,7.06,0,0,0,44.08,25a9.33,9.33,0,0,0-1.32-.15c-.42,0-.82-.12-1.24-.16a3.22,3.22,0,0,0-1.14.18c-.3.09-.55.33-.85.43s-.54,0-.83,0a9.65,9.65,0,0,0-1.39.52,14,14,0,0,1,2.6.22c.54.15,1.13.15,1.67.31s1.07.19,1.56.36A16.35,16.35,0,0,1,46.4,28c.29.17.27.55.33.86a4.32,4.32,0,0,1-2,.23,8,8,0,0,1-1.32-.1c-.9-.2-1.93,0-2.81-.28a10,10,0,0,0-2.37-.6c-.46-.14-1-.12-1.43-.29s-.76-.2-1.13-.33a12.49,12.49,0,0,0-1.35-.29,8.65,8.65,0,0,1-1.21.73,21.89,21.89,0,0,0-2.78,2.4,19.11,19.11,0,0,0-1.58,1.91,10.89,10.89,0,0,0-1.09,2,4.29,4.29,0,0,1-.3.77,7.93,7.93,0,0,0-.6,1.32c.68-.68,1.33-1.41,2.07-2,.54-.52,1.18-.93,1.76-1.39a16.82,16.82,0,0,1,2.81-1.78,14.1,14.1,0,0,1,2.28-.75,20.34,20.34,0,0,1,2.86-.26l.12.4a5.84,5.84,0,0,1-.31.54,6.4,6.4,0,0,1-1.33.76c-1.11.7-2.28,1.36-3.39,2.11a7.82,7.82,0,0,1-1,.75c-1.52.79-2.88,1.88-4.44,2.6-.47.23-.91.55-1.37.84a1,1,0,0,1-.51.12,6.76,6.76,0,0,0-.22,1.67,10.14,10.14,0,0,1,0,1.44Zm11.3-15c1,.12,2,.33,3,.46.69.17,1.42.17,2.13.32a13.61,13.61,0,0,0,2.2.67,8.59,8.59,0,0,0-1.3-.47,24.23,24.23,0,0,0-4.8-1A7.57,7.57,0,0,0,37.51,26.42ZM36.37,27a8.28,8.28,0,0,0,1.52.54c.6.09,1.17.24,1.74.37a9.82,9.82,0,0,0,2.37.51,25.33,25.33,0,0,0,3.35.18l-1.14-.18c-.7-.11-1.25-.52-2-.6s-1.49-.31-2.23-.48A10.6,10.6,0,0,1,39,27.16,6.44,6.44,0,0,0,36.37,27ZM52.71,28c-.31-.1-.53-.34-.87-.4a5.83,5.83,0,0,1-1.18-.47,25.54,25.54,0,0,0-2.95-.8,3.81,3.81,0,0,0-.53-.06,9.51,9.51,0,0,0,1.67,1.05,5.89,5.89,0,0,0,1.75.77,4.92,4.92,0,0,0,1.78.26c.4,0,.78,0,1.17,0ZM46.6,25.56a15.15,15.15,0,0,1,1.9.36c1,.45,2.21.5,3.15,1a4,4,0,0,0,.74.31c.56.18,1.06.46,1.59.69a3,3,0,0,0-.81-.65,22,22,0,0,0-2-1.24A5.37,5.37,0,0,0,50,25.62,9.14,9.14,0,0,0,46.6,25.56Zm2.71-3.88a12.22,12.22,0,0,0-2.42.88,25,25,0,0,0-2.77.71,18.11,18.11,0,0,0-2,.67,13.27,13.27,0,0,0,1.59-.36,18.07,18.07,0,0,0,3.27-1h-.08a3,3,0,0,0,.68-.16A11.63,11.63,0,0,0,49.31,21.68ZM41,23.85c.76-.29,1.51-.54,2.26-.8s1.53-.45,2.28-.7c.41-.13.83-.16,1.23-.31a8,8,0,0,0,1.46-.59c.29-.17.59-.09.89-.14a5,5,0,0,0,.65-.4A38.42,38.42,0,0,0,45.2,22a16.79,16.79,0,0,0-2.15.72A18,18,0,0,0,41,23.85Zm-8.46,3.4c.47-.61,1.06-1.13,1.51-1.76a5.86,5.86,0,0,1,.64-.61c.33-.3.59-.65.89-1A12.64,12.64,0,0,0,34,25.44,6.21,6.21,0,0,0,32.55,27.25Zm3.9-2.62c.36-.27.62-.63.95-.93.51-.45,1-.93,1.51-1.38s1-.9,1.54-1.34a11.18,11.18,0,0,0-3.18,2A9.24,9.24,0,0,0,36,24.14a18.14,18.14,0,0,0-1.32,1.36,13.08,13.08,0,0,0-1.09,1.33C34.62,26.21,35.46,25.31,36.46,24.63Zm-7.33-1.76.27.23a9.54,9.54,0,0,1-.29,1c-.45,1.08-.58,2.15-1,3.21a5.58,5.58,0,0,0-.51,1.55,6.72,6.72,0,0,1-.19,1.25A17.38,17.38,0,0,0,27.07,32c-.09.66.07,1.24,0,1.88a6.71,6.71,0,0,1,.28-1.37c.17-.69.36-1.34.6-2s.2-1.17.37-1.76c.13-.91.51-1.79.66-2.68s.23-1.56.37-2.35a8,8,0,0,0,.06-1.21Zm-2.5,12.07c0-.64-.11-1.26-.07-1.92,0-.37,0-.71,0-1.08.06-.84.45-1.68.47-2.51a4.64,4.64,0,0,1,.44-1.88c.22-.5.27-1,.47-1.47a11.44,11.44,0,0,0,.39-1.58,3.08,3.08,0,0,0,.34-1c-.39.65-.54,1.33-.87,2-.23.48-.33,1-.52,1.44a22,22,0,0,0-.76,2.1,9.19,9.19,0,0,0-.28,1.68c0,.85,0,1.72-.08,2.58A3,3,0,0,0,26.63,34.94ZM36,32a7.76,7.76,0,0,0-1.82.73,13.32,13.32,0,0,0-2.88,1.51c-.49.33-1,.52-1.51.9a20.79,20.79,0,0,0-2.65,2.18c.41-.21.81-.47,1.24-.65.59-.26,1.15-.61,1.71-.92.84-.51,1.67-1.08,2.51-1.59A37.44,37.44,0,0,1,36,32Zm-5.83,2.47C31,34,31.8,33.42,32.64,33a2.93,2.93,0,0,1,.88-.44A2.27,2.27,0,0,1,34,32.2c.58-.16,1.11-.55,1.68-.68a6.11,6.11,0,0,0,1.54-.77,7.07,7.07,0,0,0-3.29.65c-.42.19-.84.39-1.25.62s-.79.49-1.18.76c-.77.54-1.56,1.1-2.28,1.72a23.44,23.44,0,0,0-2.18,2.19,11.13,11.13,0,0,0,1.1-.91A16.12,16.12,0,0,1,30.15,34.49Z"/><path class="cls-2" d="M145.31,41.27c-1.3.14-2.58.37-3.89.39a6.48,6.48,0,0,1,.88.36c.49.26,1,.41,1.49.71s.8.55,1.22.81a13.7,13.7,0,0,1,1.15,1,12.59,12.59,0,0,0,2,.17c.69.34,1.37.79,2.07,1.15a9.39,9.39,0,0,1,2.2,1.19c.86.63,1.59,1.56,2.46,2.21.55.49,1,1.13,1.55,1.65a10.57,10.57,0,0,1,1.14,1.33c.19.36.35.73.55,1.09a1.12,1.12,0,0,1-.11.78,2.55,2.55,0,0,1-.94-.44l-.9-.69-.93-.65c-.62-.43-1.24-.86-1.83-1.33a16.84,16.84,0,0,0-1.48-1c-.69-.54-1.4-1-2.07-1.56-.35-.29-.69-.62-1.06-.87a6.68,6.68,0,0,1,.74,1.18c.29.63.52,1.29.85,1.9a4.88,4.88,0,0,1,.39,1.19c.12.18.31.24.44.38a10.81,10.81,0,0,1,1.53,2.11,12.12,12.12,0,0,1,1,2.48,14.72,14.72,0,0,1,.61,1.86c.08.43.28.83.37,1.26s0,.68.07,1a18.7,18.7,0,0,1,.4,2.67,4.17,4.17,0,0,0,0,.76,1.25,1.25,0,0,1,0,.79c-.17.12-.38.07-.58.09-.19-.42-.45-.8-.6-1.23a17.27,17.27,0,0,1-.66-2c-.4-1.26-.86-2.49-1.31-3.72-.21-.59-.32-1.21-.48-1.82a18,18,0,0,1-.11,2.48,3.78,3.78,0,0,0-.09,1c.09.53.29,1,.35,1.56a17.09,17.09,0,0,1,.13,2.13,18.12,18.12,0,0,1-.09,2.09c-.17,1.21-.41,2.4-.49,3.61-.13,1-.61,1.92-.68,2.94l-.63.11a2.9,2.9,0,0,1-.45-1.24c0-.35-.06-.7-.07-1a8,8,0,0,1,0-1c.08-1.12.16-2.28.33-3.38.14-.66.12-1.36.31-2a13.06,13.06,0,0,1-1.54,2.08,1.47,1.47,0,0,0-.47.65,11.53,11.53,0,0,1-1.51,2.94,5.27,5.27,0,0,1-1,1.15,6.41,6.41,0,0,1-2.09,1.34,5.62,5.62,0,0,1-1.27.66,2.27,2.27,0,0,0-.56.35,2.85,2.85,0,0,1-.43.06c-.25-.56.19-1.1.31-1.62a4.43,4.43,0,0,1,.4-1c.21-.32.33-.71.58-1a13.17,13.17,0,0,1,1-1.29c.31-.4.8-.55,1.17-.87a5.42,5.42,0,0,1,.75-.67c.29-.15.62-.22.91-.37s.62-.35.95-.48.54.08.76-.1a7.78,7.78,0,0,0,.87-1,8.75,8.75,0,0,0,.7-1.08c.22-.34.46-.65.66-1a2.76,2.76,0,0,0,.28-1c0-.29-.06-.61,0-.91s.27-.45.32-.73a6.35,6.35,0,0,0,.09-1.4,11.39,11.39,0,0,1-1.29,2.13c-.36.4-.63.91-1,1.3s-.6.84-1,1.19a15.18,15.18,0,0,1-2.47,2.32c-.28.18-.62,0-.91-.06a4.28,4.28,0,0,1,.6-1.78,7.28,7.28,0,0,1,.62-1.1c.56-.69.84-1.68,1.44-2.32a9.46,9.46,0,0,0,1.52-1.78c.32-.34.53-.8.88-1.11s.51-.57.79-.83a11.88,11.88,0,0,0,.84-1,6.43,6.43,0,0,1-.18-1.34,17.09,17.09,0,0,0-1-3.4,17.86,17.86,0,0,0-1.08-2.17,14.26,14.26,0,0,0-1.39-1.78,4.31,4.31,0,0,1-.58-.58,6.54,6.54,0,0,0-1-1.07,20.35,20.35,0,0,1,1,2.63c.23.7.39,1.39.56,2.1a20.71,20.71,0,0,1,.46,3.16,12.66,12.66,0,0,1-.29,2.29,15.45,15.45,0,0,1-.93,2.57l-.41-.06c-.12-.16-.25-.31-.37-.48a5.63,5.63,0,0,1-.17-1.45c-.08-.63-.13-1.27-.22-1.9l-.3-1.9a7.36,7.36,0,0,1-.26-1.19c-.06-.81-.2-1.63-.31-2.46-.06-.41-.11-.83-.14-1.24s-.08-.82-.1-1.22-.12-1-.18-1.54a1,1,0,0,1,.11-.49,6,6,0,0,0-1.47-.87,8.94,8.94,0,0,1-1.35-.56,14.48,14.48,0,0,0-2.49-.76,8.83,8.83,0,0,1,1.48,2.23c.19.44.46.85.62,1.29.24.68.58,1.34.76,2l.35,1.07a10.39,10.39,0,0,1,.26,1.09,15.42,15.42,0,0,1,.35,1.82,9,9,0,0,1,.11,1.73,2.69,2.69,0,0,1-.16.49l-.39.06a3.26,3.26,0,0,1-1-1.71c-.3-.82-.48-1.68-.84-2.48-.22-.53-.5-1-.75-1.56s-.44-1.23-.76-1.8a5.34,5.34,0,0,1-.4-1.23c-.16-.5-.18-1-.38-1.53s-.27-.85-.41-1.28c-.05-.16.06-.28.1-.42-.76,0-1.52,0-2.27,0-.42,0-.79.21-1.22.22a5.15,5.15,0,0,0-1.23.31,5.7,5.7,0,0,0-1.21.47,9,9,0,0,1,.91.26c.39.17.73.42,1.1.62a12.52,12.52,0,0,1,1.61,1.13c.56.45,1.09.91,1.6,1.41s.9,1.43,1.54,2l-.19.6a1.7,1.7,0,0,1-1.32-.35,6.34,6.34,0,0,1-1.13-.7c-.39-.36-.8-.69-1.15-1.09a16.57,16.57,0,0,0-1.7-1.48c-.49-.34-.85-.83-1.33-1.19a6.47,6.47,0,0,1-1-.68,5.87,5.87,0,0,0-1.27.8,7.66,7.66,0,0,0-.9.84c-.27.36-.67.6-.9,1-.1.22-.35.24-.56.31l-.24-.64.25-.06a3.75,3.75,0,0,1,.95-1c.18-.11.21-.34.32-.51a4.64,4.64,0,0,0,.39-.4c.12-.37.06-.78.21-1.13s.3-1,.51-1.49.33-1.31.57-1.95c.21-.42.44-.83.67-1.24s.36-.68.72-.81a1.74,1.74,0,0,1,1-.13,2.9,2.9,0,0,1,.66.36,1.8,1.8,0,0,1-.06.81c-.22.56-.55,1-.8,1.59-.21.34-.32.74-.56,1.07a3.07,3.07,0,0,0-.33.57,9.7,9.7,0,0,1-1.09,1.54c.6-.35,1.28-.58,1.89-.92a4.69,4.69,0,0,1,1.32-.43,3.37,3.37,0,0,0,.59-.29,1.69,1.69,0,0,1,.39.09,7.27,7.27,0,0,1,.51-1,18.46,18.46,0,0,1,1.35-1.79,7.12,7.12,0,0,1,.37-.64,13.44,13.44,0,0,1,1.26-1.33c.41-.52.93-.92,1.38-1.41a8,8,0,0,0,.83-.14,4.16,4.16,0,0,1,.39.28,4.36,4.36,0,0,1-.18,1.42,18.1,18.1,0,0,1-1.41,2.1,8.86,8.86,0,0,1-1,1.29,5.84,5.84,0,0,1-1.41,1c.36.06.72.07,1.09.09a10.88,10.88,0,0,1,1.74.3,1.3,1.3,0,0,1,0-.69c.11-.28.38-.4.58-.58s.56-.66,1-.77c.6-.16,1.15-.41,1.74-.57a17.14,17.14,0,0,1,2.75-.32,9.46,9.46,0,0,1,2.92,0,5.45,5.45,0,0,1,2,.76,2.23,2.23,0,0,1,.4.38,1.92,1.92,0,0,1-.3.47c-.38.17-.78.3-1.17.44a15.4,15.4,0,0,1-1.87.75c-.3.06-.63.07-1,.12S145.75,41.25,145.31,41.27Zm-12.6-3.73c0-.2-.29-.16-.27,0A.14.14,0,0,0,132.71,37.54Zm-2.89,4.06a7.28,7.28,0,0,0,.65-1.44,5.35,5.35,0,0,1,.82-1.45,4.19,4.19,0,0,0,.66-1c.08-.17-.07-.37-.13-.55a1.88,1.88,0,0,0-.8,1.13c-.12.31-.35.54-.46.86C130.29,40,130,40.78,129.82,41.6Zm.21.61c.45-.59.85-1.23,1.3-1.82a15.63,15.63,0,0,0,.75-1.75,4.67,4.67,0,0,0,.41-.87c-.24.36-.42.76-.63,1.14s-.7.58-.83,1C130.75,40.73,130.3,41.4,130,42.21Zm2.63.81a3.73,3.73,0,0,0,.86.67c1,.6,1.73,1.58,2.72,2.17.43.29.74.76,1.24.94a8,8,0,0,0-.88-1A12.72,12.72,0,0,0,135,44.38c-.54-.48-1.21-.69-1.76-1.14A1.66,1.66,0,0,0,132.66,43Zm.21.75c.52.59,1.17,1.05,1.72,1.62.39.4.83.74,1.22,1.15a5,5,0,0,0,1.87,1.11c-.32-.29-.69-.56-1-.83a9.2,9.2,0,0,1-1.14-.88c-.35-.37-.78-.65-1.14-1s-.6-.46-.89-.71A2,2,0,0,0,132.86,43.76Zm3.91-5a10.14,10.14,0,0,1,1-1.24,2.2,2.2,0,0,0,.66-.93,5,5,0,0,0-1.1,1.12A5.89,5.89,0,0,0,136.77,38.78Zm-.76,1.7c.45-.32.92-.61,1.4-.88a7.34,7.34,0,0,0,1.73-2.24,3.46,3.46,0,0,0,.94-2c-.31.32-.59.67-.89,1a7.78,7.78,0,0,0-.61,1c-.35.51-.89.83-1.23,1.35S136.37,39.84,136,40.48Zm4.75,8.42c-.08-.4-.25-.78-.36-1.17a24.63,24.63,0,0,0-1-3,6.27,6.27,0,0,0-.62-1.4,8,8,0,0,0,.39,1.61c.17.39.29.79.46,1.18Zm-1.91-6.74-.21-.08a6,6,0,0,1,.76,1.55c.25.53.43,1.08.67,1.61s.22.94.37,1.4a24,24,0,0,1,.91,2.34,21.15,21.15,0,0,1,1,3.33,11.77,11.77,0,0,0-.42-3.19,34,34,0,0,0-1.28-3.79A12.72,12.72,0,0,0,138.84,42.17Zm11.59,16.11c-.26.41-.53.8-.81,1.18s-.57.78-.85,1.18c-.44.52-.78,1.15-1.19,1.7a12.48,12.48,0,0,0-1.5,1.62,8.15,8.15,0,0,0,1-.93A25.69,25.69,0,0,0,150,59.3,6.52,6.52,0,0,0,150.42,58.27Zm0-1.2a7.89,7.89,0,0,0-1.15,1.09c-.32.47-.69.9-1,1.34a10,10,0,0,0-1.46,1.84,19.05,19.05,0,0,0-1.54,2.81c.21-.3.42-.6.62-.91.38-.56,1-.87,1.34-1.45s.92-1.16,1.39-1.73c.21-.28.35-.61.58-.85A6.26,6.26,0,0,0,150.41,57.07Zm-8.35,14.24c.22-.2.43-.41.64-.61s.53-.33.72-.59a5.58,5.58,0,0,1,.9-.83,26.74,26.74,0,0,0,2-2.22,3.42,3.42,0,0,0,.27-.42,9.18,9.18,0,0,0-1.64,1,6,6,0,0,0-1.44,1.21,4.57,4.57,0,0,0-1,1.43C142.4,70.66,142.16,71,142.06,71.31Zm5.39-4.89a11.63,11.63,0,0,1-1.12,1.49c-.84.66-1.35,1.69-2.2,2.31a3.82,3.82,0,0,0-.58.51,14.78,14.78,0,0,1-1.28,1.1,3.27,3.27,0,0,0,.94-.45,22.25,22.25,0,0,0,1.93-1.2,5,5,0,0,0,.86-.85,13.92,13.92,0,0,0,.86-1.36,8,8,0,0,0,.36-.75A6,6,0,0,0,147.45,66.42Zm2.62,1.47a7.58,7.58,0,0,0,.31-1.31c.07-.45.11-.9.19-1.34.12-.64.15-1.31.23-2a11.71,11.71,0,0,0-.35,1.51c-.09.53-.18,1.05-.25,1.58A10,10,0,0,0,150,68l0-.07a2.2,2.2,0,0,0-.13.65,13.33,13.33,0,0,0,0,1.74A10.07,10.07,0,0,0,150.07,67.89Zm1.27-5.54c0,.76-.15,1.52-.24,2.27s-.16,1.48-.28,2.23c-.06.41-.21.77-.25,1.18a6.93,6.93,0,0,0,0,1.48c0,.31-.16.54-.24.81a4.39,4.39,0,0,0,.08.72c.56-1.36.5-2.91.87-4.36a11.49,11.49,0,0,0,.2-2.13A14.41,14.41,0,0,0,151.34,62.34Zm.41-8.66c.18.33.34.68.5,1a9.59,9.59,0,0,0,.49,1,5.54,5.54,0,0,1,.29.81,11.49,11.49,0,0,0,.52,1.17,15.14,15.14,0,0,0-.71-2c-.15-.35-.28-.71-.44-1.05A3.71,3.71,0,0,0,151.75,53.69Zm5.21-.88a10.21,10.21,0,0,1-.79-.68c-.81-.86-1.74-1.44-2.55-2.25a6.14,6.14,0,0,0-1.22-1.1,7.15,7.15,0,0,1-1.08-.7c-.27-.21-.54-.41-.81-.59l-.85-.53c-.57-.36-1.18-.47-1.75-.78a7,7,0,0,1,1.14.82,19.45,19.45,0,0,1,1.63,1.38c.48.38,1,.67,1.47,1.07a13.43,13.43,0,0,1,1.12.85,13,13,0,0,0,1.09.87c.64.52,1.34.87,2,1.34a9.57,9.57,0,0,0,1.1.59l-.19-.42Zm-9.78-7.47c.59.26,1.21.44,1.8.76.32.19.67.28,1,.49a8.65,8.65,0,0,1,1.07.75,6.31,6.31,0,0,0,1.06.73,4.93,4.93,0,0,1,1.55,1.19c.37.4.8.65,1.17,1a12.22,12.22,0,0,0,1.3,1c.26.26.49.6.8.74-.44-.62-1-1-1.46-1.61-.35-.4-.74-.71-1.11-1.07-.52-.56-1.06-1.07-1.62-1.56a9.15,9.15,0,0,0-1.44-1c-.8-.38-1.58-.78-2.36-1.17A3.22,3.22,0,0,0,147.18,45.34Zm5.3,10.9a11.28,11.28,0,0,0-.76-1.5c.15,1.15.57,2.26.81,3.38.11.42.32.8.45,1.2.39,1.26.88,2.48,1.22,3.75a10.05,10.05,0,0,0-.52-3.56,7.62,7.62,0,0,0-.49-1.58C152.92,57.39,152.77,56.78,152.48,56.24Zm-6.57-1.59c0-.31.09-.61.12-.93a4.17,4.17,0,0,0,0-.94,12.88,12.88,0,0,0-.17-3.12c-.12-.56-.06-1.11-.2-1.68l-.36-1.62a11.34,11.34,0,0,0-.54-1.58c0,.45.09.91.08,1.35,0,.61.08,1.25.12,1.87.08,1,.32,1.88.42,2.83q.18,1,.33,1.92C145.77,53.38,145.85,54,145.9,54.65Zm-.17-8.33a14.72,14.72,0,0,1,.34,2.26c.07.47.16.92.23,1.39s.12.94.15,1.4a3.07,3.07,0,0,1,0,.94,2,2,0,0,1,.08.57c-.07.56,0,1.18-.09,1.74a4.6,4.6,0,0,0,.06,1.64,6.91,6.91,0,0,0,.8-3.12,20.39,20.39,0,0,0-.89-5.34,16.49,16.49,0,0,0-1.11-2.8A10.43,10.43,0,0,0,145.73,46.32Zm-5.38-5.72c.39-.05.78-.14,1.16-.22a10.67,10.67,0,0,1,1.09-.05c.59-.06,1.1-.31,1.68-.42a6.69,6.69,0,0,0,1.31-.33,15.2,15.2,0,0,0,1.77-.48,3.13,3.13,0,0,1,1.1-.3,14.92,14.92,0,0,0-5,.2,8,8,0,0,0-2.36.85A2.24,2.24,0,0,0,140.35,40.6Zm3.27.34a25.93,25.93,0,0,0,3.22-.54,5.28,5.28,0,0,0,2.5-.95,3.81,3.81,0,0,0-1.78.23,5.15,5.15,0,0,1-1.29.32c-.65.1-1.2.43-1.87.47s-1.12.32-1.72.34a9.51,9.51,0,0,0-1.75.25,10.89,10.89,0,0,0,1.85-.05Z"/><path class="cls-2" d="M163.92,83a3.35,3.35,0,0,1,.57.51h-1a14.68,14.68,0,0,0-4.35-2,7.76,7.76,0,0,0-2.44-.33,2.33,2.33,0,0,0-1,.34c.36.14.73.24,1.1.34s.64.34,1,.46a16.3,16.3,0,0,0,1.67.39,6.23,6.23,0,0,0,1.29.3,13.69,13.69,0,0,0,1.78.36,2.44,2.44,0,0,1,.88.14h-3.43a2.89,2.89,0,0,1-.7-.2c-.55-.21-1.13-.22-1.67-.48a9.36,9.36,0,0,0-1.65-.59,10.24,10.24,0,0,0,1.64.81l.79.31.35.15h-1.46c-.39-.16-.78-.33-1.16-.52.15.17.3.34.44.52h-.81a17.26,17.26,0,0,0-1.73-1.8,16.54,16.54,0,0,1,.21,1.8h-.48c0-.43-.07-.86-.13-1.29l-.14-.17a9.19,9.19,0,0,1-.05,1.46h-.47v-.26c0,.09,0,.18-.08.26h-.5a4.8,4.8,0,0,0,.21-.83c.06-.46.21-.89.31-1.34,0-.17.2-.22.3-.33-.65-.37-1.28-.74-1.95-1.08-.38-.19-.79-.2-1.17-.4a5,5,0,0,0-1.21-.33,5.63,5.63,0,0,0-1.27-.18,8.65,8.65,0,0,1,.65.68c.25.34.41.73.62,1.09a12.11,12.11,0,0,1,.8,1.8l.34.93h-.4c-.15-.4-.31-.79-.44-1.19-.22-.69-.68-1.22-.92-1.88a1.61,1.61,0,0,0-.36-.48,3.64,3.64,0,0,0,.39,1,23.34,23.34,0,0,1,.91,2.53h-.47a8.7,8.7,0,0,1-.34-1,11.31,11.31,0,0,0-.4-1.07,2,2,0,0,0-.3-.69c.15.78.46,1.51.64,2.29,0,.17.09.33.14.49H148c-.18-.6-.43-1.17-.62-1.76s-.32-1.15-.53-1.71a6.56,6.56,0,0,1-.51-1.09,6,6,0,0,0-1.49.06,7.83,7.83,0,0,0-1.2.28,12.22,12.22,0,0,0-1.28.41c-.2.14-.43,0-.64,0l.11-.68.25.08a3.78,3.78,0,0,1,1.31-.36c.21,0,.36-.19.53-.28a4.56,4.56,0,0,0,.54-.16c.28-.26.45-.65.77-.88s.77-.73,1.19-1,.95-1,1.47-1.43c.39-.27.8-.52,1.21-.76s.65-.42,1-.36a1.66,1.66,0,0,1,.89.35,2.78,2.78,0,0,1,.38.64,1.93,1.93,0,0,1-.46.69c-.47.39-1,.66-1.48,1-.35.2-.65.5-1,.67a3.19,3.19,0,0,0-.57.34,9.59,9.59,0,0,1-1.71.81c.7,0,1.39.12,2.09.13a4.6,4.6,0,0,1,1.35.27,3.23,3.23,0,0,0,.65,0,1.61,1.61,0,0,1,.29.28,7.69,7.69,0,0,1,.94-.62,20.3,20.3,0,0,1,2.07-1c.22-.12.42-.3.64-.4a14.59,14.59,0,0,1,1.75-.61c.62-.27,1.27-.4,1.89-.63a7.93,7.93,0,0,0,.78.26,3.93,3.93,0,0,1,.19.43,4.92,4.92,0,0,1-.89,1.21,18.64,18.64,0,0,1-2.26,1.24,8.73,8.73,0,0,1-1.47.69,5.65,5.65,0,0,1-1.69.19c.3.22.59.41.89.6a10,10,0,0,1,1.33,1.1,1.43,1.43,0,0,1,.38-.61,1.72,1.72,0,0,1,.79-.24,2.72,2.72,0,0,1,1.24-.23c.59.13,1.19.16,1.77.28a17.73,17.73,0,0,1,2.52,1A8.84,8.84,0,0,1,163.92,83Zm-13.29-7.86c.11-.17-.16-.28-.23-.13A.13.13,0,1,0,150.63,75.12Zm-4.53,2.16a7,7,0,0,0,1.29-.94,5.54,5.54,0,0,1,1.44-.87,4.24,4.24,0,0,0,1.08-.56c.16-.11.13-.36.17-.55a1.94,1.94,0,0,0-1.26.61c-.26.21-.58.3-.82.53C147.33,76.07,146.72,76.67,146.1,77.28Zm-.14.64c.69-.3,1.35-.65,2-1a15.39,15.39,0,0,0,1.52-1.17,4.81,4.81,0,0,0,.8-.57c-.39.2-.74.47-1.12.7a3,3,0,0,0-1.23.5C147.35,77,146.59,77.35,146,77.92Zm7.52.26a10.91,10.91,0,0,1,1.45-.65,2.31,2.31,0,0,0,1-.53,5.21,5.21,0,0,0-1.51.49A6.37,6.37,0,0,0,153.47,78.17ZM152,79.33c.55-.07,1.09-.1,1.64-.11a7.47,7.47,0,0,0,2.61-1.2A3.75,3.75,0,0,0,158,76.65c-.43.14-.85.33-1.27.5a8.54,8.54,0,0,0-1,.64c-.56.29-1.18.33-1.73.63S152.6,78.94,152,79.33Z"/><path class="cls-2" d="M114.9,22.94a2.92,2.92,0,0,0-.23-.49,9.53,9.53,0,0,0-1.29-1.26A17,17,0,0,0,111.85,20a17.25,17.25,0,0,0-2-1.24c-.62-.4-1.31-.69-2-1-.43-.23-.91-.36-1.36-.57a6.51,6.51,0,0,0-.84-.32l-.15.45a12.37,12.37,0,0,1,2.27.89c.63.29,1.23.63,1.83,1s1.19.68,1.76,1.06A12.71,12.71,0,0,1,114,22.41a22.29,22.29,0,0,0-3.08-1.86,25.63,25.63,0,0,0-2.29-1.18c-.43-.25-.81-.58-1.24-.82s-1.06-.53-1.61-.78l-.25-.15-.14.44a5.37,5.37,0,0,1,1.18.56,25.67,25.67,0,0,1,2.8,1.59c.36.23.75.4,1.09.65-.92-.43-1.83-.9-2.76-1.33-.39-.18-.76-.4-1.16-.59a5.37,5.37,0,0,1-1.18-.8l-.15.48a6.3,6.3,0,0,0,.62.43,5.65,5.65,0,0,0,1.15.67c.64.21,1.18.62,1.81.86s1.1.44,1.64.69c.82.39,1.56.91,2.35,1.34a3.38,3.38,0,0,0,1.94.64Z"/><path class="cls-2" d="M108.7,7.95l-.13.19-1.06,3.26a7.64,7.64,0,0,1,.57-1,4.66,4.66,0,0,0,.66-1.12,3.45,3.45,0,0,1,1.06-1.38,4.87,4.87,0,0,1-1,2.42c-.53.77-1,1.57-1.62,2.29L106.67,14c.56-.65,1.07-1.33,1.62-2a11.38,11.38,0,0,0,.73-1c.19-.25.41-.48.58-.74a14,14,0,0,0,.76-1.86c.17-.38.35-.75.49-1.14a2.07,2.07,0,0,0-.13-.56,2.18,2.18,0,0,0-.55,0,6.88,6.88,0,0,0-1.23.37l-.32,1Z"/><path class="cls-2" d="M105.24,21.3a8.08,8.08,0,0,1,1.32.14,6.2,6.2,0,0,1-1.56.12,4.66,4.66,0,0,1-.81.09l-.14.44h.47A9.42,9.42,0,0,0,106,22c.45,0,.89,0,1.33,0a5.25,5.25,0,0,1-2.14.39c-.4,0-.79,0-1.18,0l-.12.38.4,0c.53.07,1.07,0,1.61.05a6.58,6.58,0,0,0,1.31-.21c.46-.1,1-.21,1.22-.62l-.28-.59a3.93,3.93,0,0,1-1.24-.23,5.88,5.88,0,0,0-1.25-.25c-.39,0-.78,0-1.17,0l-.12.38A6,6,0,0,1,105.24,21.3Z"/><path class="cls-2" d="M106.2,15.42l.25-.77.25-.07c.53-.13,1-.36,1.56-.46s1-.14,1.44-.23a13.09,13.09,0,0,1,1.55,0,10.69,10.69,0,0,0,1.54-1.23c.73-.23,1.53-.36,2.27-.55a9.77,9.77,0,0,1,2.37-.59c1.06-.14,2.22.09,3.28,0,.73,0,1.51.14,2.26.15a9.73,9.73,0,0,1,1.72.26c.39.15.77.31,1.16.44a1.26,1.26,0,0,1,.49.67,2.34,2.34,0,0,1-1,.34c-.75.06-1.49.16-2.22.25s-1.45.18-2.21.25c-.61,0-1.19.14-1.78.22-.86.06-1.69.14-2.56.22-.45,0-.92,0-1.37.06a9.89,9.89,0,0,1,1.37.39c.66.26,1.28.64,1.94.89a6.57,6.57,0,0,1,1.12.65,2.87,2.87,0,0,0,.59,0,10.08,10.08,0,0,1,2.57.59,12.94,12.94,0,0,1,1.26.54,12.7,12.7,0,0,1,1.18.71c.58.35,1.2.63,1.76,1,.37.26.79.45,1.16.72s.49.52.77.75a17.51,17.51,0,0,1,2.18,1.79,4.71,4.71,0,0,0,.55.58,1.44,1.44,0,0,1,.56.62c0,.21-.22.32-.34.47-.43-.2-.88-.32-1.3-.55-.67-.3-1.26-.77-1.92-1.13-1.17-.71-2.35-1.37-3.57-2-.57-.32-1.08-.73-1.62-1.1a21.7,21.7,0,0,1,1.67,2,5.09,5.09,0,0,0,.65.81c.43.35.94.61,1.35,1a20.44,20.44,0,0,1,3,3.26c.38.52.73,1.06,1.09,1.6s.73,1.06,1.13,1.57c.63.89.92,1.93,1.6,2.79-.12.18-.24.35-.37.52a3.15,3.15,0,0,1-1.2-.67,17,17,0,0,1-1.54-1.59c-.74-.94-1.5-1.9-2.16-2.88-.37-.61-.88-1.15-1.2-1.79a14.31,14.31,0,0,1,.37,2.68,1.59,1.59,0,0,0,.12.83,13.2,13.2,0,0,1,1,3.33,5.19,5.19,0,0,1,.08,1.59,6.59,6.59,0,0,1-.6,2.48,5.38,5.38,0,0,1-.47,1.37,2.21,2.21,0,0,0-.17.64,2.65,2.65,0,0,1-.28.34c-.59-.27-.67-1-.93-1.49a6.1,6.1,0,0,1-.39-1.06c-.07-.39-.26-.78-.3-1.18a12.09,12.09,0,0,1-.14-1.7,7.61,7.61,0,0,1,.26-1.48,5.54,5.54,0,0,1,.08-1c.11-.31.3-.58.4-.9s.21-.69.35-1,.45-.31.48-.59a8.31,8.31,0,0,0-.07-1.36,9.62,9.62,0,0,0-.25-1.32c-.09-.41-.14-.81-.24-1.22a3.15,3.15,0,0,0-.53-1c-.18-.26-.47-.43-.66-.69s-.12-.53-.28-.79a9.31,9.31,0,0,0-.94-1.14,12.22,12.22,0,0,1,.59,2.53c0,.56.19,1.14.2,1.7s.16,1.06.15,1.58a15.24,15.24,0,0,1-.17,3.49c-.08.33-.44.43-.71.57a4.89,4.89,0,0,1-.81-1.8,7.79,7.79,0,0,1-.33-1.27c-.08-.92-.57-1.87-.58-2.78a10,10,0,0,0-.17-2.42c0-.48-.18-1-.15-1.46s0-.8,0-1.18a12.18,12.18,0,0,0-.15-1.36,6.88,6.88,0,0,1-1.07-.92A18.06,18.06,0,0,0,118.05,16a11.07,11.07,0,0,0-1.13-.52c-.39-.15-.79-.27-1.18-.4a14.16,14.16,0,0,0-2.24-.44,5.93,5.93,0,0,1-.82,0,8.36,8.36,0,0,0-1.46-.14,21.28,21.28,0,0,1,2.57,1.33c.65.38,1.25.83,1.88,1.24a20.46,20.46,0,0,1,2.56,2.14,11.41,11.41,0,0,1,1.41,2,17.86,17.86,0,0,1,1.15,2.62l-.34.23c-.2,0-.4-.07-.61-.12a6.18,6.18,0,0,1-1.14-1c-.5-.43-1-.9-1.5-1.32l-1.55-1.27a9.88,9.88,0,0,1-1-.74c-1.25-1.14-2.67-2.2-3.87-3.4-.37-.38-.8-.71-1.21-1.06a1.09,1.09,0,0,1-.27-.45,7,7,0,0,0-1.66.34,8.43,8.43,0,0,1-1.35.47ZM124,21.56c.2,1,.32,2,.49,3,0,.71.25,1.43.34,2.14a13.35,13.35,0,0,0,.06,2.28,8.25,8.25,0,0,0,0-1.37,25.44,25.44,0,0,0-.53-4.88A7.39,7.39,0,0,0,124,21.56Zm-.86-.93a8.52,8.52,0,0,0-.05,1.63c.1.59.14,1.17.19,1.75a11.07,11.07,0,0,0,.24,2.41,20.67,20.67,0,0,0,.86,3.23c-.05-.38-.12-.75-.19-1.12-.12-.69.1-1.33,0-2s-.15-1.53-.22-2.29a10.3,10.3,0,0,1-.19-1.05A7,7,0,0,0,123.12,20.63Zm4,15.87a6.52,6.52,0,0,0,.12-.95,5.65,5.65,0,0,1,.08-1.25c.07-1-.11-2-.13-3.07a3.48,3.48,0,0,0-.1-.51,10.2,10.2,0,0,0-.49,1.92,6,6,0,0,0-.2,1.92,4.76,4.76,0,0,0,.32,1.75c.17.36.19.76.36,1.12C127.12,37.12,127.13,36.81,127.14,36.5Zm.46-6.57a12.46,12.46,0,0,1,.23,1.93c-.15,1.09.21,2.24,0,3.29a4.39,4.39,0,0,0-.07.8c0,.6-.12,1.16-.18,1.74a3.14,3.14,0,0,0,.37-1,22.32,22.32,0,0,0,.59-2.26,5.22,5.22,0,0,0,0-1.25A9.62,9.62,0,0,0,127.6,29.94Zm4.52,1.38a11.09,11.09,0,0,0-1.59-2,8.65,8.65,0,0,0-.7-1.24c-.27-.39-.56-.78-.82-1.18-.36-.58-.82-1.13-1.23-1.7a13.13,13.13,0,0,0,.81,1.42c.31.47.62,1,.94,1.42a12.34,12.34,0,0,0,1,1.37l0-.07a2.49,2.49,0,0,0,.36.6A16.46,16.46,0,0,0,132.13,31.32Zm-4.61-7.22c.52.61,1,1.28,1.44,1.92L130.34,28c.25.36.4.75.66,1.1a7.86,7.86,0,0,0,1,1.18c.26.21.27.54.41.81a4.94,4.94,0,0,0,.57.51c-.56-1.45-1.71-2.64-2.47-4a15.12,15.12,0,0,0-1.37-1.8A12.91,12.91,0,0,0,127.51,24.1Zm-5.85-7c.72.27,1.42.64,2.15.87a5.76,5.76,0,0,1,.77.43,12.17,12.17,0,0,0,1.19.56,15.57,15.57,0,0,0-1.94-1.11A6.73,6.73,0,0,0,121.66,17.1Zm3.7,2.91c.37.25.8.38,1.19.6,1.15.72,2.36,1.35,3.52,2.07a12.27,12.27,0,0,0-2.9-2.4,7.71,7.71,0,0,0-1.48-.86c-.58-.25-1.1-.63-1.69-.85a9.85,9.85,0,0,0-1.61-.61C123.32,18.7,124.38,19.3,125.36,20Zm-.59-7.51-.13.32a8.1,8.1,0,0,1-1,0c-1.15-.13-2.23.11-3.37.05a5.74,5.74,0,0,0-1.62,0,8.63,8.63,0,0,1-1.25.21c-.68,0-1.32.18-2,.29s-1.15.44-1.77.58a6.56,6.56,0,0,1,1.38-.14c.7,0,1.4-.08,2.12-.06s1.17-.16,1.79-.18c.89-.13,1.87-.07,2.77-.21s1.55-.25,2.34-.35a6.89,6.89,0,0,0,1.18-.32ZM112.5,13.82a16.45,16.45,0,0,1,1.81-.67c.36-.07.66-.23,1-.29.81-.18,1.75-.1,2.55-.34a4.32,4.32,0,0,1,1.92-.14c.54.07,1,0,1.55,0a13.63,13.63,0,0,0,1.63-.13,3,3,0,0,0,1.07,0,17.18,17.18,0,0,0-2.16-.23c-.53-.07-1,0-1.54,0a17.49,17.49,0,0,0-2.22-.1,9.43,9.43,0,0,0-1.69.27c-.82.25-1.65.47-2.47.69A3,3,0,0,0,112.5,13.82Zm5.68,8a6.51,6.51,0,0,0-1.26-1.49A12.7,12.7,0,0,0,114.59,18c-.48-.35-.83-.82-1.33-1.16a19,19,0,0,0-2.9-1.84c.32.34.7.64,1,1s.95.87,1.41,1.34c.73.68,1.55,1.25,2.3,1.89C116.15,20.1,117.2,20.92,118.18,21.83ZM114,17.05c.75.63,1.55,1.19,2.24,1.88a3.42,3.42,0,0,1,.69.71,2.25,2.25,0,0,1,.46.39,17.88,17.88,0,0,1,1.16,1.39,5.08,5.08,0,0,0,1.2,1.23,7.35,7.35,0,0,0-1.63-2.95,18.72,18.72,0,0,0-2.06-1.89c-.74-.59-1.55-1.1-2.35-1.63A17.45,17.45,0,0,0,111,14.8a9.48,9.48,0,0,0,1.22.75A12.61,12.61,0,0,1,114,17.05Z"/></svg>