<svg id="Layer_1" data-name="Layer 1" xmlns="http://www.w3.org/2000/svg" viewBox="0 0 168 168"><defs><style>.cls-1{fill:#1e1e1e;}.cls-2{fill:#248943;}</style></defs><title>Artboard 1</title><path class="cls-1" d="M69.8 74.7c-1.6 3.5-3 7.2-4.8 10.7a6.4 6.4 0 0 0-.5 4l2 13c.3 3 .6 6.4-.6 9.5a44.2 44.2 0 0 1-3.5 6.7 2 2 0 0 1-3.6-.2 13.4 13.4 0 0 1-1.7-5.3 46.2 46.2 0 0 1 1.6-14 35 35 0 0 0 1.3-5.2 11.2 11.2 0 0 0-.3-3.2c-1-5.3-1.7-10.5-2.5-15.8-.5-3.2-1-6.4-1.3-9.6 0-.4-.5-.8-.7-1a4.6 4.6 0 0 0-.7 1c-1 3.4-1.8 6.8-2.5 10.3-.6 2.8-1 5.7-1.3 8.6-.3 2 0 4-.4 6a37.6 37.6 0 0 1-2.2 7.8c-1 2.3-3.8 2.5-6 1a11.4 11.4 0 0 1-4.5-5.7 27.8 27.8 0 0 1 .4-22c2.4-5.2 7-8 13-8 1.6 0 2.3-.4 2.5-2a19 19 0 0 0 .5-2.2c0-1.6 1-1.7 2.4-1.7 3 0 3.6.6 4 3.7.7 5 1 10 1.7 15l1 7.2a4.5 4.5 0 0 0 .6 1c2.4-5.5 5-10.8 6.6-16.3.8-.5.5 3 .5 3M40.7 83a25.7 25.7 0 0 0 3 12.8 14.4 14.4 0 0 0 2 2.4c.5-1 1.5-1.8 1.7-2.8.8-3.7 1.3-7.5 2-11.4.3-3 .6-6 1.2-9 .6-3.4 1.5-6.6 2.3-9.8.2-1-.3-1.5-1.2-1a13 13 0 0 0-4 2 22.3 22.3 0 0 0-3.4 4.7 27.6 27.6 0 0 0-3.7 12zM61 98.7l-.7.7c-.6 5-1.4 9.7-1.8 14.5A6.2 6.2 0 0 0 61 119c.5-1.2 1.3-2.2 1.4-3.3a58.3 58.3 0 0 0 0-8.7c-.3-2.8-1-5.5-1.5-8.6zM131.3 87c-.4 1.8-.7 3.6-1.2 5.3-.5 2.3-1.2 4.7-2 7a38 38 0 0 1-3 6.5c-1.2 2-3.7 1.6-4.7-.5a9 9 0 0 1-1-3.3l-1-20c0-5.7 0-11.2-.3-16.7a24.7 24.7 0 0 0-1.3-5.3c0-.3-.5-.6-.8-1-2.8 2.6-4 6-4.6 9.3-.8 4.3-1.5 8.5-2 12.8a36.4 36.4 0 0 0 .4 13.3 8.4 8.4 0 0 0 1.2 3c1 1.2.4 2-.6 2.7a2 2 0 0 1-3-.7c-1-2.2-2.4-4.2-3-6.5a146.6 146.6 0 0 1-3.2-16.2c-.7-5.2-.7-10.4-1-15.6 0-1.3.3-1.4 1.3-1.3 1 0 1.8 0 2.7.2 1.2 0 1.4 1 1.5 2 0 4.4 0 8.7.2 13 0 1.8.2 3.7.4 5.6a1.2 1.2 0 0 0 .7 1c.2-1 .2-2.3.5-3.5.6-3.4 1-7 2-10.3a55.7 55.7 0 0 1 3-7.7c1.4-3 4-2.7 6.6-2.6s2.8 2.3 3.4 4c1.4 3.8 1.3 8 1.2 12v8.2l.3 15c0 2 .2 4 .4 6l.5.2a37 37 0 0 0 2.3-4.3l4-11.4zM90.6 81.5l-.5 5.8a2 2 0 0 0 .5 1.4l5.3 5.8a3.2 3.2 0 0 1 .3.5 1.4 1.4 0 0 1-1.8-.5l-4-4c0-.3-.2-.4-.5-.6-.2 0-.4.3-.5.5a27.5 27.5 0 0 1-1.7 2.7 4.3 4.3 0 0 1-3.6 1.2 3.5 3.5 0 0 1-3.3-1.6 6.3 6.3 0 0 1-.6-5.4c.7-2 1.6-3.7 2.3-5.5a1 1 0 0 0-.2-1 31.5 31.5 0 0 1-4.7-10.3c-.5-2-1-4 .3-6a4.3 4.3 0 0 1 3.6-2.3 26.3 26.3 0 0 1 4.2-.2 5.4 5.4 0 0 1 4 2.7 6 6 0 0 1 1 4.5 29.6 29.6 0 0 1-3 9.6L86 82.6c-.2.2-.3.6-.2.7l2.6 3.2h.5v-4c0-.6 0-.6 1.6-1zm-7.8-1.8l.6-.6a31 31 0 0 0 2.6-9 7 7 0 0 0-1.6-6 2.7 2.7 0 0 0-3.5-.4 5 5 0 0 0-2.6 4.8 27.6 27.6 0 0 0 1.8 6 58.6 58.6 0 0 0 2.6 5.3zm2.2 5l-1.2 2.8c-.8 1.7-1.4 3.4-.8 5.2a1.8 1.8 0 0 0 1.2 1 2.4 2.4 0 0 0 1.6-.6 7.6 7.6 0 0 0 2.3-4.5.8.8 0 0 0 0-.6l-3-3.3z"/><path class="cls-2" d="M143 128.7c0-.6-.4-1.2-.7-1.8l-.7-2a6.6 6.6 0 0 1 0 1l-.3 1.7-.4 1.4a9.5 9.5 0 0 1-.7 1.6 11.8 11.8 0 0 0 .4 2c0 .7-.3 1.5-.4 2.3a9.6 9.6 0 0 1-1 4 12.3 12.3 0 0 0-.8 1.4c-.3.7-.8 1.3-1 2a10.4 10.4 0 0 1-1 1.5l-1 .7a1 1 0 0 1-.6.2 2.6 2.6 0 0 1 0-1l1.4-4.4.5-1.8.7-2.4.5-1.3a9.6 9.6 0 0 1-1 1.2l-1.4 1.4a6 6 0 0 1-1 .7 3 3 0 0 0-.2.6 8.8 8.8 0 0 1-1.6 2 10.3 10.3 0 0 1-2 1.6c-.5.4-1 1-1.5 1.2l-1 .7-1 .4a18.7 18.7 0 0 1-2.5 1 4.2 4.2 0 0 0-.7.4 1.3 1.3 0 0 1-.8.2c-.2 0-.2-.3-.3-.5l1-.8c.6-.5 1.2-1 1.8-1.3s1-1 1.6-1.3l1.5-1.2 1.7-1a15.7 15.7 0 0 1-2.4.6 3.7 3.7 0 0 0-1 .4 14 14 0 0 1-1.4.8l-2 .8a13.7 13.7 0 0 1-2 .5l-2 .3c-.5 0-1 .2-1.7.4-1 .2-2 0-3 .3l-.3-.6a3.2 3.2 0 0 1 1-1 10.3 10.3 0 0 1 2-.6l3.3-.8c.4 0 .7 0 1-.2a5.4 5.4 0 0 1 1 0l-1.2-.5a7.8 7.8 0 0 1-1-.5 1.5 1.5 0 0 0-1-.3 11.5 11.5 0 0 1-3-.5 5.4 5.4 0 0 1-1.5-.6 6.5 6.5 0 0 1-2-1.5 5.5 5.5 0 0 1-1-1 2.2 2.2 0 0 0-.5-.4 3 3 0 0 1 0-.3c.3-.4 1-.2 1.5-.2a4.6 4.6 0 0 1 1 0l1.2.3a11.4 11.4 0 0 1 1.5.6c.5.2.8.6 1.2.8a5.6 5.6 0 0 1 1 .6c0 .2.3.5.5.7l.7.8s0 .5.3.7a7 7 0 0 0 1.2.5 8.5 8.5 0 0 0 1.3.3l1 .3a2.8 2.8 0 0 0 1.2 0 9 9 0 0 0 .8-.2 7.5 7.5 0 0 0 .8 0 8.5 8.5 0 0 0 1.4-.3 12.7 12.7 0 0 1-2.4-.5c-.5-.3-1-.3-1.6-.6l-1.4-.5a16 16 0 0 1-3-1.8c-.3-.2-.2-.5-.2-.8a4 4 0 0 1 2 0 8.6 8.6 0 0 1 1.2.2c.8.3 1.8.2 2.6.6a9.7 9.7 0 0 0 2.2.8l1.3.5 1 .5a11.6 11.6 0 0 0 1.3.5 6.3 6.3 0 0 1 1.2-.6 19.7 19.7 0 0 0 3-2 14.4 14.4 0 0 0 1.6-1.8 11 11 0 0 0 1.3-2 4.4 4.4 0 0 1 .4-.6 8.4 8.4 0 0 0 .8-1.3c-.8.6-1.4 1.3-2.2 1.8l-1.8 1.2a12.3 12.3 0 0 1-1.5.8l-1.4.6a11.6 11.6 0 0 1-2.4.5 18.8 18.8 0 0 1-2.7 0l-.2-.4a5.7 5.7 0 0 1 .3-.5 6 6 0 0 1 1.5-.5c1-.6 2.3-1 3.4-1.7a7.2 7.2 0 0 1 1-.6c1.5-.6 3-1.5 4.5-2a12 12 0 0 0 1.4-.7 1 1 0 0 1 .4 0 7.2 7.2 0 0 0 .3-1.7 12 12 0 0 1 .2-1.4 18.6 18.6 0 0 0 0-2.6 10.4 10.4 0 0 1-1.8 2l-1 1a19 19 0 0 1-1.7 1.4c-.7.4-1.3 1-2 1.3a10.4 10.4 0 0 1-1.5 1 12 12 0 0 1-1.6.5 2.6 2.6 0 0 1-.6 0v-.4a3 3 0 0 1 1.2-1.6 22 22 0 0 0 2-1.6l1.4-1 1.4-1.4a6.8 6.8 0 0 1 1-.8l1.4-.8 1-.8h.6l-.8-2.2c0-.4-.4-.7-.5-1a5 5 0 0 0-.7-1 5.6 5.6 0 0 0-.8-1 8.8 8.8 0 0 1 0 .8l-.3 1.2a6 6 0 0 1-.2 1l-.3 1-1 2s-1 1.2-1.3 2h-.7a1.8 1.8 0 0 1 0-1.4 5.3 5.3 0 0 1 .2-1.3l.7-1.4a19.6 19.6 0 0 0 1-2 17.6 17.6 0 0 1 .6-1.7 8 8 0 0 1 .4-1 6 6 0 0 0-1.2-1 7.6 7.6 0 0 0-1-.7 11.7 11.7 0 0 0-1.3-.7c-.2 0-.3-.2-.5-.4l.6-.5v.2a3.7 3.7 0 0 1 1.3.6h.7a4.6 4.6 0 0 0 .5.4 10 10 0 0 1 1-.2h3.7c.4 0 .8 0 1.3.2s.8 0 1 .4a1.8 1.8 0 0 1 .4 1 3 3 0 0 1 0 .8 2 2 0 0 1-1 .2l-1.7-.3c-.4 0-.8 0-1.2-.2a3 3 0 0 0-.6-.2 9.6 9.6 0 0 1-1.8-.5l1.5 1.5a4.6 4.6 0 0 1 .7 1c0 .3.3.4.5.6a1.6 1.6 0 0 1 0 .3 7.5 7.5 0 0 1 1 .2 19 19 0 0 1 2.2.7 7 7 0 0 1 .7.2 13.4 13.4 0 0 1 1.7.8c.7.2 1.2.6 1.8.8a8.2 8.2 0 0 0 .4.8 3 3 0 0 1-.2.4 4.5 4.5 0 0 1-1.5.3 18.8 18.8 0 0 1-2.4-.7 8.7 8.7 0 0 1-1.6-.5c-.6-.2-1-.7-1.4-1l.3 1a8.8 8.8 0 0 1 .2 1.8 1.3 1.3 0 0 1 .7 0 1.7 1.7 0 0 1 .7.3c.3.2.7.3 1 .7l1 1.5a18.4 18.4 0 0 1 1 2.5 9.5 9.5 0 0 1 1 2.8 5.5 5.5 0 0 1 0 2 2.3 2.3 0 0 1-.4.6 2 2 0 0 1-.5-.2l-.7-1a15.6 15.6 0 0 1-1.3-1.5l-.4-1a12.6 12.6 0 0 1-.5-1zm-.2-13.2c.2 0 0-.3 0-.2v.2zM138 114a7.5 7.5 0 0 0 1.6.2 5.5 5.5 0 0 1 1.7.3 4 4 0 0 0 1 .4l.6-.4a2 2 0 0 0-1.4-.5H138zm-.5.4l2.2.7a16 16 0 0 0 2 .2 4.8 4.8 0 0 0 1 .2l-1.4-.3a3 3 0 0 0-1.2-.4l-2.5-.2zm0 2.7a3 3 0 0 0-.3 1c-.2 1.3-1 2.2-1.3 3.4a8 8 0 0 0-.6 1.5 5.8 5.8 0 0 0 .7-1.3 20.6 20.6 0 0 0 1-2c.3-.6.2-1.3.5-2a2 2 0 0 0 0-.5zm-.6.6a10 10 0 0 0-.6 1l-.5 1-.8 1.6a5 5 0 0 0-.5 2l.5-1a13.8 13.8 0 0 1 .5-1.5c.2-.4.3-1 .6-1.4a6.6 6.6 0 0 0 .4-1 2 2 0 0 0 .2-.7zm6 2.2a10.3 10.3 0 0 1 1.4.5 2.2 2.2 0 0 0 1 .3 5 5 0 0 0-1.3-.7 6 6 0 0 0-1-.2zm-2-.2c.5.3 1 .6 1.3 1a7.4 7.4 0 0 0 2.6 1 3.5 3.5 0 0 0 2.2.3c-.4-.3-1-.5-1.3-.6a8 8 0 0 0-1.2-.3c-.6 0-1-.5-1.7-.7s-1.3-.6-2-.7zm-6.5 7c.3 0 .6-.4 1-.6l2.5-2a5.4 5.4 0 0 0 1-1 9.5 9.5 0 0 0-1.3 1l-1 .8-1 1zm5.8-3.8v-.3a7.3 7.3 0 0 1-1.2 1.2c-.3.5-.8.8-1.3 1.2l-1.2.7a17.4 17.4 0 0 1-2 1.5l-1.4 1a7.8 7.8 0 0 1-1.3 1 10.7 10.7 0 0 0 3-1.3c.4-.5 1-1 1.5-1.3l1.6-1.2a9.4 9.4 0 0 0 1.3-1.3 17.3 17.3 0 0 0 1.3-1.4zm-11.7 16c-1-.3-2-.6-2.8-1-.6 0-1.3-.2-2-.5a12.8 12.8 0 0 0-2-1 8.4 8.4 0 0 0 1.2.7 23.6 23.6 0 0 0 4.4 1.6 6.7 6.7 0 0 0 1.2.2zm1-.4a8.3 8.3 0 0 0-1.3-.8c-.6 0-1-.3-1.6-.6a9.2 9.2 0 0 0-2.2-.8 23.3 23.3 0 0 0-3-.6l1 .4c.6 0 1 .6 1.7.8l2 .8a9.7 9.7 0 0 1 1 .3 6.2 6.2 0 0 0 2.5.4zm-16-3.5l.8.3c.2 0 .4.4.7.5a5.8 5.8 0 0 1 1.2.6c1 .5 1.8.7 2.7 1a3.5 3.5 0 0 0 .4.3 9.3 9.3 0 0 0-1.5-1.3 5.7 5.7 0 0 0-1.7-1 5 5 0 0 0-1.6-.4l-1-.2zm6.3 3.5a14 14 0 0 1-2-.6 7 7 0 0 0-1.3-.8 6.3 6.3 0 0 1-1.4-.7 4 4 0 0 0-.7-.4l-1.5-.8a3.2 3.2 0 0 0 1 .8l1.6 1.4a5.2 5.2 0 0 0 1 .6 8.6 8.6 0 0 0 3.3.5zm-.7 3a21.5 21.5 0 0 0 2.7-.4 15 15 0 0 0 2-.3 15 15 0 0 0-1.6.2 16 16 0 0 0-3.2.5 2.4 2.4 0 0 0-.6 0 10.3 10.3 0 0 0-1.6.5 11.2 11.2 0 0 0 2.3-.6zm5.7-.6c-.8 0-1.5.3-2.2.4l-2.2.5h-1.2a7 7 0 0 0-1.5.4h-1a4.4 4.4 0 0 0-.6.3 11 11 0 0 0 2.2-.2l1-.2h1.2a15.2 15.2 0 0 0 2-.6 13 13 0 0 0 2.2-.8zm8.3-2.3l-1.6 1.5a4.4 4.4 0 0 1-.6.6 11.4 11.4 0 0 0-1 .8 11.2 11.2 0 0 0 1.8-1.3 6.5 6.5 0 0 0 1.5-1.7zm2.5 4.6a8.6 8.6 0 0 1 .4-1c.6-1 .8-2 1.3-3a6 6 0 0 0 .7-1.6 7.8 7.8 0 0 1 .3-1.2c.3-.6.4-1.3.6-2a17.8 17.8 0 0 0 .3-1.8 5.7 5.7 0 0 1-.5 1.3l-.8 2-.5 1.7-1 2.7-.7 2.3a7.6 7.6 0 0 0-.2 1.2l.3-.4zm4-11.6v2l-.3 1c-.2 1-.6 1.8-.7 2.6a4.4 4.4 0 0 1-.7 1.8l-.5 1.6a15 15 0 0 0-.6 1.5 3.2 3.2 0 0 0-.5 1 17.5 17.5 0 0 0 1-1.8l.7-1.4a16 16 0 0 0 1-2 10 10 0 0 0 .5-1.6c0-1 .3-1.7.4-2.6a3.3 3.3 0 0 0-.2-2zm-8.7 8.5a12.7 12.7 0 0 0 1.3-1.3 11.7 11.7 0 0 0-1.5.8l-1.5 1-1 .8-1.5 1-1.6 1.3a11.3 11.3 0 0 0 3.2-1.7 8.6 8.6 0 0 0 1.3-1c.5-.4 1-.7 1.4-1.2zm-.4-6.8a7 7 0 0 0 1.8-.5 11.6 11.6 0 0 0 3-1.2c.4-.3 1-.4 1.5-.7a23.3 23.3 0 0 0 2.6-1.7c-.4 0-.8.3-1.2.4l-1.8.7c-.8.4-1.7 1-2.5 1.3a36 36 0 0 1-3.4 1.7zm7.8-2.7a11.8 11.8 0 0 1-2 1L134 133a2.7 2.7 0 0 1-1 .2 2 2 0 0 1-.5.3c-.6 0-1 .4-1.7.4a2 2 0 0 0-.7 0l-.7.5a6.4 6.4 0 0 0 3.2-.2 20.5 20.5 0 0 0 4.8-2.5 23.7 23.7 0 0 0 2.3-2 9 9 0 0 0-1.2.8zm3.8-7l.6 1 .4 1c.2.7.6 1 1 1.6a6.8 6.8 0 0 0 .7 1 16 16 0 0 0 .8 1.7 3 3 0 0 1 .7 1 14.7 14.7 0 0 0-1.8-4.8 8 8 0 0 0-1.5-2 2.3 2.3 0 0 0-1-.5zm.7 3.3a27.4 27.4 0 0 0 1.4 3 5.2 5.2 0 0 0 1.7 2 3.7 3.7 0 0 0-.7-1.6 5 5 0 0 1-.7-1c-.3-.7-.7-1-1-1.8s-.6-1-.8-1.5a9.7 9.7 0 0 0-.8-1.5 11.2 11.2 0 0 0 .6 1.7l.3.8zM109.2 159.3a3.3 3.3 0 0 1-.3.6l-.4-1a14.4 14.4 0 0 0 .6-4.8 7.7 7.7 0 0 0-.5-2.4 2.4 2.4 0 0 0-.6-1v2.3a16 16 0 0 0 0 1.8 6.2 6.2 0 0 0 .2 1.4 13.6 13.6 0 0 0 .2 1.8 2.4 2.4 0 0 1 .2.8l-1-3.2a3 3 0 0 1 0-.7c0-.7-.2-1.3 0-2a9.2 9.2 0 0 0 0-1.6 10 10 0 0 0-.4 1.8V154.4l-.5-1.4c0-.4 0-.8.2-1.2-.2 0-.4.3-.5.5l-.2-.7a17 17 0 0 0 1.2-2.2 16.6 16.6 0 0 1-1.7.7v-.3l1-.5.2-.2a9.3 9.3 0 0 1-1.5.4v-.5l.2-.2h-.3l-.2-.4a5 5 0 0 0 1 0c.3-.2.8-.2 1.3-.2l.4.2.3-2.2V145a5 5 0 0 0 0-1.3 5.6 5.6 0 0 0-.3-1.3 8.5 8.5 0 0 1-.4 1l-1 .8a10 10 0 0 1-1.4 1.3l-.7.6-.2-.3 1-.7c.6-.4 1-1 1.5-1.5a2 2 0 0 0 .4-.5 3.2 3.2 0 0 0-1 .7 20.8 20.8 0 0 1-2 1.6v-.4a8.6 8.6 0 0 1 .7-.7 11.2 11.2 0 0 0 .8-.7 1.8 1.8 0 0 0 .6-.5l-2 1.4a5 5 0 0 0-.4.2v-.3l1.4-1 1.4-1.2a6.5 6.5 0 0 1 1-.7 6 6 0 0 0-.6-1.4 8 8 0 0 0-.7-1.2 12.4 12.4 0 0 0-.8-1c-.2-.2 0-.5 0-.7h.5v.3a3.8 3.8 0 0 1 .8 1c0 .3.3.4.4.6a4.4 4.4 0 0 0 .4.3 10 10 0 0 1 1 .4l1.4 1 1.8 1 1 .8s.7.4.8.8a1.7 1.7 0 0 1 0 1 2.3 2.3 0 0 1-.6.6 2 2 0 0 1-.8-.4l-1.4-1-1-1a3 3 0 0 0-.5-.3 9 9 0 0 1-1.3-1.3l.5 2a4.5 4.5 0 0 1 .2 1.3 3.2 3.2 0 0 0 0 .6 1.6 1.6 0 0 1 0 .3 7.8 7.8 0 0 1 .8.7 21.2 21.2 0 0 1 1.5 1.7 7.4 7.4 0 0 1 .6.5 14.3 14.3 0 0 1 1 1.4c.5.5.8 1 1.2 1.6a7.3 7.3 0 0 0 0 .8 4 4 0 0 1-.4.4 4.3 4.3 0 0 1-1.4-.5 18.8 18.8 0 0 1-2-2 8.8 8.8 0 0 1-1-1 5.7 5.7 0 0 1-.7-1.6l-.3 1a8.6 8.6 0 0 1-.6 1.6 1.5 1.5 0 0 1 .7.2c.3 0 .3.4.5.6s.5.7.6 1c0 .8.2 1.3.3 2a17.3 17.3 0 0 1-.3 2.6 8.7 8.7 0 0 1-.5 3zm3.4-15v-.4.2zm-3.5-3.8a7.5 7.5 0 0 0 1.4 1 5.7 5.7 0 0 1 1.3 1 4.3 4.3 0 0 0 1 1h.5c-.2-.5-.6-.8-1-1s-.5-.5-.8-.7c-.7-.4-1.5-1-2.3-1.3zm-.5 0l1.5 1.8a16 16 0 0 0 1.6 1 5 5 0 0 0 .8.6l-1-1s-.4-.7-.8-1c-.8-.4-1.4-1-2-1.4zm2 7.3a11 11 0 0 1 1.2 1.2 2.2 2.2 0 0 0 .8 1 5 5 0 0 0-1-1.4 6.5 6.5 0 0 0-1-.8zm-1.5-1l.6 1.5a7.6 7.6 0 0 0 2 2 3.6 3.6 0 0 0 2 1.4l-1-1a9 9 0 0 0-1-.8l-1-1.6s-1-1.2-1.6-1.7zM151.2 94a2.4 2.4 0 0 0 .4-.3 13 13 0 0 0 .8-1.6 13.5 13.5 0 0 0 .6-1.7l.6-2.3a7.5 7.5 0 0 0 .2-1v-1.2l.3-1.4a6.5 6.5 0 0 0 0-1h-.4a12.3 12.3 0 0 1 0 2.5l-.3 1-.2 1-.3 2a12.4 12.4 0 0 1-1.3 3 8.4 8.4 0 0 0 .5-1.7v-1c0-.2 0-.5.2-.8.3-.8.3-1.7.4-2.6 0-.5.3-1 .4-1.5l.3-1.7v-.3h-.4a5.4 5.4 0 0 1-.3 1.3 27 27 0 0 1-.7 3c0 .5 0 1-.3 1.3l.5-3c0-.3 0-.7.2-1a5.4 5.4 0 0 1 .4-1.5h-.5a6.3 6.3 0 0 0-.2.7 5.7 5.7 0 0 0-.2 1.3c0 .7-.2 1.3-.3 2v1.8a9.8 9.8 0 0 1-.4 1.3c0 .4 0 1-.2 1.3a3.2 3.2 0 0 0 0 2zM163.5 83.5H160a7.6 7.6 0 0 1 1 .2 4.7 4.7 0 0 0 1.3.3 3.4 3.4 0 0 1 1.6.6 5 5 0 0 1-2.7-.3l-2.7-.8h-1.4l2.4 1a11.3 11.3 0 0 0 1.2.3c.3 0 .5.2.8.3a14 14 0 0 0 2 .2h1.3a2 2 0 0 0 .4-.2 2 2 0 0 0-.2-.5 6.8 6.8 0 0 0-.7-1h-1zM149.8 84.4a8 8 0 0 1 .2 1.3 6 6 0 0 1-.6-1.5 4.6 4.6 0 0 1-.3-.7h-.4s0 .3.2.4a9.3 9.3 0 0 0 .5 1.3l.4 1.2a4.7 4.7 0 0 1-1-2l-.3-1h-.4v.4l.5 1.4a5.4 5.4 0 0 0 .6 1.2c.4.4.6 1 1 1l.6-.4c-.3-.8 0-1.7-.3-2.6l-.3-1h-.4a6 6 0 0 1 .2.8z"/><path class="cls-2" d="M155.7 83.5h.8v.2c.4.5.8.8 1 1.3l.7 1.3a9.4 9.4 0 0 1 .4 1.5 10.5 10.5 0 0 0 1.7 1l1.2 2a8.7 8.7 0 0 1 1.3 2.2l1 3 .5 2.3a10.2 10.2 0 0 1 .3 1.7v1.2a1.3 1.3 0 0 1-.5.7 2.3 2.3 0 0 1-.5-1l-2-4c0-.5-.4-1-.6-1.6-.5-.8-.8-1.6-1-2.4l-.6-1.2a9.8 9.8 0 0 1 0 1.4l-.2 2a6.6 6.6 0 0 1-.3 1.4v.5a10.8 10.8 0 0 1 0 5.5 20 20 0 0 1-.5 2c-.2.4-.2 1-.3 1.3a8.2 8.2 0 0 1-.5 1 27 27 0 0 1-1 2.6 5.6 5.6 0 0 0-.4.7 1.5 1.5 0 0 1-.4 1c-.3 0-.5-.2-.7-.3 0-.5 0-1 .2-1.4a19 19 0 0 1 .4-2.2l.2-1c0-.2 0-.6.2-1l.3-2 .6-1.8-.7 1.2a8.4 8.4 0 0 1-.7 1 4.2 4.2 0 0 0-.7 1l-.5 1.5-1 2q-.3.4-.5 1t-.7.8l-2.3 3a12.7 12.7 0 0 1-1 1.2l-.6.6a5.8 5.8 0 0 0-.6.6l-.5-.2a3.5 3.5 0 0 1 .3-1.3 11.7 11.7 0 0 1 1-2l1-1.5a16 16 0 0 1 1-1.5c.6-.5 1-1.2 1.4-1.7a12.3 12.3 0 0 1-2.4 1.2 1.6 1.6 0 0 0-.8.4 12.4 12.4 0 0 1-3 2 5.8 5.8 0 0 1-1.4.5 6.4 6.4 0 0 1-2.5.4 5.4 5.4 0 0 1-1.3 0 2.3 2.3 0 0 0-.7 0 2.7 2.7 0 0 1-.4-.2 1.2 1.2 0 0 1 .5-.8l.7-.6a5 5 0 0 1 1-.7c.3 0 .6-.3 1-.5a13.7 13.7 0 0 1 1.5-.7 7 7 0 0 1 1.5-.2 5.7 5.7 0 0 1 1-.2h2s.5.4.8.4a7.2 7.2 0 0 0 1.3-.5 9.3 9.3 0 0 0 1-.7l1.2-.6a3.2 3.2 0 0 0 .8-.8l.5-1 .6-.4a9.7 9.7 0 0 0 .7-1.2 14 14 0 0 1-2.2 1.3c-.5 0-1 .5-1.5.7l-1.5.6a16.3 16.3 0 0 1-3.4 1c-.2 0-.4-.4-.6-.6a4.3 4.3 0 0 1 1.4-1.3 8 8 0 0 1 1-.7c1-.4 1.7-1.2 2.6-1.4a10 10 0 0 0 2.3-1c.4 0 .8-.4 1.3-.5l1-.4a12.5 12.5 0 0 0 1.4-.6 7.8 7.8 0 0 1 .5-1.3 24 24 0 0 0 .7-3.6 19.2 19.2 0 0 0 .2-2.6l-.2-1a5.8 5.8 0 0 0-.2-1.2 4.3 4.3 0 0 1-.2-.8 8.3 8.3 0 0 0-.3-1.4c0 1-.2 2-.4 2.8 0 .8-.4 1.5-.6 2.2a15.3 15.3 0 0 1-.5 1.6l-.7 1.5a13.7 13.7 0 0 1-1.4 2c-.6 1-1.5 1.2-2.2 2l-.3-.3a6 6 0 0 1-.2-.6 6.3 6.3 0 0 1 .7-1.3L154 94a7.8 7.8 0 0 1 .3-1.2l1-2.4a19.2 19.2 0 0 1 1-2.3 12 12 0 0 0 .7-1.4 1 1 0 0 1 .3-.4 6.8 6.8 0 0 0-.8-1.5 8.2 8.2 0 0 1-1-1zm-.4 18.8l-2.6 1.4c-.7.2-1.3.7-2 1a13.7 13.7 0 0 0-2 .7 8.6 8.6 0 0 0 1.2-.4 24 24 0 0 0 4.4-2 7.6 7.6 0 0 0 1-.7zm.6-1a8.3 8.3 0 0 0-1.6.3l-1.6.7a9.8 9.8 0 0 0-2.3 1 26 26 0 0 0-2.8 2l1-.7c.6-.3 1.3-.3 2-.6l2-1a10.6 10.6 0 0 1 1-.5 6.4 6.4 0 0 0 2.2-1.3zm-14 8.6a8 8 0 0 0 1-.3 5.8 5.8 0 0 1 1.3-.3 26 26 0 0 0 2.8-1 3.8 3.8 0 0 0 .6-.3 9.5 9.5 0 0 0-2 .2 5.8 5.8 0 0 0-2 .4 5 5 0 0 0-1.5 1c-.2 0-.5.3-.8.6zm6.5-1.7a15.2 15.2 0 0 1-1.8.8c-1 .4-2 1-3 1a4 4 0 0 0-1 .3l-1.6.4a3 3 0 0 0 1 0 22 22 0 0 0 2.4-.2 5.4 5.4 0 0 0 1.2-.3 9.2 9.2 0 0 0 3-2zm0 4.8a11.6 11.6 0 0 0 1.5-2 25 25 0 0 0 1.8-2.3 19.3 19.3 0 0 0 1.2-1.7 13 13 0 0 0-1 1.2 18.6 18.6 0 0 0-2 2.8 3.2 3.2 0 0 0-.5.5 11.7 11.7 0 0 0-1 1.6zm5.5-6.6l-1.4 2-1.4 2-.8 1a9 9 0 0 0-1 1.3c0 .3-.3.4-.5.6a5 5 0 0 0-.4.7 37.3 37.3 0 0 0 3-3.6 15.7 15.7 0 0 0 1.4-2 18 18 0 0 0 1-2zm5-7.7c0 .8-.3 1.5-.3 2.3a6 6 0 0 1-.2 1v1.2a12.3 12.3 0 0 0 .3-2.2 6.5 6.5 0 0 0 0-2.3zM157 103c0 .5 0 1-.2 1.4 0 .7-.2 1.4-.4 2l-.5 2a11 11 0 0 0 1.5-3.5 9.3 9.3 0 0 0 .4-1.8 17.5 17.5 0 0 0 .2-2 13 13 0 0 0 0-1.6 13 13 0 0 0-.5 1.8 16.5 16.5 0 0 1-.5 1.7zm7-2.8h-.3l-.5-1c-.2-1-.8-2-1-3.2a5 5 0 0 0-.6-1.5 6.8 6.8 0 0 1-.6-1.2l-1-1.7-1-1.5a6.5 6.5 0 0 1 .6 1.3l.6 2 .8 1.7 1 2.5 1 2.2a7.4 7.4 0 0 0 .7 1zm-5-11.2l1 1.5.7 1c.3.6.5 1.5 1 2.2a4.7 4.7 0 0 1 .8 1.8c0 .5.3 1 .4 1.5a11.5 11.5 0 0 0 .7 1.5 3 3 0 0 0 .2 1c0-.8-.3-1.4-.5-2.2 0-.5-.3-1-.4-1.4a19.3 19.3 0 0 0-.6-2.3 9.3 9.3 0 0 0-.8-1.5l-1.5-2A3 3 0 0 0 159 89zm-6 8a7.8 7.8 0 0 0 1-1.8 12.6 12.6 0 0 0 1.5-3c.2-.5.6-1 .7-1.5a26 26 0 0 0 1-3.4l-.8 1.3-.8 1.8-1 2.7a38.7 38.7 0 0 1-1.5 3.8zm3.3-5.6l-1 2.7a3 3 0 0 1-.5 1 2.3 2.3 0 0 1-.2.6c-.4.4-.6 1-1 1.5a6.2 6.2 0 0 0-.8 1.6 7 7 0 0 0 2.2-2.4 22 22 0 0 0 2-5.3 25.4 25.4 0 0 0 .5-3.2 9.5 9.5 0 0 0-.3 1.4 12.8 12.8 0 0 1-1 2.2zM59.4 153.6c1-.8 1.8-1.8 3-2.6a6.5 6.5 0 0 1-1 .3l-1.7.2h-1.4a13.7 13.7 0 0 1-1.6 0 12 12 0 0 0-1.7 1c-.8 0-1.6 0-2.4.2a9.8 9.8 0 0 1-2.5.4l-3-.3c-1 0-1.6-.3-2.4-.4a10.5 10.5 0 0 1-1.7-.4l-1-.7a1 1 0 0 1-.5-.7 2.5 2.5 0 0 1 1-.2H47a18 18 0 0 0 1.8 0h2.6l1.4.2a7 7 0 0 1-1.3-.6l-1.8-1a5.3 5.3 0 0 1-1-.7 3 3 0 0 0-.6 0 10.8 10.8 0 0 1-2.4-.8 11.5 11.5 0 0 1-2.2-1.5 15.4 15.4 0 0 1-1.6-1c-.3-.5-.7-.7-1-1l-.6-.7a18.3 18.3 0 0 1-2-2 4.2 4.2 0 0 0-.4-.6 1.2 1.2 0 0 1-.4-.6l.4-.3 1.2.6a17.2 17.2 0 0 1 1.7 1.3c1 .8 2.2 1.5 3.3 2.2l1.4 1.2a19 19 0 0 1-1.4-2 4 4 0 0 0-.5-1l-1.2-1-.7-.8-.7-.8a18 18 0 0 1-1.2-1.7c-.6-1-1-2.2-1.7-3.2-.4-1-.6-2-1-2.8 0-.2.2-.3.3-.5a3 3 0 0 1 1 .7 15 15 0 0 1 1.4 1.6l1.7 3 1 1.7a13 13 0 0 1 0-2.6 1.5 1.5 0 0 0 0-.8 11.6 11.6 0 0 1-.6-3.3 5.3 5.3 0 0 1 .2-1.5 6.5 6.5 0 0 1 1-2.4 5.6 5.6 0 0 1 .5-1.2 2.3 2.3 0 0 0 .3-.7 3 3 0 0 1 .3-.4c.6.3.6 1 .8 1.5a4.4 4.4 0 0 1 .2 1l.2 1.3a12.8 12.8 0 0 1 0 1.6 6.8 6.8 0 0 1-.5 1.3 5.4 5.4 0 0 1-.3 1c0 .3-.3.6-.5 1l-.6.8s-.4.4-.5.6a7.8 7.8 0 0 0-.2 1.3 8.8 8.8 0 0 0 0 1.2v1.2a2.8 2.8 0 0 0 .4 1l.6.7a7.7 7.7 0 0 0 .2 1 6.4 6.4 0 0 0 .8 1.2 11.3 11.3 0 0 1-.2-2.5V139v-1.4a15.2 15.2 0 0 1 .7-3.4c0-.3.5-.3.7-.5a4.2 4.2 0 0 1 .6 1.8 7.3 7.3 0 0 1 0 1.3c0 1 .5 1.8.3 2.7a9.5 9.5 0 0 0-.3 2.3v1.4l-.2 1.2a11.2 11.2 0 0 0 0 1.3 6.2 6.2 0 0 1 1 1 16.8 16.8 0 0 0 2.7 2 16 16 0 0 0 2.2 1.3 14.3 14.3 0 0 0 2 .6 4.3 4.3 0 0 1 1 0 7 7 0 0 0 1.4.4 19.6 19.6 0 0 1-2.4-1.5l-1.6-1.4a20.8 20.8 0 0 1-2.3-2.2 11.8 11.8 0 0 1-1-2 16 16 0 0 1-.8-2.6l.3-.2h.6a5.6 5.6 0 0 1 1 1.2l1.3 1.4 1.3 1.4a7.6 7.6 0 0 1 1 .8l1.6 1.8c0 .3.4.6.7 1l.8 1 1 1a1 1 0 0 1 .2.5 6 6 0 0 0 1.7 0 9 9 0 0 1 1.4-.4 14.3 14.3 0 0 0 2.5-1 8.8 8.8 0 0 1-2.5-.8c-.4-.3-1-.4-1.3-.7l-1.8-1a16.4 16.4 0 0 1-1.7-1.5 15.4 15.4 0 0 1-1.4-1.3 8.6 8.6 0 0 1-1-1.3 2.7 2.7 0 0 1-.2-.6l.3-.3a2.4 2.4 0 0 1 1 .3 4 4 0 0 1 .8.6l2.2 1.4 1.5.8 1.7 1a5.3 5.3 0 0 1 1 .8l1 1 1.2.8v.4l2-1.4c.3-.2.5-.6.8-1a5.2 5.2 0 0 0 .8-1 5.7 5.7 0 0 0 .7-1 9 9 0 0 1-.8.4h-1.3a12.5 12.5 0 0 1-2 0 21 21 0 0 1-2 0c-1-.2-1.7-.7-2.5-.8l-.3-.6c.2-.4.8-.4 1.2-.5a6 6 0 0 1 1.3 0h1.5a17 17 0 0 0 2.3.3l2 .2a6.5 6.5 0 0 1 1 0 6 6 0 0 0 .6-1.4 7.7 7.7 0 0 0 .2-1.2 11.8 11.8 0 0 0 .2-1.4c0-.2 0-.4.3-.5l.5.3v.2a3.8 3.8 0 0 1-.3 1.4v.6a4.6 4.6 0 0 0 0 .5c0 .4.3.7.4 1l.4 1.5.6 2 .2 1.3s0 1 0 1.2a1.8 1.8 0 0 1-.8.7 3 3 0 0 1-.7 0 1.8 1.8 0 0 1-.5-.7c0-.6 0-1.2-.2-1.7l-.2-1.2a3 3 0 0 0 0-.7 9.7 9.7 0 0 1 0-2l-1 2a4.7 4.7 0 0 1-.8 1.2 3.4 3.4 0 0 0-.3.5 1.7 1.7 0 0 1-.4 0 7.3 7.3 0 0 1 .2 1.2 18.4 18.4 0 0 1 0 2.3 7 7 0 0 1 0 .7 13.4 13.4 0 0 1-.2 1.8c0 .7-.2 1.3-.3 2a8 8 0 0 0-.6.6 4.2 4.2 0 0 1-.4 0 4.3 4.3 0 0 1-.7-1 18 18 0 0 1 0-2.7 8.8 8.8 0 0 1 0-1.6 5.8 5.8 0 0 1 .5-1.6l-1 .7a11 11 0 0 1-1.6.8 1.3 1.3 0 0 1 .4.5 1.7 1.7 0 0 1 0 1c-.2.3-.2.7-.5 1l-1 1.6a17.2 17.2 0 0 1-2 1.8 9.4 9.4 0 0 1-2.3 1.7 5.6 5.6 0 0 1-2 .7 2.2 2.2 0 0 1-.6 0 2 2 0 0 1 0-.7l.8-1a15.4 15.4 0 0 1 1-1.7l.8-.7s.4-.7.8-1zm12.4-4.3s.3 0 .2-.2-.3 0-.2.2zm0-5a7.3 7.3 0 0 0 .2 1.5 5.3 5.3 0 0 1 .2 1.6 4.2 4.2 0 0 0 0 1.3l.5.3a2 2 0 0 0 0-1.4c0-.3 0-.6-.2-1l-.8-2.3zm-.6-.4v2a15.5 15.5 0 0 0 .4 2 4.7 4.7 0 0 0 .2 1c0-.5 0-1-.2-1.4a3 3 0 0 0 0-1.3c0-.8-.2-1.6-.4-2.4zm-2.6.8a3.7 3.7 0 0 0-1 0c-1.2 0-2.4-.3-3.6-.2a6 6 0 0 0-1.5 0 8 8 0 0 0 1.2.3 6.5 6.5 0 0 0 1 0H66c.6.2 1.3 0 2 0a1.6 1.6 0 0 0 .6-.2zm-.6-.5l-2.3-.3c-.6 0-1.2 0-1.7-.2a5 5 0 0 0-2.2.2h1.4a9.2 9.2 0 0 1 1.4 0c.5.2 1 0 1.5.2s1 0 1.2 0a2 2 0 0 0 .8 0zm-.2 6.3a10 10 0 0 1 0 1.6 2.2 2.2 0 0 0 0 1 5 5 0 0 0 .2-1.4 6 6 0 0 0-.3-1.2zm-.4-1.8l-.6 1.5a7.3 7.3 0 0 0 0 3 3.5 3.5 0 0 0 .3 2c.2-.4.2-.8.2-1.3a7.8 7.8 0 0 0 0-1.2V151l.2-2.2zm-8.8-4l1 .8 1.2 1 1.4.8a6.3 6.3 0 0 0 1.3.7 8 8 0 0 0-1.3-1l-1-.7zM64 149h.3a6 6 0 0 1-1.5-.7l-1.5-1-1-.8L58 145a22.5 22.5 0 0 1-2.7-2 12.2 12.2 0 0 0 2.2 2.3 34.5 34.5 0 0 0 3.3 2.3A12.6 12.6 0 0 0 64 149zm-18.7-6v-3-2a12.5 12.5 0 0 0 .2-2.3 8.2 8.2 0 0 0-.2 1.4 25.4 25.4 0 0 0-.2 4.8 6.5 6.5 0 0 0 .2 1zm.7 1a8 8 0 0 0 .3-1.7v-1.7a10 10 0 0 0 0-2.3 19 19 0 0 0-.3-3.3v1c0 .8-.3 1.4-.2 2s0 1.6 0 2.3a10 10 0 0 1 0 1 6.3 6.3 0 0 0 .2 2.5zm-1.6-16.5c0 .3 0 .6-.2.8a7.7 7.7 0 0 0-.2 1 5.6 5.6 0 0 1-.3 1 27.3 27.3 0 0 0-.2 3 3.4 3.4 0 0 0 0 .6 9.2 9.2 0 0 0 .7-2 6 6 0 0 0 .5-1.8 4.5 4.5 0 0 0 0-1.8l-.4-1zm-1.5 7a11.7 11.7 0 0 1 0-1.8c.2-1 0-2 .3-3a3.8 3.8 0 0 0 .2-1 15 15 0 0 1 .4-1.5 3.3 3.3 0 0 0-.6 1 21.5 21.5 0 0 0-1 2 5 5 0 0 0 0 1.2 14 14 0 0 0 0 1.6 5.8 5.8 0 0 0 .5 1.5zm-3 .4a15.3 15.3 0 0 0 1 2.3l1 1.7a11.7 11.7 0 0 0-.6-1.4l-.7-1.4a9.7 9.7 0 0 0-1-1.4 2.2 2.2 0 0 0 0-.6 14.5 14.5 0 0 0-1-1.4 9.7 9.7 0 0 0 1.2 2zm2 5.2l-1-2-1-2-.6-1a7 7 0 0 0-1-1.3v-1a4.4 4.4 0 0 0-.6-.5c.3 1.5 1.3 2.7 1.8 4a11.5 11.5 0 0 0 1 2 14 14 0 0 0 1.5 1.6zm4.8 7.2l-2-1a5.5 5.5 0 0 1-.7-.5 11.4 11.4 0 0 0-1-.8 15 15 0 0 0 1.8 1.3 5.6 5.6 0 0 0 2 .8zm-3.7 3.8a8.8 8.8 0 0 1 1 0c1.3.3 2.4.2 3.5.4a6 6 0 0 0 1.7.2 7 7 0 0 1 1.2 0 15.2 15.2 0 0 0 2-.2c.7 0 1.3-.3 2-.3a7 7 0 0 1-1.5 0 20.8 20.8 0 0 1-2.2-.2h-7.1a9.6 9.6 0 0 0-1.2.3l.4.2zm12.4.3c-.6 0-1.2.3-2 .4h-1a9.8 9.8 0 0 1-1.2 0 6.5 6.5 0 0 0-1.3 0 5 5 0 0 1-2 0h-1.6a12.2 12.2 0 0 0-1.7-.2 3.3 3.3 0 0 0-1 0l2 .4a13.8 13.8 0 0 0 1.6.2c.8 0 1.5.2 2.2.3a8.4 8.4 0 0 0 1.7 0l2.6-.5a3.2 3.2 0 0 0 1.7-.8zm-10.6-5.7a10 10 0 0 0 1.5.7c-.8-.8-1.8-1.5-2.7-2.2l-1-.7-3.2-2.3a10 10 0 0 0 2.5 2.5 7.2 7.2 0 0 0 1.2 1l1.6 1zM51 143a6 6 0 0 0 1 1.7 12.3 12.3 0 0 0 2 2.4l1 1.4 1.4 1a11.4 11.4 0 0 0 1.4 1l-1-1-1-1.4c-.7-.7-1.5-1.3-2-2l-2.8-3zm5 6.8a14.8 14.8 0 0 1-1.6-1.7c-.3-.2-.7-.5-1-1s-.7-.6-1-1a3 3 0 0 1-.5-.6 2 2 0 0 1-.5-.4 17 17 0 0 1-1-1.5 4.6 4.6 0 0 0-1-1.3 6.8 6.8 0 0 0 1.2 3 20.4 20.4 0 0 0 4 3.8 12 12 0 0 0 1 1c.6 0 1 .4 1.4.6a9 9 0 0 0-1-.8zm7.7 1.4l-.8 1a10.4 10.4 0 0 1-1 .6c-.4.4-.6 1-1 1.3a6.7 6.7 0 0 0-1 1c-.2.6-.8 1-1 1.6a3 3 0 0 1-.8.8 14.8 14.8 0 0 0 4-3 8 8 0 0 0 1.4-2 2.2 2.2 0 0 0 .2-1zM61 153a26 26 0 0 0-2.4 2.2 5.3 5.3 0 0 0-1.5 2.2 3.8 3.8 0 0 0 1.4-1.2 5 5 0 0 1 1-1l1-1.5s.8-1 1.3-1.3a9.4 9.4 0 0 0 1.3-1.2 11 11 0 0 0-1.5 1l-.6.7zM19.8 130.8a3.2 3.2 0 0 1-.7 0l1-.7a14 14 0 0 0 4.6-.8 7.8 7.8 0 0 0 2.2-1.2 2.3 2.3 0 0 0 .6-1l-1 .5-1.2.2a16.8 16.8 0 0 0-1.5.7 6 6 0 0 0-1.3.5 13.4 13.4 0 0 0-1.6.6 2.4 2.4 0 0 1-.8.4l2.8-2a2.8 2.8 0 0 1 .7-.2c.5-.2 1-.5 1.6-.6a9 9 0 0 0 1.8-.5 10.8 10.8 0 0 0-1.8.3l-.8.2h-.4l1.2-.8 1.2-.2c-.2 0-.4 0-.6-.2l.6-.5 1.2.3 1.3.2-.7-.7-.6-.7.4-.2a10.7 10.7 0 0 0 1 1 6.7 6.7 0 0 1-.7-1.2l.5-.3.4-.4a5 5 0 0 0 .2.8c.3.4.4.8.6 1.3v.4c.7 0 1.5 0 2.2-.2.4 0 .7-.3 1.2-.3a5 5 0 0 0 1-.5 5.7 5.7 0 0 0 1.3-.6 7.5 7.5 0 0 1-1-.2c-.3 0-.7-.3-1-.5a12.2 12.2 0 0 1-1.8-1l-.8-.5.2-.3 1 .6c.6.5 1.3.6 2 1a1.8 1.8 0 0 0 .4.2 3 3 0 0 0-1-.6 16 16 0 0 1-2-1.5l.3-.3.8.7a11.4 11.4 0 0 0 1 .7 2 2 0 0 0 .6.4l-2-1.4a5 5 0 0 0-.3-.3l.5-.2.7.6.8.5c.5.4 1 1 1.4 1.2a9 9 0 0 1 1 .6 6 6 0 0 0 1.2-1 7.8 7.8 0 0 0 .8-1 12.2 12.2 0 0 0 .8-1c0-.2.3-.2.5-.3l.3.6-.2.2a3.8 3.8 0 0 1-1 1v.6a4.5 4.5 0 0 0-.5.4 10.4 10.4 0 0 1 0 1.2l-.4 1.5-.5 2c0 .4-.3.8-.5 1.3s-.3.7-.6 1a1.7 1.7 0 0 1-1 0 2.8 2.8 0 0 1-.6-.2 2 2 0 0 1 0-.7c0-.6.4-1 .6-1.7l.4-1.2a3.2 3.2 0 0 0 .3-.6 9.5 9.5 0 0 1 1-1.6l-1.8 1a4.6 4.6 0 0 1-1.2.7 3.2 3.2 0 0 0-.6.2 1.6 1.6 0 0 1-.4 0 7.6 7.6 0 0 1-.4 1 20.2 20.2 0 0 1-1 2l-.3.7a14.5 14.5 0 0 1-1 1.5c-.4.5-1 1-1.3 1.6a7.2 7.2 0 0 0-.7.3 4 4 0 0 1-.5-.2 5 5 0 0 1 0-1.4 18.5 18.5 0 0 1 1-2.3 8.6 8.6 0 0 1 1-1.5c.2-.5.8-.7 1.2-1h-1a10 10 0 0 1-1.8-.2 1.4 1.4 0 0 1 0 .7c0 .3-.3.5-.4.7s-.5.7-1 1l-1.5.7a17.8 17.8 0 0 1-2.6.7 8.5 8.5 0 0 1-3 .4zm15.4-1.4h0zm2.4-4.5a7.2 7.2 0 0 0-.5 1.5 5.5 5.5 0 0 1-.6 1.5 4.2 4.2 0 0 0-.5 1c-.2.3 0 .5 0 .7a2 2 0 0 0 .7-1.3c0-.3.3-.6.4-1 .3-.7.4-1.6.6-2.5zm-.3-.6l-1 2a13.8 13.8 0 0 0-.6 1.8 4.8 4.8 0 0 0-.3 1l.4-1.3a3 3 0 0 0 .7-1.2c.2-1 .6-1.6.8-2.5zm-6.2 4.2a10.8 10.8 0 0 1-.7 1.4 2.3 2.3 0 0 0-.5 1 5.2 5.2 0 0 0 1-1.3 6.3 6.3 0 0 0 .3-1zm.6-1.8l-1.2 1a7.4 7.4 0 0 0-1.4 2.5 3.7 3.7 0 0 0-.7 2.2l.7-1.2a8.5 8.5 0 0 0 .5-1c.3-.7.8-1 1-1.6s.8-1.3 1-2zM94.8 150.6a2.8 2.8 0 0 0 .4.2 13.2 13.2 0 0 0 1.8.3 5.7 5.7 0 0 0 1 .2h1c.8 0 1.5 0 2.3-.2a21 21 0 0 0 2.2-.3l1.5-.3a6 6 0 0 0 .8-.3v-.3a9.5 9.5 0 0 1-2.5.6c-.7 0-1.3.2-2 .3h-2a11.4 11.4 0 0 1-3.4 0 8.5 8.5 0 0 0 1.7-.2l1.8-.2a18.5 18.5 0 0 0 2.6-.4h1.6l1.7-.4h.3v-.4a4.3 4.3 0 0 1-1.4.2l-3.2.4h-1.3 1.5l1.5-.5h1.3a6.8 6.8 0 0 1 1.4 0v-.5a22.5 22.5 0 0 0-2.2 0c-.6.3-1.3.3-2 .5l-1.7.4a21.7 21.7 0 0 1-2.7.3 3 3 0 0 0-2 .6zM108.6 159v-.2l-1-3.2a7.7 7.7 0 0 1 0 1 4.7 4.7 0 0 0 .2 1.4 3.5 3.5 0 0 1 0 1.8 5 5 0 0 1-.6-2.6v-2.8l-.4-1.4c0 1 0 1.7-.2 2.6a11.2 11.2 0 0 0 0 1.2v1a14 14 0 0 0 .5 2l.4 1a2 2 0 0 0 .4.5 2 2 0 0 0 .5-.3 6.8 6.8 0 0 0 .8-1l-.3-1zM103.5 146.2a8 8 0 0 1-1 .7c.2-.6.7-.8 1-1a4.8 4.8 0 0 1 .7-.7l-.2-.4h-.3a13.3 13.3 0 0 0-1.2 1l-1 1a4.7 4.7 0 0 1 1.5-1.7 8.7 8.7 0 0 0 1-.7v-.3l-.5.2-1.3.8a5.3 5.3 0 0 0-1 1c-.3.4-.6.8-.6 1.2l.6.3a23 23 0 0 1 2.3-1 9.8 9.8 0 0 0 1-.7v-.3a5.4 5.4 0 0 1-1 .5z"/><path class="cls-2" d="M106.2 151.6l.3.7-.2.2a13.3 13.3 0 0 1-1 1.3l-1 1a13.3 13.3 0 0 1-1.3 1 11.3 11.3 0 0 0-.5 1.8l-1.5 1.8a8.8 8.8 0 0 1-1.6 2c-.7.6-1.8 1-2.6 1.8-.6.5-1.3.8-2 1.2a10 10 0 0 1-1.5.8l-1.2.3a1.3 1.3 0 0 1-.7-.2 2.3 2.3 0 0 1 .6-1l3.2-3a17.6 17.6 0 0 0 1.3-1l2-1.8 1-.8a8.7 8.7 0 0 1-1.3.5c-.7 0-1.4.2-2 .4a5.2 5.2 0 0 1-1.4 0l-.4.5a10.6 10.6 0 0 1-2.5 1 13.2 13.2 0 0 1-2.8.6 15.4 15.4 0 0 1-2 .2h-2.5a19 19 0 0 1-2.8-.3 4.7 4.7 0 0 0-.8 0 1.4 1.4 0 0 1-.8-.3v-.5c.5 0 1-.3 1.4-.4a18.6 18.6 0 0 1 2.2-.2c1.3 0 2.7-.2 4-.4h2a16.3 16.3 0 0 1-2.5-.7 4.2 4.2 0 0 0-1-.4h-1.7a23.2 23.2 0 0 1-4.4-.8c-1.2-.5-2.4-1-3.6-1.3-1-.4-2-1-3-1.3v-.6a3.2 3.2 0 0 1 1.4-.2 14.6 14.6 0 0 1 2.2.4 35.7 35.7 0 0 1 3.4 1l2 .7a14 14 0 0 1-1.8-2 1.7 1.7 0 0 0-.6-.5 14.3 14.3 0 0 1-2.8-2 5.2 5.2 0 0 1-1-1.4 6.5 6.5 0 0 1-1-2.3 5.3 5.3 0 0 1-.4-1.4 2.2 2.2 0 0 0-.3-.7 2.6 2.6 0 0 1 0-.4c.6-.3 1 .3 1.6.5a5 5 0 0 1 1 .7l.8.7a12 12 0 0 1 1.2 1.2 7.2 7.2 0 0 1 .6 1.4 6.2 6.2 0 0 1 .6 1l.2 1 .3 1s-.2.4 0 .6a8.2 8.2 0 0 0 .8 1 9.5 9.5 0 0 0 1 1l1 .8a3 3 0 0 0 1 .5c.3 0 .7 0 1 .2l.7.5a8.5 8.5 0 0 0 1.4.4 13.5 13.5 0 0 1-2-1.8c-.2-.4-.7-.8-1-1.2l-1-1.2a16.7 16.7 0 0 1-2-3c0-.2 0-.5.2-.8a4.4 4.4 0 0 1 1.7 1 8.7 8.7 0 0 1 1 .8c.5.7 1.5 1.2 2 2a11.8 11.8 0 0 0 .8 1 8.8 8.8 0 0 0 .8.8l1 1 .7 1a12.6 12.6 0 0 0 1 1 9.5 9.5 0 0 1 1.3.2h2a8.8 8.8 0 0 0 1.7-.3 19.2 19.2 0 0 0 2.4-.6 11 11 0 0 0 2-1 4.3 4.3 0 0 1 .8-.4 7.7 7.7 0 0 0 1.2-.7c-1 0-2 .3-2.8.4a21.6 21.6 0 0 1-2.4 0 17.3 17.3 0 0 1-3.3 0 14.2 14.2 0 0 1-2.3-1c-1 0-1.6-1-2.4-1.3v-.4a5.8 5.8 0 0 1 .7-.3 8 8 0 0 1 1.5.2h4a7.8 7.8 0 0 1 1.2 0l1.3.3h1.3a19.5 19.5 0 0 1 2.6.4h1.6a1 1 0 0 1 .4.3 6.8 6.8 0 0 0 1.2-1.2 10.5 10.5 0 0 1 .8-1.2zm-18 5.4c-.8-.6-1.4-1.4-2-2l-1.7-1.6a15.6 15.6 0 0 0-1.3-1.8 8.8 8.8 0 0 0 .7 1 26.8 26.8 0 0 0 3.2 3.7 6 6 0 0 0 1 .7zm1.2.3a8.3 8.3 0 0 0-1-1.4 15.6 15.6 0 0 1-1-1.4 10 10 0 0 0-1.7-1.8 26.3 26.3 0 0 0-2.6-2l1 .7c.4.5.6 1 1.2 1.6l1.5 1.8a10.7 10.7 0 0 1 .8.8 6.5 6.5 0 0 0 2 1.7zM77 146.8c0 .3 0 .6.3.8a6 6 0 0 1 .7 1c.5 1 1.3 1.7 2 2.5a4 4 0 0 0 .3.5 9.7 9.7 0 0 0-.7-2 6 6 0 0 0-1-1.6 5 5 0 0 0-1.3-1.3l-1-.7.6.8zm3.4 5.6A15.5 15.5 0 0 1 79 151c-.5-1-1.5-1.7-2-2.6a4 4 0 0 0-.4-.7l-1-1.5a3 3 0 0 0 .4 1 22.5 22.5 0 0 0 .8 2 4.7 4.7 0 0 0 .8 1 10.2 10.2 0 0 0 2.8 2.2zM76 154a10 10 0 0 0 2.4.6 18.4 18.4 0 0 0 2.6 1l2 .7a13 13 0 0 0-1.5-.6 25 25 0 0 0-3.2-1 2.5 2.5 0 0 0-.6-.4l-1-.2a7.4 7.4 0 0 0-.8 0zm8 3l-2.4-.6-1-.4-1.3-.4c-.4 0-.7-.3-1.2-.5a8.7 8.7 0 0 0-1.4-.2c-.3 0-.5-.3-.8-.5a5 5 0 0 0-.7 0 10.8 10.8 0 0 0 2.2 1 23 23 0 0 1 2.2.8 12 12 0 0 0 2.2.8 18 18 0 0 0 2.3.3zm8.7 2.3l-2.2.5a5.8 5.8 0 0 1-1 0 12.2 12.2 0 0 0-1.2.4 16 16 0 0 0 2.2-.3 5.8 5.8 0 0 0 2.2-.7zM88 159c-.5 0-1 .2-1.3.3-1.4 0-2.7.3-4 .4a11 11 0 0 0 3.7.2 8.7 8.7 0 0 0 1.7-.2l2-.3a13 13 0 0 0 1.6-.5H88zm5 5.8l-.2-.3a8.3 8.3 0 0 1 .8-.7c1-.6 1.8-1.3 2.7-2a5.8 5.8 0 0 0 1.3-1 6.7 6.7 0 0 1 1-1 15.6 15.6 0 0 0 1.4-1.2l1-1.6a6.7 6.7 0 0 1-1 1 20.7 20.7 0 0 1-1.6 1.3l-1.4 1.2a12.4 12.4 0 0 1-1 1 12.2 12.2 0 0 0-1 .8L93 164a7 7 0 0 0-.7 1zm9-8.3l-1 1.6-.7 1c-.5.6-1.4 1-2 1.7A4.6 4.6 0 0 1 97 162l-1.3 1a11.4 11.4 0 0 0-1.2 1 3 3 0 0 0-1 .5l2-1a13.4 13.4 0 0 0 1.3-1 22 22 0 0 0 1.8-1.2 9.2 9.2 0 0 0 1.2-1.2c.6-.5 1-1.2 1.6-2a3 3 0 0 0 .6-1.5zm-9.3-3a7.8 7.8 0 0 0 2 .4 14.3 14.3 0 0 0 3.2.3l1.6.2h1.7a8.7 8.7 0 0 0 1.7-.2c-.4 0-1 0-1.3-.2h-2l-3-.3h-2zm6.2 1.3c-1 0-2 0-3-.2a3.4 3.4 0 0 1-1 0 2.2 2.2 0 0 1-.6-.2c-.6-.2-1.2-.2-1.8-.5a5.6 5.6 0 0 0-1.7-.3 7.3 7.3 0 0 0 3 1.4 13.5 13.5 0 0 0 2.7.4 27.8 27.8 0 0 0 3 0 23 23 0 0 0 3-.5 11.8 11.8 0 0 0-1.5 0 16.2 16.2 0 0 1-2.3-.2zM9.8 81.6l3.3 2a5.5 5.5 0 0 1-.4-.8l-.8-1.4-.5-1.4a10.7 10.7 0 0 1-.3-1.5A12 12 0 0 0 9.5 77c-.4-.5-.7-1.3-1-2a10.6 10.6 0 0 1-1-2.2c-.5-1-.5-2.2-.8-3.3l-.3-2.2a10.4 10.4 0 0 1 0-1.8v-1.2a1 1 0 0 1 .6-.5 2.6 2.6 0 0 1 .5 1l.7 2 .4 1c0 .5.2.8.3 1.2 0 .6.3 1 .5 1.7L10 72l.3 1.2.3 1.3a9.7 9.7 0 0 1 0-1.4l.5-2a6 6 0 0 1 .5-1 3 3 0 0 0 0-.6 9 9 0 0 1 0-2.7 10.2 10.2 0 0 1 .5-2.5l.6-2 .5-1 .6-1a19.8 19.8 0 0 1 1.3-2.4 4.2 4.2 0 0 0 .3-.6 1.3 1.3 0 0 1 .5-.6c.2 0 .3 0 .5.2 0 .5 0 1-.3 1.4 0 .7-.4 1.3-.6 2l-.6 1.8-.5 2-.7 1.8a15.8 15.8 0 0 1 1.6-2 3.7 3.7 0 0 0 .6-.7l.3-.7a5.5 5.5 0 0 1 .4-.7A18.3 18.3 0 0 1 19 58l1-1.2 1.4-1.3c.7-.7 1.6-1.2 2.3-2l.5.3A3.3 3.3 0 0 1 24 55a10.3 10.3 0 0 1-1.3 1.7l-1 1.3a14.3 14.3 0 0 1-1.3 1.3 9 9 0 0 0-.7.7 5.3 5.3 0 0 1-.7.7 11.6 11.6 0 0 1 2.5-.7 1.5 1.5 0 0 0 .8-.3 11.8 11.8 0 0 1 3-1.5 5.4 5.4 0 0 1 1.4-.3 6.5 6.5 0 0 1 2.5 0 5.5 5.5 0 0 1 1.4.3 2.2 2.2 0 0 0 .6 0 3 3 0 0 1 .4.2c0 .6-.8.8-1.2 1a4.6 4.6 0 0 1-1 .7c-.3 0-.6.3-1 .4a11.4 11.4 0 0 1-1.5.5 7 7 0 0 1-1.6 0 5.6 5.6 0 0 1-1 .2l-1-.3-1-.2s-.4-.4-.7-.4a7 7 0 0 0-1.3.3 8.5 8.5 0 0 0-1.2.5c-.4 0-.7.2-1 .4a2.8 2.8 0 0 0-1 .7l-.5.7-.7.4a8.5 8.5 0 0 0-1 1 12.6 12.6 0 0 1 2.4-1c.6 0 1-.3 1.6-.4l1.5-.4a16 16 0 0 1 3.3-.4c.4 0 .6.3.8.6a4 4 0 0 1-1.6 1 8.8 8.8 0 0 1-1 .6c-1 .2-1.8 1-2.6 1a9.7 9.7 0 0 0-2.3.5c-.4 0-.8.3-1.3.3l-1 .2a11.6 11.6 0 0 0-1.4.4 6.3 6.3 0 0 1-.7 1 18.7 18.7 0 0 0-1 3.4A13 13 0 0 0 11 76a4.4 4.4 0 0 1 0 1 8.4 8.4 0 0 0 .3 1.3 24.6 24.6 0 0 1 .7-2.7l.8-2a15.5 15.5 0 0 1 1.5-2.8A11 11 0 0 1 16 69c.7-.6 1.6-.8 2.3-1.4l.3.2a5.7 5.7 0 0 1 0 .7 5.7 5.7 0 0 1-.6 1.3l-1.8 3.4a7.2 7.2 0 0 1-.5 1l-1.2 2.3a17.8 17.8 0 0 1-1.2 2l-.8 1.5-.4.3A7.3 7.3 0 0 0 13 82a8.8 8.8 0 0 1 .7 1 16 16 0 0 0 1.6 2.2 8.5 8.5 0 0 1 .2-2.7c0-.5.2-1 .3-1.4l.3-1a7.6 7.6 0 0 1 .2-1l.8-2a12 12 0 0 1 .8-1.8 11.8 11.8 0 0 1 1-1.5 2.6 2.6 0 0 1 .3-.3l.2.2a3 3 0 0 1 0 2l-.6 1.3a12 12 0 0 0-.3 1c0 .7-.2 1.3-.3 1.8l-.5 2a5.4 5.4 0 0 1-.3 1.2 13.3 13.3 0 0 0-.6 1.5c0 .4-.3.8-.5 1.2 0 .2 0 .2-.2.3.6.5 1.2 1 2 1.3.2.3.6.3 1 .6a5 5 0 0 0 1.2.3 5.7 5.7 0 0 0 1.2.4 9 9 0 0 1-.6-.8l-.5-1.2a12.4 12.4 0 0 1-.5-2 20.3 20.3 0 0 1-.5-2 22 22 0 0 0 0-2.5l.4-.4c.5 0 .7.6 1 1a5.3 5.3 0 0 1 .4 1.2l.3 1.6.6 2.2.4 1.7a6.4 6.4 0 0 1 .4 1 5.8 5.8 0 0 0 1.5.2 7.7 7.7 0 0 0 1-.2 12 12 0 0 0 1.4-.3h.6v.7h-.4a3.8 3.8 0 0 1-1.3.2c-.2 0-.4 0-.6.2a4.6 4.6 0 0 0-.5 0c-.3.3-.5.7-1 1l-1 .8-1.8 1.2-1.2.7s-.7.3-1 .2a1.7 1.7 0 0 1-1-.5 3 3 0 0 1-.3-.7 1.8 1.8 0 0 1 .5-.6L19 91l1-.6a3 3 0 0 0 .7-.3 9.6 9.6 0 0 1 1.8-.5c-.7 0-1.4-.3-2-.4a4.7 4.7 0 0 1-1.4-.3 3.4 3.4 0 0 0-.5 0 1.7 1.7 0 0 1-.3-.4 7.3 7.3 0 0 1-1 .5 18.6 18.6 0 0 1-2.2.6 7.2 7.2 0 0 1-.6.3 13.5 13.5 0 0 1-1.8.4l-2 .4a8 8 0 0 0-.7-.4 4 4 0 0 1-.3-.5 4.4 4.4 0 0 1 1-1 18.6 18.6 0 0 1 2.4-.8 8.7 8.7 0 0 1 1.6-.5 6 6 0 0 1 1.8 0l-1-.6a10.7 10.7 0 0 1-1-1.3 1.3 1.3 0 0 1-.5.5 1.7 1.7 0 0 1-1 .2 2.7 2.7 0 0 1-1.2 0l-1.7-.6A18.7 18.7 0 0 1 7.7 84a9 9 0 0 1-2.3-1.7 5.5 5.5 0 0 1-1-1.8A2.3 2.3 0 0 1 4 80a2 2 0 0 1 .6-.2l1.2.3a15.7 15.7 0 0 1 2 .6c.3 0 .6.3.8.5a12.7 12.7 0 0 1 1.2.6zm8 10.5c-.2.2 0 .4.2.2s-.2-.3-.3 0zm4.7-1.5a7.3 7.3 0 0 0-1.4.8 5.4 5.4 0 0 1-1.4.6 4.2 4.2 0 0 0-1 .4c-.3 0-.3.3-.4.5a2 2 0 0 0 1.4-.6l.8-.4 2-1.5zm.2-.6c-.7 0-1.4.4-2 .6a15.7 15.7 0 0 0-1.8 1 4.7 4.7 0 0 0-1 .4c.5 0 1-.3 1.3-.5a3 3 0 0 0 1.2-.4c.7-.4 1.5-.6 2-1zM21 87.6a3.4 3.4 0 0 0-.3-1c-.4-1-.4-2.3-1-3.4a6 6 0 0 0-.4-1.5 8 8 0 0 0 0 1.3 15 15 0 0 0 .6 2.3c0 .7.5 1.2.7 2a2 2 0 0 0 .3.4zm.3-.8c0-.8-.3-1.6-.5-2.4l-.3-1.6a4.7 4.7 0 0 0-.8-2l.3 1.3a10.7 10.7 0 0 1 .4 1.3c0 .6.3 1 .3 1.5s.2 1 .3 1.2a1.8 1.8 0 0 0 .3.8zm-6 1.7a10.2 10.2 0 0 1-1.6.4 2.2 2.2 0 0 0-1 .5 5 5 0 0 0 1.4-.3 6 6 0 0 0 1.2-.5zm1.5-1h-1.6a7.4 7.4 0 0 0-2.8.7 3.5 3.5 0 0 0-2 1c.5 0 1 0 1.4-.2a7.8 7.8 0 0 0 1-.5c.7-.2 1.3 0 2-.3l2-.7zm1-9.6c0 .5 0 1-.3 1.3s-.2.5-.3.7l-.2.8-.4 1.5a5.3 5.3 0 0 0-.4 1.5 9.8 9.8 0 0 0 .7-1.5c0-.4 0-.8.2-1.2l.7-2.8zm-2.3 6.7v.2A6.4 6.4 0 0 1 16 83c0-.6.2-1 .3-1.7s.4-1 .5-1.3a24.6 24.6 0 0 1 .7-2.5 17.5 17.5 0 0 1 1-3.3 9 9 0 0 0-.8 1.4 12 12 0 0 0-.6 1.5 28.6 28.6 0 0 0-1 3.8 11 11 0 0 0-.5 3.7zm0-19.8c1-.5 2-.7 2.8-1l2-.7a13 13 0 0 0 2.2-.5 8.4 8.4 0 0 0-1.4.2 23.5 23.5 0 0 0-4.4 1.3 6.7 6.7 0 0 0-1 .6zm-.6 1a8.3 8.3 0 0 0 1.4-.3l1.7-.5a9.2 9.2 0 0 0 2.3-.6 23.7 23.7 0 0 0 3-1.4l-1 .4c-.7.2-1.4 0-2 .4s-1.4.4-2 .6a9.7 9.7 0 0 1-1 .3 6.3 6.3 0 0 0-2.4 1zm15-6.7h-1a8 8 0 0 0-.8 0 6 6 0 0 1-1.3.3c-1 0-2 .4-3 .6a3.5 3.5 0 0 0-.4.2 9.4 9.4 0 0 0 2 .2 5.7 5.7 0 0 0 1.8-.2 5 5 0 0 0 1.6-.6l1-.5zm-7.2.7a14 14 0 0 1 1.8-.5c1 0 2-.6 3-.6a4 4 0 0 0 1-.2H30a3.2 3.2 0 0 0-1-.3l-2.3-.2a5.2 5.2 0 0 0-1.3.2 8.8 8.8 0 0 0-3 1.5zm-1.3-2.7a21.6 21.6 0 0 0-2 1.8 15.4 15.4 0 0 0-1.3 1.6 13.5 13.5 0 0 0 1.2-1 16 16 0 0 0 2.2-2.4 2.7 2.7 0 0 0 .4-.4 10.3 10.3 0 0 0 1-1.4 10.6 10.6 0 0 0-1.5 2zM17.3 61l1.5-1.7 1.5-1.6 1-.8a7 7 0 0 0 .8-1.3l.8-.5a4.4 4.4 0 0 0 .3-.7 34.2 34.2 0 0 0-3 3 15.2 15.2 0 0 0-1.6 1.6 14 14 0 0 0-1 2zm-5.5 6.8c.2-.8.4-1.5.4-2.2a4.2 4.2 0 0 1 .3-1 11.5 11.5 0 0 0 .2-1 11.2 11.2 0 0 0-.6 2 6.5 6.5 0 0 0-.2 2.2zM7 65.5a8.6 8.6 0 0 1 .4 1c0 1 .5 2.2.7 3.3a6 6 0 0 0 .4 1.6 9.6 9.6 0 0 1 .5 1.2c0 .7.3 1.3.6 2l1 1.5A6 6 0 0 1 10 75c0-.7-.3-1.3-.4-2S9.2 71.5 9 71l-.8-2.7-.8-2.3a7.7 7.7 0 0 0-.6-1v.4zm3.6 11.8a19 19 0 0 1-1-1.7c0-.3-.3-.6-.4-1-.4-.8-.5-1.7-1-2.5a4.5 4.5 0 0 1-.5-1.7l-.3-1.5-.5-1.6a3.2 3.2 0 0 0-.3-1 18 18 0 0 0 .2 2c0 .6 0 1 .2 1.6a18.8 18.8 0 0 0 .4 2.2 10.2 10.2 0 0 0 .6 1.6L9.4 76a3.3 3.3 0 0 0 1.2 1.3zm2-12a12.8 12.8 0 0 0 0 1.7 11.8 11.8 0 0 0 .6-1.6l.6-1.6.4-1.3.6-1.8.6-2a11.2 11.2 0 0 0-1.7 3.3 8.7 8.7 0 0 0-.5 1.6c0 .6-.4 1-.5 1.7zm4.5 5.2a7 7 0 0 0-1 1.4 11.2 11.2 0 0 0-1.7 2.6l-.8 1.4a22 22 0 0 0-1.2 3c.3-.2.5-.6.7-1l1-1.6 1.4-2.5.4-1c0-.3.3-.6.5-.8l.8-1.7zm-4.6 6.8c0-.3.3-.7.5-1l.5-1 1.3-2.5a3 3 0 0 1 .5-.7 2 2 0 0 1 .3-.5l1-1.3a5.4 5.4 0 0 0 1-1.4 5.2 5.2 0 0 0-1.3 1 9.3 9.3 0 0 0-1.2 1 14 14 0 0 0-1.2 2.4c-.4.8-.8 1.7-1 2.5a19.2 19.2 0 0 0-1 3 8.8 8.8 0 0 0 .6-1.4zm1 7.8c-.3 0-.7-.3-1-.4l-1-.6c-.5-.3-1-.4-1.6-.6a6.6 6.6 0 0 0-1.3-.5 15 15 0 0 0-1.7-.8 3 3 0 0 1-1-.4 10.6 10.6 0 0 0 2 1.6l2.2 1.2a8 8 0 0 0 2.4.7 2.3 2.3 0 0 0 1-.2zM11 83a25.5 25.5 0 0 0-3-1.6 5.2 5.2 0 0 0-2.6-.7 3.8 3.8 0 0 0 1.6 1 5 5 0 0 1 1.2.4c.6.4 1.3.4 1.8.8s1 .4 1.6.7a10 10 0 0 0 1.6 1 12 12 0 0 0-1.6-1c-.2-.3-.4-.5-.7-.6zM19.2 37a3.3 3.3 0 0 1 0-.7l.7.6a14.5 14.5 0 0 0 2.2 4 7.7 7.7 0 0 0 1.8 1.7 2.4 2.4 0 0 0 1 .3l-.7-1-.5-1a16 16 0 0 0-1-1.2 6.2 6.2 0 0 0-1-1c-.4-.3-.7-1-1.2-1.3a2.4 2.4 0 0 1-.6-.6l2.7 2a3 3 0 0 1 .5.5c.3.4.8.8 1 1.3a9.2 9.2 0 0 0 1 1.5 10 10 0 0 0-.8-1.6L24 40l-.2-.3 1.2.8.6 1V41l.7.4a17 17 0 0 0 .3 2.5 16.5 16.5 0 0 1 1-1.7l.3.3-.8 1v.3a9.2 9.2 0 0 1 1-1.2l.3.3-.2.3.3-.2.4.4a5 5 0 0 0-.7.5l-1 .8h-.5c.3.8.6 1.5 1 2 .2.5.5.8.7 1a5 5 0 0 0 .8 1 5.6 5.6 0 0 0 1 1 8.4 8.4 0 0 1-.2-1l.2-1a9.5 9.5 0 0 1 .4-2l.3-1 .2.2-.3 1.2c-.4.7-.3 1.4-.5 2a2 2 0 0 0 0 .7 3.2 3.2 0 0 0 .3-1.2 19.6 19.6 0 0 1 .8-2.5l.3.2a8.6 8.6 0 0 1-.4 1 11.2 11.2 0 0 0-.3 1 2 2 0 0 0-.2 1l1-2.4a5 5 0 0 0 0-.3l.5.2c-.3.5-.4 1-.6 1.7l-.7 1.7a6.4 6.4 0 0 1-.3 1.2 6 6 0 0 0 1.2.8 8 8 0 0 0 1.2.5 12.4 12.4 0 0 0 1.3.3c.2 0 .3.2.5.4l-.5.5-.2-.2a3.8 3.8 0 0 1-1.2-.5h-.6a4.5 4.5 0 0 0-.6-.2 10 10 0 0 1-1 .2l-1.6.2-2 .3H26s-.8 0-1-.4a1.7 1.7 0 0 1-.5-.8 2.5 2.5 0 0 1 0-.8 2 2 0 0 1 .8-.3H27c.5 0 1 0 1.4.2a3 3 0 0 0 .6 0 9.3 9.3 0 0 1 2 .3c-.7-.4-1.2-1-1.8-1.4a4.5 4.5 0 0 1-1-1 3.2 3.2 0 0 0-.4-.5 1.6 1.6 0 0 1 0-.4 8 8 0 0 1-1.3 0 22 22 0 0 1-2.2-.4 7.5 7.5 0 0 1-.7 0 14.3 14.3 0 0 1-1.8-.6c-.7 0-1.2-.4-2-.6a7.3 7.3 0 0 0-.4-.7 4 4 0 0 1 0-.4 4.4 4.4 0 0 1 1.5-.5 19 19 0 0 1 2.5.3 9 9 0 0 1 1.6.5 5.7 5.7 0 0 1 1.6.8c0-.4-.2-.7-.4-1a8.8 8.8 0 0 1-.4-1.7 1.5 1.5 0 0 1-.7.3 1.7 1.7 0 0 1-.7-.4c-.3-.2-.8-.2-1-.5L21.8 42a17 17 0 0 1-1.5-2.3 8.7 8.7 0 0 1-1.3-2.5zm6 14.2s0 .3.2.2V51zm5 1a7.5 7.5 0 0 0-1.5 0 5.7 5.7 0 0 1-1.7-.3 4.3 4.3 0 0 0-1.2-.3c-.2 0-.3.2-.5.4a2 2 0 0 0 1.4.3h1c1 0 1.7 0 2.6-.2zm.6-.5l-2.2-.5a16 16 0 0 0-2 0 5 5 0 0 0-1 0H27a3 3 0 0 0 1.3.5h2.4zm-6-4.7a11.2 11.2 0 0 1-1.5-.3 2.3 2.3 0 0 0-1.2-.2 5 5 0 0 0 1.6.5 6.8 6.8 0 0 0 1.2 0zm2 0l-1.5-1a7.6 7.6 0 0 0-2.8-.4 3.6 3.6 0 0 0-2.3 0c.5 0 1 .2 1.4.3a9.3 9.3 0 0 0 1.2 0c.6 0 1 .4 1.8.5l2 .5zM23.6 114.4a3 3 0 0 0 0 .5 10 10 0 0 0 .2 1.7 17 17 0 0 0 .5 1.8 11.4 11.4 0 0 0 .4 1l.5 1.2 1 2 .8 1.2a6.5 6.5 0 0 0 .4.7l.4-.3a12.3 12.3 0 0 1-1.3-2l-1-2-.7-1.7a12.2 12.2 0 0 1-.8-3.3 21 21 0 0 0 1.4 3.3 23 23 0 0 0 1.2 2.3l.5 1.4 1 1.6v.3l.5-.3a5.4 5.4 0 0 1-.7-1 26.6 26.6 0 0 1-1.3-3l-.5-1.2 1.5 2.6.5 1.2a5.3 5.3 0 0 1 .5 1.3l.4-.4a6.3 6.3 0 0 0-.3-.7 5.6 5.6 0 0 0-.6-1.3c-.2-.5-.5-1.2-1-1.7s-.5-1-.8-1.6l-1-2.4a3.3 3.3 0 0 0-1.2-1.7zM19.8 130h.2l2.8-2a7.7 7.7 0 0 1-1 .6 4.7 4.7 0 0 0-1.3.5 3.5 3.5 0 0 1-1.6.6 5 5 0 0 1 2-1.4c1-.3 2-.6 2.8-1l1.2-.7-2.5.6a11.4 11.4 0 0 0-1.2.5l-1 .3a14 14 0 0 0-1.6 1l-1 .7a2 2 0 0 0-.3.5 2.2 2.2 0 0 0 .5.4 7 7 0 0 0 1 .4l1-.7zM30.4 121.4a8 8 0 0 1-1-1c.6.2 1 .6 1.4 1a4.7 4.7 0 0 1 .7.3l.4-.3-.5-.3a9.4 9.4 0 0 0-1.2-.6c-.4-.3-.8-.5-1-.8a5.3 5.3 0 0 1 2 1l.8.7.4-.2-.3-.2c-.3-.4-.7-.7-1.2-1a6.3 6.3 0 0 0-1-.6 1.7 1.7 0 0 0-1.5-.2v.6a3.8 3.8 0 0 1 .8 1 5.6 5.6 0 0 0 1 1c.2 0 .5.4 1 .6l.2-.2a6 6 0 0 1-.8-.6z"/><path class="cls-2" d="M26.2 125.5l-.7.5h-.2l-1.5-.6-1.3-.7a13 13 0 0 1-1.3-1 10.7 10.7 0 0 0-2 .2l-1-.5-1-.5a9.8 9.8 0 0 1-2.4-1c-1-.4-1.7-1.3-2.6-1.8l-1.8-1.5a10 10 0 0 1-1.2-1.2l-.7-1a1.3 1.3 0 0 1 0-.8 2.4 2.4 0 0 1 1 .3l4 2.2 1.4.8 2 1.4 1.3.7a10 10 0 0 1-1-1l-1-2a6.6 6.6 0 0 1-.5-1c0-.2-.3-.2-.5-.4a10.6 10.6 0 0 1-1.7-2 11.2 11.2 0 0 1-.7-1.2 13.6 13.6 0 0 1-.6-1.2l-1-2-.4-1.2-.2-1-.4-1.4a9.3 9.3 0 0 1-.3-1.4 4.7 4.7 0 0 0 0-.7 1.4 1.4 0 0 1 0-1h.5l.7 1.2 1 2 .7 1.8.3 1 .5 1c.3.4.5 1 .7 1.7a21.7 21.7 0 0 1-.2-2.6 5.4 5.4 0 0 0 0-1l-.5-1.6a20.4 20.4 0 0 1-.6-4.4v-2-2c0-1 .5-2 .4-3l.6-.3a3 3 0 0 1 .6 1.3l.2 1a9.5 9.5 0 0 1 0 1.2l.2 3.6v2a14.3 14.3 0 0 1 1.2-2.3 1.6 1.6 0 0 0 .4-.6 13 13 0 0 1 1-3.3 5.3 5.3 0 0 1 1-1.2 6.6 6.6 0 0 1 2-1.7 5.4 5.4 0 0 1 1-.7 2.2 2.2 0 0 0 .6-.4 2.6 2.6 0 0 1 .5-.2c.2.5 0 1-.3 1.7a6.6 6.6 0 0 1-.3 1c0 .5-.2 1-.4 1.2a12 12 0 0 1-1 1.5c-.2.4-.7.7-1 1a5.5 5.5 0 0 1-.7.8l-.8.5-1 .6s-.4 0-.6.3a8.3 8.3 0 0 0-1 1 9.6 9.6 0 0 0-.4 1.3l-.6 1.2a3 3 0 0 0 0 1v1l-.2 1a8.5 8.5 0 0 0 0 1.3 12 12 0 0 1 1-2.3c.4-.4.6-1 1-1.5l.7-1.3a15.2 15.2 0 0 1 2.2-3h1a5 5 0 0 1-.5 2 7.8 7.8 0 0 1-.5 1.3c-.5.8-.6 1.8-1 2.6a10 10 0 0 0-1.4 2l-.8 1.2-.6 1a11.3 11.3 0 0 0-.8 1.2 7 7 0 0 1 .3 1.4l.6 1.7a12 12 0 0 0 1 1.7 13.4 13.4 0 0 0 1.3 2 14.2 14.2 0 0 0 1.5 1.7 5.8 5.8 0 0 1 .7.5 8.4 8.4 0 0 0 1 1 20.7 20.7 0 0 1-1.2-2.6c-.4-.8-.6-1.5-.8-2.2a22 22 0 0 1-1-3.3 12 12 0 0 1 0-2.4 17 17 0 0 1 .7-2.7h.5c0 .2.2.3.4.5a6.2 6.2 0 0 1 .4 1.5l.4 2 .6 2a8 8 0 0 1 .3 1c.4 1.7 1 3.4 1.2 5 0 .6 0 1 .2 1.6a1 1 0 0 1 0 .5 6.7 6.7 0 0 0 1.6.7 8.4 8.4 0 0 1 1.4.4zM15.4 110c.4-.8 1-1.6 1.3-2.5l1-2a13.6 13.6 0 0 0 1.3-1.8 8 8 0 0 0-.8 1 25.8 25.8 0 0 0-2.4 4.3 7.4 7.4 0 0 0-.4 1.2zm.2 1.4a8.5 8.5 0 0 0 1-1.3l.8-1.4a11 11 0 0 0 1.3-2 21 21 0 0 0 1.2-3.2l-.7 1c-.3.6-.8 1-1 1.6s-1 1.4-1.3 2a10.3 10.3 0 0 1-.5 1 7 7 0 0 0-1 2.4zm6-15.2c-.2.3-.5.4-.6.7a5.7 5.7 0 0 1-.8 1c-.7.7-1 1.6-1.7 2.5a3.7 3.7 0 0 0-.2.4 10.2 10.2 0 0 0 1.5-1.3 6 6 0 0 0 1.3-1.5 4.8 4.8 0 0 0 .8-1.6c0-.4.3-.7.4-1-.2 0-.4.3-.6.6zm-4.2 5a12.3 12.3 0 0 1 1-1.7c.7-.8 1-2 2-2.7a4.7 4.7 0 0 0 .4-.6c.3-.5.8-1 1.2-1.3a3 3 0 0 0-1 .5 21 21 0 0 0-1.7 1.5 5.2 5.2 0 0 0-.8 1 9.6 9.6 0 0 0-1 3.2zm-3-3.8a11.6 11.6 0 0 0 .3 2.6 8.7 8.7 0 0 0-.2 1.4v3.4a13.2 13.2 0 0 0 .2-1.5v-1.7a13 13 0 0 0 0-1.7 2.5 2.5 0 0 0 0-.7 14.8 14.8 0 0 0 0-1.8zM14 106v-4.8-1.3a8 8 0 0 0 0-1.6v-1a5 5 0 0 0 0-.7 9 9 0 0 0-.2 1.2v1a23.3 23.3 0 0 1-.2 2.5 15.4 15.4 0 0 0 0 2.2 13 13 0 0 0 .4 2.3zm.6 9l-1.2-2a6 6 0 0 1-.4-.7 12.2 12.2 0 0 0-.6-1 16 16 0 0 0 1 2 6.6 6.6 0 0 0 1.3 1.8zm-1.2-4.4l-.7-1.2-1.6-3.8a12.2 12.2 0 0 0 1 3.7 7.4 7.4 0 0 0 .7 1.6c.4.4.6 1 1 1.5a9.4 9.4 0 0 0 1 1.5c-.4-1.2-1-2.3-1.3-3.4zm-4 6.4l.4-.2a8 8 0 0 1 .8.6c1 .8 2 1.2 2.8 2a5.8 5.8 0 0 0 1.3 1 8 8 0 0 1 1 .5l2 .8 1.6.6a6.6 6.6 0 0 1-1.2-.7l-1.6-1.2-1.6-1c-.8-.3-1.5-1-2.3-1.3s-1.4-.8-2-1a7 7 0 0 0-1.3-.6zm10.8 6a15.7 15.7 0 0 1-2-.4l-1-.4c-.7-.3-1.4-1-2.2-1.2a4.5 4.5 0 0 1-1.6-1c-.4-.3-.8-.5-1.2-1a15.4 15.4 0 0 0-1.4-.7c-.3-.3-.6-.6-1-.7a18 18 0 0 0 1.7 1.5l1.2 1a19.8 19.8 0 0 0 1.8 1.4 9.4 9.4 0 0 0 1.5.8l2.4.8a3 3 0 0 0 1.8.2zm0-9.7a6.4 6.4 0 0 0 .2 2c0 .5 0 1 .2 1.6a8.3 8.3 0 0 0 .4 1.5l.4 1.7a18.7 18.7 0 0 0 1.3 3.2c0-.5-.2-1-.3-1.4v-1l-.3-1c0-1-.5-1.8-.7-2.8l-.5-2-.5-2zm.6 6.3c0-.4-.2-1-.4-1.4s-.2-1-.3-1.4a3.4 3.4 0 0 1 0-1 2.3 2.3 0 0 1-.2-.6 17.8 17.8 0 0 1 0-1.8 5 5 0 0 0-.3-1.7 7.5 7.5 0 0 0-.4 3.3 18.7 18.7 0 0 0 .6 2.8l1 2.7a10.3 10.3 0 0 0 .6 1.4l.8 1.2a9.4 9.4 0 0 0-.6-1.3 13.6 13.6 0 0 1-.6-2.3zM63 12.2c-.3.6-.4 1.3-.5 2L62 16a6.7 6.7 0 0 1 .6-.7c.4-.4.7-1 1.2-1.2s.7-.5 1-.8a9.5 9.5 0 0 1 1.5-.8 11.7 11.7 0 0 0 .8-1.8L69 9A10.6 10.6 0 0 1 70.6 7a11.8 11.8 0 0 1 1.4-.8 14.3 14.3 0 0 0 1.4-.8l2-1a8.3 8.3 0 0 1 1.8-.6c.4 0 .8 0 1.2-.2a1 1 0 0 1 .7.4 2.6 2.6 0 0 1-.6.7c-.7.3-1.3.8-2 1.2l-1.7 1.4-1.5 1-2 1.5c-.5.4-1 .6-1.2 1a9.7 9.7 0 0 1 1.3-.5c.7 0 1.4 0 2-.2a6 6 0 0 1 1.3 0c.2 0 .4-.2.5-.3a10.2 10.2 0 0 1 1.3-.5 9.4 9.4 0 0 1 1.3-.3 12.5 12.5 0 0 1 2.7-.2h3.3a6.8 6.8 0 0 1 1 .3 24.3 24.3 0 0 1 2.6.4 4.2 4.2 0 0 0 .7.2 1.3 1.3 0 0 1 .7 0v.7L87 11a17 17 0 0 1-2.2 0h-6c.5 0 1 .2 1.3.4a7.4 7.4 0 0 1 1 .5 3.7 3.7 0 0 0 1 .2c.6 0 1 0 1.6.2a21.4 21.4 0 0 1 4 1.2l3.2 1.6c1 .5 1.7 1.2 2.6 1.5v.7a3 3 0 0 1-1.4 0 13 13 0 0 1-2-.5 29.7 29.7 0 0 1-3-1.5c-.7-.3-1.4-.5-2-1a13 13 0 0 1 1.6 2.2 1.5 1.5 0 0 0 .5.6 12.8 12.8 0 0 1 2.3 2.4 5 5 0 0 1 1 1.3 6.6 6.6 0 0 1 .5 2.4 5.6 5.6 0 0 1 .3 1.4 2.3 2.3 0 0 0 0 .6 3 3 0 0 1 0 .5c-.6 0-1-.6-1.4-1a4.8 4.8 0 0 1-.8-.6c-.3-.3-.6-.5-.8-1a11.7 11.7 0 0 1-1-1.2 7.3 7.3 0 0 1-.4-1.4 5.3 5.3 0 0 1-.4-1v-1l-.2-1s.2-.5 0-.7a7.7 7.7 0 0 0-.6-1 8.6 8.6 0 0 0-.8-1l-.7-1a2.5 2.5 0 0 0-1-.6c-.2 0-.5 0-.8-.2l-.6-.5A8.5 8.5 0 0 0 81 12a12.8 12.8 0 0 1 1.7 2c.2.5.6 1 1 1.3s.5 1 .7 1.3a16.4 16.4 0 0 1 1.5 3c0 .4-.2.7-.4 1a4.2 4.2 0 0 1-1.5-1.2 7 7 0 0 1-.8-1c-.5-.6-1.3-1.2-1.8-2a9 9 0 0 0-1.2-2c-.2-.4-.6-.7-.7-1.2s-.4-.6-.6-1a11.7 11.7 0 0 0-.7-1 6.3 6.3 0 0 1-1.3-.4 23 23 0 0 0-3.6 0 16.6 16.6 0 0 0-2.3.3 10.5 10.5 0 0 0-2 1 4.4 4.4 0 0 1-.8.3 8.4 8.4 0 0 0-1.4.6c1-.2 1.8-.3 2.8-.3.7 0 1.4 0 2 .2a14 14 0 0 1 1.7 0l1.7.4a12.5 12.5 0 0 1 2 1c1 .4 1.4 1.2 2.2 1.7l-.3.5a5.6 5.6 0 0 1-.5.2 7.3 7.3 0 0 1-1.5-.3l-2-.4-1.8-.3a7.3 7.3 0 0 1-1.3 0c-1.6-.6-3.3-.7-5-1a12 12 0 0 0-1.4-.4 1 1 0 0 1-.4-.3 7.2 7.2 0 0 0-1.4 1 12 12 0 0 1-1 1.2 18.6 18.6 0 0 0-1.5 2.2 10.3 10.3 0 0 1 2.7-.8H65a19.3 19.3 0 0 1 2.3-.2h3.2a5 5 0 0 1 .8.3 12 12 0 0 1 1.7.4 2.6 2.6 0 0 1 .4.4v.4a3 3 0 0 1-2 .4h-1.2a12 12 0 0 0-1.3 0c-.7 0-1.3.2-1.8.3l-2 .2a6.7 6.7 0 0 1-1.3 0h-3c-.2 0-.3-.2-.4-.3l-.7 2.2c-.2.4 0 .8-.2 1.2a5 5 0 0 0 0 1.2 5.6 5.6 0 0 0 0 1.3 8.8 8.8 0 0 1 .5-.8l1-.8a6 6 0 0 1 .7-.7l.8-.6 2-1a24.3 24.3 0 0 0 2.2-1l.5.5c0 .3-.4.7-.7 1a5.3 5.3 0 0 1-1 1c-.5 0-1 .4-1.4.7a21.3 21.3 0 0 0-2 1 17.7 17.7 0 0 1-1.5 1 6.8 6.8 0 0 1-1 .7A6 6 0 0 0 60 28a7.6 7.6 0 0 0 .6 1 11.7 11.7 0 0 0 .7 1.2v.6H61v-.3a3.7 3.7 0 0 1-.7-1.2c0-.2-.3-.3-.4-.4a4.6 4.6 0 0 0-.4-.6 10 10 0 0 1-1-.6c-.4-.3-1-.6-1.2-1s-1.2-.7-1.7-1l-1-1s-.5-.7-.6-1a1.8 1.8 0 0 1 .3-1 2.5 2.5 0 0 1 .6-.6 2 2 0 0 1 .6.4c.5.3.8.8 1.3 1.2 0 .3.5.6.7 1a3 3 0 0 0 .5.4 9.5 9.5 0 0 1 1 1.5c0-.7 0-1.4-.2-2a4.5 4.5 0 0 1 0-1.5 3.3 3.3 0 0 0 0-.6 1.6 1.6 0 0 1 0-.4 7.4 7.4 0 0 1-.7-.8 18.8 18.8 0 0 1-1.3-1.8 7 7 0 0 1-.5-.6 13.3 13.3 0 0 1-.8-1.6l-1-1.7a8.2 8.2 0 0 0 .2-1 3 3 0 0 1 .3 0 4.5 4.5 0 0 1 1.3.5 18.7 18.7 0 0 1 1.5 2 8.7 8.7 0 0 1 1 1.3 6 6 0 0 1 .5 1.7l.4-1a9 9 0 0 1 .8-1.6 1.3 1.3 0 0 1-.7-.3 1.7 1.7 0 0 1-.2-.7c-.2-.4-.5-.7-.5-1.2v-1.8A18.4 18.4 0 0 1 60 11a9.4 9.4 0 0 1 .8-3 5.5 5.5 0 0 1 1.4-1.5 2.3 2.3 0 0 1 .4-.3 2 2 0 0 1 .4.5V8a15.6 15.6 0 0 1 .2 2l-.2 1a12.6 12.6 0 0 1 0 1.2zM55.3 23c-.2 0-.3.2 0 .3V23zm3 4a7.4 7.4 0 0 0-1.2-1 5.5 5.5 0 0 1-1-1.2 4.2 4.2 0 0 0-1-1H55a2 2 0 0 0 .8 1l.7.8 2 1.4zm.6 0c-.4-.6-1-1.2-1.3-1.8a16 16 0 0 0-1.4-1.2 4.8 4.8 0 0 0-.7-.7l.8 1a3 3 0 0 0 .8 1c.6.6 1 1.2 1.8 1.7zm1.6-2.3a3.2 3.2 0 0 0 1-.6 5.6 5.6 0 0 1 .6-.4l.7-.4a7 7 0 0 0 1.4-1c.4-.4 1-.5 1.3-1a6 6 0 0 0-1.2.6 20.6 20.6 0 0 0-2 1.2c-.5.3-1 1-1.5 1.3a2 2 0 0 0-.4.5zm.8 0a10.2 10.2 0 0 0 1-.5l1-.6 1.4-.8a5 5 0 0 0 1.7-1.4l-1.2.7a14.4 14.4 0 0 1-1.2 1l-1.2.7a7 7 0 0 0-1 .6 2 2 0 0 0-.4.5zm-3.6-5.2a10.3 10.3 0 0 1-1-1.3 2.2 2.2 0 0 0-.5-1 5 5 0 0 0 .7 1.5 6 6 0 0 0 .8 1zm1.4 1.3l-.4-1.7a7.4 7.4 0 0 0-1.6-2.2 3.5 3.5 0 0 0-1.6-1.5l.7 1a8 8 0 0 0 .8 1l1 1.6s.7 1.3 1.2 1.8zm9.5-2h-4.3a5.3 5.3 0 0 0-1.6.2 10 10 0 0 0 1.6 0h4.3zm-7-.2h-.2a7.4 7.4 0 0 1 1.8 0c.5-.2 1-.2 1.7-.2h1.4a17 17 0 0 1 2.6 0h1.8a8 8 0 0 1 1.7 0A9 9 0 0 0 71 18a14.8 14.8 0 0 0-1.7-.2h-4a9.6 9.6 0 0 0-1.8.3 17.3 17.3 0 0 0-1.8.6zm19-6l1.6 2.3c.4.5 1 1 1.3 1.5a14 14 0 0 0 1 2 8.5 8.5 0 0 0-.6-1.2 25.7 25.7 0 0 0-2.6-4 6.8 6.8 0 0 0-.8-.7zm-1.2-.4a7.8 7.8 0 0 0 .6 1.4 16 16 0 0 1 1 1.5 9.3 9.3 0 0 0 1.4 2 21.8 21.8 0 0 0 2 2.4c0-.3-.3-.6-.5-1-.5-.4-.6-1-1-1.6l-1.3-2a9.8 9.8 0 0 1-.7-.7 6 6 0 0 0-1.5-1.7zm11 12.4l-.5-.8-.3-1a5.5 5.5 0 0 1-.5-1c-.4-1-1-1.7-1.5-2.5a3.3 3.3 0 0 0-.3-.4 9.5 9.5 0 0 0 .4 1.8 5.8 5.8 0 0 0 .7 1.7 4.5 4.5 0 0 0 1 1.3l1 .8zm-3-6.7a14 14 0 0 1 1 1.5c.4 1 1.2 1.8 1.5 2.8a4 4 0 0 0 .3.7l.7 1.6a3.3 3.3 0 0 0-.2-1 22 22 0 0 0-.5-2.3 5 5 0 0 0-.6-1 9.2 9.2 0 0 0-2.3-2.4zm2-2a18.2 18.2 0 0 0-2.2-1.3c-.6-.4-1.2-.6-1.8-.8a11.5 11.5 0 0 0 1.3.6 21 21 0 0 0 3 1.4h-.2a2.2 2.2 0 0 0 .6.3l.8.3a6.5 6.5 0 0 0 1 .3 9 9 0 0 0-2.4-1zM85 13c1.4.6 2.7 1.2 4 2 .4 0 .7.3 1 .5a8.4 8.4 0 0 0 1.5.4c.3 0 .4.3.7.4a4.4 4.4 0 0 0 .7.2 10.2 10.2 0 0 0-2-1.2 20.3 20.3 0 0 1-2-1 13.2 13.2 0 0 0-4-1.4zm-8-3l2-.4a5.5 5.5 0 0 1 1 0H81a10.8 10.8 0 0 0-2 0 6.5 6.5 0 0 0-2.3.3zm.7-5.3a8.5 8.5 0 0 1-1 .5c-1 .5-1.8 1.3-3 1.8a5.5 5.5 0 0 0-1.3.8 7.3 7.3 0 0 1-1 .8l-1.6 1.2a18 18 0 0 0-1.3 1.4 5.8 5.8 0 0 1 1.2-.8c.6-.4 1-.8 1.8-1s1-1 1.5-1.2L75 6.7a9.7 9.7 0 0 0 1-.8l1-.8a7.6 7.6 0 0 0 1-1l-.5.2zm-10.2 7l1.3-1.5.8-.7c.6-.6 1.5-1 2-1.6a4.4 4.4 0 0 1 1.7-1.2c.6-.2 1-.5 1.4-.8a12.4 12.4 0 0 0 1.4-1 3.6 3.6 0 0 0 1-.5 17.6 17.6 0 0 0-2 1c-.5 0-1 .4-1.4.6l-1 .6-1 .6a10 10 0 0 0-1.4 1l-2 2a3.3 3.3 0 0 0-.7 1.5zm12-1.6a12.7 12.7 0 0 0-1.6.4 11.8 11.8 0 0 0 1.7 0h1c.2 0 .5 0 .7.2s1 0 1.4 0h4a10 10 0 0 0-3.5-.7 8.6 8.6 0 0 0-1.8 0h-1a6.3 6.3 0 0 0-1 0zM75.8 16A7 7 0 0 0 74 15a12.2 12.2 0 0 0-3-.7c-.6 0-1-.3-1.7-.3a23 23 0 0 0-3.3-.2c.4.2 1 .2 1.3.4l1.8.5 3 .5c.6 0 1.2 0 2 .2zm-8-2.4a12.5 12.5 0 0 1 2.2.4l2.8.5a2.7 2.7 0 0 1 1 .2 2 2 0 0 1 .5.2l1.6.6a5.2 5.2 0 0 0 1.5.4 6.5 6.5 0 0 0-2.7-1.7c-.4 0-.8-.3-1.3-.4l-1.3-.2c-1 0-1.8-.2-2.8-.3a23.8 23.8 0 0 0-3 .3 9 9 0 0 0 1.4 0zm-7 3.3v-1l.3-1.2c.2-.6 0-1 .2-1.7a6.8 6.8 0 0 0 0-1.4 16 16 0 0 0 .2-1.8 3 3 0 0 1 0-1 10 10 0 0 0-1 2.3l-.3 2.3a8 8 0 0 0 .2 2.5 2.3 2.3 0 0 0 .5 1zm1.2-3a27.2 27.2 0 0 0 .5-3.2 5.2 5.2 0 0 0 0-2.6 3.7 3.7 0 0 0-.5 1.6 5 5 0 0 1 0 1.3v1.8s0 1.2-.3 1.8a9.7 9.7 0 0 0-.3 1.7 11.2 11.2 0 0 0 .5-1.8v-.8zM108.3 7.4a3.2 3.2 0 0 1 .6-.4l-.4 1a14 14 0 0 0-3.2 3.5 7.8 7.8 0 0 0-1 2.2 2.3 2.3 0 0 0 0 1c0-.2.4-.5.6-.8l.7-1a16.8 16.8 0 0 0 1-1.4 6 6 0 0 0 .6-1c.2-.6.7-1 1-1.7a2.4 2.4 0 0 1 .3-1l-1 3.4a2.8 2.8 0 0 1-.5.6c-.3.5-.5 1-1 1.4a9 9 0 0 0-1 1.4 11 11 0 0 0 1.3-1.3l.5-.6.3-.4-.3 1.4-1 1c.3-.2.5-.3.8-.3l-.3.8c-.4 0-.8.3-1 .4l-1.3.5 1 .2c.2 0 .4 0 .7.2v.3a10.3 10.3 0 0 0-1.4-.3h-.2a6.6 6.6 0 0 1 1.5.6l-.2.5h-.2l.3.2v.4a5 5 0 0 0-.8-.4l-1.2-.7c-.2 0-.2-.3-.3-.4l-1.6 1.6-.7 1a5 5 0 0 0-.7 1 5.7 5.7 0 0 0-.6 1.2 7 7 0 0 1 1-.5c.3 0 .7 0 1-.2a12.2 12.2 0 0 1 2 0h1v.3H103l-2 .3a1.8 1.8 0 0 0-.5.2 3 3 0 0 0 1 0 16 16 0 0 1 2.7-.2v.5H103a11.4 11.4 0 0 0-1 0 2 2 0 0 0-1 .2h2.5a5 5 0 0 0 .5 0v.5h-3.7a9.5 9.5 0 0 1-1.2 0 6 6 0 0 0-.3 1.5 7.8 7.8 0 0 0 0 1.3 12.2 12.2 0 0 0 0 1.3c0 .2-.2.4-.4.6l-.6-.3h.2a3.8 3.8 0 0 1 0-1.5c0-.2 0-.4-.2-.6a4.5 4.5 0 0 0 0-.6 10.4 10.4 0 0 1-.6-1c0-.5-.4-1-.6-1.5l-1-2-.3-1.3s-.2-.8 0-1a1.7 1.7 0 0 1 .6-.8 2.8 2.8 0 0 1 .7-.3 2 2 0 0 1 .5.6l.5 1.8c0 .5.3 1 .3 1.3a3.2 3.2 0 0 0 .2.6 9.5 9.5 0 0 1 .2 1.8l.8-2a4.6 4.6 0 0 1 .7-1.2 3.2 3.2 0 0 0 0-.6 1.6 1.6 0 0 1 .4-.2 7.6 7.6 0 0 1-.4-1 20 20 0 0 1-.3-2.3c0-.2 0-.4-.2-.7a14.5 14.5 0 0 1 0-1.8v-2a7.2 7.2 0 0 0 .5-.7 4 4 0 0 1 .5 0 5 5 0 0 1 1 1.2 18.4 18.4 0 0 1 .3 2.5 8.6 8.6 0 0 1 .2 1.7 5.7 5.7 0 0 1-.3 1.7l1-.7a10 10 0 0 1 1.3-1 1.4 1.4 0 0 1-.5-.5 1.7 1.7 0 0 1 0-.8 2.7 2.7 0 0 1 .2-1.3l.8-1.5a17.8 17.8 0 0 1 1.7-2 8.5 8.5 0 0 1 2-2zM96.7 17.6s-.3 0-.2.2.3 0 .2-.2zm.6 5A7.5 7.5 0 0 0 97 21a5.5 5.5 0 0 1-.5-1.6 4.2 4.2 0 0 0-.2-1.2l-.5-.3a2 2 0 0 0 .2 1.3c0 .3 0 .6.3 1l1 2.3zm.6.3l-.4-2.3A14 14 0 0 0 97 19a4.8 4.8 0 0 0-.3-1L97 19a3 3 0 0 0 0 1.3c.5.8.6 1.6 1 2.4zm2.5-7.2a10.8 10.8 0 0 1-.2-1.5 2.3 2.3 0 0 0-.2-1.2 5.2 5.2 0 0 0 0 1.7 6.3 6.3 0 0 0 .5 1zm.6 1.8l.5-1.6a7.4 7.4 0 0 0-.3-2.8 3.7 3.7 0 0 0-.8-2.2v1.4a8.4 8.4 0 0 0 .4 1.2v1.8l.3 2.2zM36 35.5a2.8 2.8 0 0 0-.5 0 13 13 0 0 0-1.6 1 11.2 11.2 0 0 0-1.7 1L30.5 39a20.5 20.5 0 0 0-1.5 1.5l-1 1a6.5 6.5 0 0 0-.6.8l.4.3a9.5 9.5 0 0 1 1.6-2c.5-.4 1-1 1.5-1.3l1.4-1.4a11.7 11.7 0 0 1 3-1.8 8.4 8.4 0 0 0-1.5 1l-1.4 1.4a19 19 0 0 0-2 1.8l-1 1-1.3 1.2-.2.2.5.3a4.4 4.4 0 0 1 1-1c.7-.7 1.4-1.5 2.3-2l1-1c-.4.4-.8.8-1 1.2s-.8.7-1 1l-1 1a6.7 6.7 0 0 1-1.2.8l.4.3a6.2 6.2 0 0 0 .6-.4 6.4 6.4 0 0 0 1-1l1.4-1.5 1-1.3a21.4 21.4 0 0 1 2-1.8 3 3 0 0 0 1.3-1.7zM20 36.7v.2l2.8 2a7.7 7.7 0 0 1-.8-1 4.7 4.7 0 0 0-1-1 3.5 3.5 0 0 1-1-1.4 5 5 0 0 1 2 1.8c.7.7 1.3 1.4 1.8 2.2l1.2 1c-.4-1-1-1.6-1.4-2.3a11.5 11.5 0 0 0-.7-1l-.7-.8a14 14 0 0 0-1.5-1.3l-1-.8a2 2 0 0 0-.5 0 2 2 0 0 0-.2.5 7 7 0 0 0 0 1.2l1 .6zM31.5 44a8 8 0 0 1 .5-1 6.4 6.4 0 0 1-.4 1.5 4.8 4.8 0 0 1-.2.8l.4.3c0-.2 0-.3.2-.5a13.4 13.4 0 0 0 .3-1.3l.4-1.2a4.7 4.7 0 0 1-.3 2 9 9 0 0 0-.4 1.2l.4.3v-.4l.7-1.5a5.3 5.3 0 0 0 .3-1.2 1.7 1.7 0 0 0-.3-1.4h-.6c-.2 1-1 1.5-1.2 2.3a10.6 10.6 0 0 0-.4 1l.3.4a5.7 5.7 0 0 1 .5-1z"/><path class="cls-2" d="M26.2 41.4l-.7-.5v-.3a13.8 13.8 0 0 1 0-1.7l.3-1.4a13.3 13.3 0 0 1 .5-1.4 11 11 0 0 0-.7-2c0-.6 0-1.4.2-2.2a8.7 8.7 0 0 1 .2-2.4c.2-1 .8-2 1-3.2.2-.7.6-1.3 1-2a10.2 10.2 0 0 1 .6-1.6l.8-1a1.3 1.3 0 0 1 .8-.3 2.3 2.3 0 0 1 0 1c-.4 1.5-.5 3-1 4.4 0 .5 0 1-.2 1.7-.3.8-.4 1.6-.6 2.5 0 .4-.3.8-.4 1.3a9.8 9.8 0 0 1 .8-1.2l1.4-1.6a6.2 6.2 0 0 1 1-.8c.2-.3 0-.5.2-.7a9.4 9.4 0 0 1 1.4-2.3 13.2 13.2 0 0 1 2-2A19.6 19.6 0 0 1 36 23l1-1a8 8 0 0 1 1-.4 26.8 26.8 0 0 1 2.3-1.6 6.6 6.6 0 0 0 .8-.3 1.4 1.4 0 0 1 .7-.3c.2 0 .2.3.3.5-.3.3-.5.7-1 1a18.8 18.8 0 0 1-1.5 1.5l-3 2.8-1.6 1.2 1.2-.5a8.4 8.4 0 0 1 1.3-.5 4.2 4.2 0 0 0 1-.3c.4-.4.8-1 1.3-1 .7-.5 1.3-.8 2-1 .3-.3.7-.4 1-.6l1-.3 3.7-1c1-.4 2-.4 3-.7.3 0 .4.3.5.5a3.4 3.4 0 0 1-1 1 11.7 11.7 0 0 1-2 1l-.8.2-1 .3a16 16 0 0 1-1.6.6c-.7 0-1.4.4-2 .5a12.2 12.2 0 0 1 2.6.4 1.6 1.6 0 0 0 .8 0 12.3 12.3 0 0 1 3.5.2 5.7 5.7 0 0 1 1.5.4 6.4 6.4 0 0 1 2.2 1.3 5.5 5.5 0 0 1 1.2.8 2.3 2.3 0 0 0 .5.3 2.7 2.7 0 0 1 .4.5c-.5.5-1.2.3-1.7.4a5 5 0 0 1-1.2 0h-1.2a15 15 0 0 1-1.6-.5c-.6 0-1-.5-1.4-.7a5.7 5.7 0 0 1-1-.4l-.7-.6-1-.7s0-.4-.3-.5A7 7 0 0 0 44 25a9.3 9.3 0 0 0-1.2 0c-.5 0-1-.3-1.3-.3a3.2 3.2 0 0 0-1 .2c-.4 0-.7.2-1 .3h-.8a9.7 9.7 0 0 0-1.4.5 14 14 0 0 1 2.6.2c.4.2 1 .2 1.6.3l1.5.4a16.4 16.4 0 0 1 3.4 1.3c.3.2.3.6.3 1a4.3 4.3 0 0 1-2 0 8 8 0 0 1-1.3 0c-1-.2-2 0-2.8-.3a10 10 0 0 0-2.4-.6c-.4 0-1 0-1.4-.2l-1-.3a12.5 12.5 0 0 0-1.5-.3 8.7 8.7 0 0 1-1.2.7 22 22 0 0 0-2.7 2.3 19 19 0 0 0-1.6 2 11 11 0 0 0-1 2 4.3 4.3 0 0 1-.3.7 8 8 0 0 0-.6 1.3l2-2 1.8-1.4a16.8 16.8 0 0 1 2.8-1.8 14 14 0 0 1 2.3-.8 20.3 20.3 0 0 1 2.8-.3l.2.5a5.8 5.8 0 0 1-.4.6 6.4 6.4 0 0 1-1.3.8L33.6 34a7.8 7.8 0 0 1-1 .7c-1.5.8-3 2-4.4 2.6l-1.4.8a1 1 0 0 1-.5.3A6.8 6.8 0 0 0 26 40a10 10 0 0 1 0 1.4zm11.3-15c1 0 2 .4 3 .5.7 0 1.4 0 2 .2a13.6 13.6 0 0 0 2.3.7 8.6 8.6 0 0 0-1.3-.6 24.2 24.2 0 0 0-4.8-1 7.6 7.6 0 0 0-1.2 0zm-1 .6a8.3 8.3 0 0 0 1.4.5c.5 0 1 .3 1.6.4a9.8 9.8 0 0 0 2.4.4 25.3 25.3 0 0 0 3.4.2l-1.2-.2c-.7 0-1.2-.5-2-.6l-2.2-.5a10.6 10.6 0 0 1-1 0 6.4 6.4 0 0 0-2.6-.3zm16.2 1c-.3 0-.5-.3-1-.4a5.8 5.8 0 0 1-1-.5 25.5 25.5 0 0 0-3-.7 3.8 3.8 0 0 0-.5 0 9.5 9.5 0 0 0 1.6 1 6 6 0 0 0 1.8.8 5 5 0 0 0 1.8.4h1.2zm-6-2.4a15.2 15.2 0 0 1 1.8.3c1 .4 2.2.4 3 1a4 4 0 0 0 1 .2l1.5.7a3 3 0 0 0-.8-.7 22 22 0 0 0-2-1.3 5.4 5.4 0 0 0-1.2-.4 9 9 0 0 0-3.4 0zm2.6-4a12.2 12.2 0 0 0-2.4 1 25 25 0 0 0-3 .7 18 18 0 0 0-2 .6 13.3 13.3 0 0 0 1.7-.4 18 18 0 0 0 3.3-1 3 3 0 0 0 .6-.2 11.6 11.6 0 0 0 1.7-.7zM41 24l2.3-1 2.2-.6c.4-.2 1-.2 1.3-.4a8 8 0 0 0 1.4-.5c.3-.2.6 0 1-.2a5 5 0 0 0 .6-.4 38.4 38.4 0 0 0-4.6 1 16.8 16.8 0 0 0-2 .7A18 18 0 0 0 41 24zm-8.5 3.3l1.5-1.8a6 6 0 0 1 .7-.6c.3-.4.6-.8 1-1a12.6 12.6 0 0 0-1.7 1.4 6.2 6.2 0 0 0-1.5 2zm4-2.7l1-1 1.4-1.3 1.4-1.3a11.2 11.2 0 0 0-3 2 9.2 9.2 0 0 0-1.4 1 18 18 0 0 0-1.3 1.5 13 13 0 0 0-1 1.3c1-.6 1.8-1.5 2.8-2.2zM29 23h.4a9.5 9.5 0 0 1-.3 1c-.4 1.2-.5 2.2-1 3.3a5.6 5.6 0 0 0-.4 1.6 6.7 6.7 0 0 1-.2 1 17.4 17.4 0 0 0-.3 2v2a6.7 6.7 0 0 1 .4-1.5c0-.7.3-1.3.6-2s.2-1.2.3-1.7L29 26l.4-2.3a8 8 0 0 0 0-1.2zm-2.4 12v-2-1c0-1 .4-1.7.4-2.6a4.6 4.6 0 0 1 .4-1.8L28 26a11.4 11.4 0 0 0 .3-1.5 3 3 0 0 0 .3-1l-.8 2c-.3.5-.4 1-.5 1.4a22 22 0 0 0-.8 2 9.2 9.2 0 0 0-.3 1.7v2.6a3 3 0 0 0 .4 1.6zm9.4-3a7.8 7.8 0 0 0-1.8.7 13.3 13.3 0 0 0-3 1.5l-1.4 1a20.8 20.8 0 0 0-2.7 2c.6 0 1-.4 1.4-.5l1.7-1 2.6-1.5A37.4 37.4 0 0 1 36 32zm-5.8 2.5l2.4-1.5a3 3 0 0 1 1-.4 2.3 2.3 0 0 1 .4-.4c.6-.2 1-.6 1.7-.7a6 6 0 0 0 1.5-.7 7 7 0 0 0-3.3.6l-1.3.6-1.2.8c-.8.5-1.6 1-2.3 1.7a23.4 23.4 0 0 0-2.2 2.2 11 11 0 0 0 1-1 16 16 0 0 1 2-1.2zM145.3 41.3c-1.3 0-2.6.3-4 .4a6.5 6.5 0 0 1 1 .3l1.5.7 1.2.8a13.7 13.7 0 0 1 1.2 1 12.6 12.6 0 0 0 2 .2l2 1.2a9.4 9.4 0 0 1 2.2 1c1 .7 1.6 1.6 2.5 2.3l1.4 1.6a10.6 10.6 0 0 1 1.2 1.2l.5 1a1 1 0 0 1 0 1 2.5 2.5 0 0 1-1-.5l-.8-.7-1-.7-1.8-1.3a16.8 16.8 0 0 0-1.5-1c-.8-.5-1.5-1-2-1.6-.5-.2-.8-.6-1.2-.8a6.7 6.7 0 0 1 .7 1.2l1 2a5 5 0 0 1 .3 1c0 .2.3.3.4.4a10.8 10.8 0 0 1 1.6 2 12 12 0 0 1 1 2.6 14.7 14.7 0 0 1 .6 2l.3 1v1a18.7 18.7 0 0 1 .5 2.8 4.2 4.2 0 0 0 0 .8 1.3 1.3 0 0 1 0 .8h-.6L154 64a17.3 17.3 0 0 1-.6-2c-.4-1.2-1-2.5-1.3-3.7 0-.6-.3-1.2-.4-1.8a18 18 0 0 1 0 2.5 3.8 3.8 0 0 0-.2 1l.3 1.5a17 17 0 0 1 .2 2 18 18 0 0 1-.2 2.2l-.5 3.6c-.2 1-.6 2-.7 3h-.6a3 3 0 0 1-.5-1v-1a8 8 0 0 1 0-1c0-1.3 0-2.4.3-3.5 0-.7 0-1.4.3-2a13 13 0 0 1-1.4 2 1.5 1.5 0 0 0-.5.7 11.5 11.5 0 0 1-1.4 3 5.3 5.3 0 0 1-1 1 6.4 6.4 0 0 1-2 1.4 5.6 5.6 0 0 1-1.4.6 2.3 2.3 0 0 0-.5.3 3 3 0 0 1-.5 0c-.2-.6.2-1 .3-1.6a4.4 4.4 0 0 1 .4-1c0-.3.3-.7.5-1a13.2 13.2 0 0 1 1-1.3l1.2-.8a5.4 5.4 0 0 1 .7-.6l1-.4 1-.5s.4 0 .6 0a7.8 7.8 0 0 0 1-1 8.8 8.8 0 0 0 .6-1.2l.7-1a2.8 2.8 0 0 0 .3-1v-1l.3-.6a6.3 6.3 0 0 0 0-1.5 11.4 11.4 0 0 1-1.3 2l-1 1.4-1 1a15.2 15.2 0 0 1-2.5 2.4c-.3.2-.6 0-1 0a4.3 4.3 0 0 1 .7-1.8 7.3 7.3 0 0 1 .5-1c.6-.8 1-1.8 1.5-2.4a9.5 9.5 0 0 0 1.5-1.8c.3-.4.5-.8 1-1s.4-.7.6-1a12 12 0 0 0 1-1 6.4 6.4 0 0 1-.2-1.3 17 17 0 0 0-1-3.3 18 18 0 0 0-1-2.2 14.3 14.3 0 0 0-1.5-1.7 4.3 4.3 0 0 1-.5-.6 6.5 6.5 0 0 0-1-1 20.4 20.4 0 0 1 1 2.5l.5 2a20.7 20.7 0 0 1 .5 3.3 12.7 12.7 0 0 1-.3 2.3 15.4 15.4 0 0 1-1 2.6l-.4-.2c0-.2 0-.3-.2-.5a5.6 5.6 0 0 1-.2-1.4c0-.8 0-1.4-.2-2l-.3-2a7.4 7.4 0 0 1-.2-1c0-1-.2-1.8-.3-2.6v-1.2l-.2-1.2-.2-1.6a1 1 0 0 1 .2-.5 6 6 0 0 0-1.5-1 9 9 0 0 1-1.3-.5 14.5 14.5 0 0 0-2.5-.8 8.8 8.8 0 0 1 1.4 2.3l.6 1.3.8 2 .3 1a10.4 10.4 0 0 1 .4 1 15.4 15.4 0 0 1 .3 2 9 9 0 0 1 0 1.7 2.7 2.7 0 0 1 0 .5h-.4a3.3 3.3 0 0 1-1-1.7c-.3-.8-.5-1.7-1-2.5 0-.5-.4-1-.6-1.5L139 46a5.3 5.3 0 0 1-.5-1.3c0-.5 0-1-.3-1.5s-.3-.8-.5-1.3v-.5h-2l-1.3.2a5.2 5.2 0 0 0-1.3.3 5.7 5.7 0 0 0-1 .5 9 9 0 0 1 .8.3c.4 0 .7.4 1 .6a12.5 12.5 0 0 1 1.7 1L137 46s1 1.4 1.7 2l-.2.5a1.7 1.7 0 0 1-1.3-.3 6.3 6.3 0 0 1-1.2-.7l-1-1a16.6 16.6 0 0 0-1.8-1.6l-1.3-1.3a6.5 6.5 0 0 1-1.2-.7 6 6 0 0 0-1.2.8 7.7 7.7 0 0 0-1 1c-.2.2-.6.5-.8 1 0 0-.4 0-.6.2l-.2-.7h.2a3.8 3.8 0 0 1 1-1c.2 0 .2-.4.3-.5a4.6 4.6 0 0 0 .4-.4v-1.2l.6-1.4.6-2 .6-1.2s.4-.7.8-.8a1.7 1.7 0 0 1 1-.2 3 3 0 0 1 .6.4 1.8 1.8 0 0 1 0 .8l-.8 1.6-.6 1a3 3 0 0 0-.3.6 9.7 9.7 0 0 1-1 1.6c.5-.4 1.2-.6 1.8-1a4.7 4.7 0 0 1 1.3-.4 3.4 3.4 0 0 0 .6-.3 1.7 1.7 0 0 1 .4 0 7.3 7.3 0 0 1 .5-1 18.5 18.5 0 0 1 1.4-1.8 7 7 0 0 1 .4-.6 13.4 13.4 0 0 1 1.3-1.3l1.4-1.5a8 8 0 0 0 1 0 4.2 4.2 0 0 1 .3.2 4.4 4.4 0 0 1-.2 1.4 18 18 0 0 1-1.4 2 9 9 0 0 1-1 1.4 5.8 5.8 0 0 1-1.3 1h1a11 11 0 0 1 1.8.4 1.3 1.3 0 0 1 0-.7c0-.3.4-.4.6-.6s.6-.7 1-1c.7 0 1.2-.3 1.8-.4a17 17 0 0 1 2.8-.3 9.5 9.5 0 0 1 3 0 5.5 5.5 0 0 1 2 .7 2.2 2.2 0 0 1 .3.4 2 2 0 0 1-.4.5l-1.2.3a15.4 15.4 0 0 1-2 .8l-1 .2h-1zm-12.6-3.8c0-.2-.3 0-.3 0h.3zm-3 4a7.3 7.3 0 0 0 .8-1.3 5.3 5.3 0 0 1 .8-1.5 4.2 4.2 0 0 0 .7-1c0-.2 0-.4-.2-.5a2 2 0 0 0-.8 1c0 .4-.3.6-.4 1l-.8 2.4zm.3.7c.5-.6 1-1.2 1.3-1.8a15.6 15.6 0 0 0 .8-1.8 4.7 4.7 0 0 0 .5-.8l-.6 1s-.8.7-1 1c-.3 1-.7 1.6-1 2.4zm2.7.8a3.7 3.7 0 0 0 .8.7c1 .6 1.8 1.6 2.7 2.2l1.3.8a8 8 0 0 0-1-1 12.7 12.7 0 0 0-1.5-1.4c-.5-.5-1.2-.7-1.8-1.2a1.7 1.7 0 0 0-.5-.2zm.2.8c.4.6 1 1 1.6 1.6l1.2 1a5 5 0 0 0 2 1.3c-.4-.3-.8-.6-1-1a9.2 9.2 0 0 1-1.3-.8l-1-1-1-.8a2 2 0 0 0-.6-.4zm3.8-5a10 10 0 0 1 1-1.3 2.2 2.2 0 0 0 .6-1 5 5 0 0 0-1 1.2 6 6 0 0 0-.6 1zm-.8 1.7l1.4-1a7.3 7.3 0 0 0 1.8-2 3.5 3.5 0 0 0 1-2c-.4.2-.7.5-1 1a7.8 7.8 0 0 0-.6 1c-.4.4-1 .7-1.2 1.2s-1 1-1.4 1.8zm4.8 8.4c0-.5-.3-1-.4-1.3a24.6 24.6 0 0 0-1-3 6.3 6.3 0 0 0-.6-1.4 8 8 0 0 0 .4 1.6l.4 1zm-2-6.8a6 6 0 0 1 .6 1.4l.7 1.6.5 1.4a24 24 0 0 1 1 2.4 21 21 0 0 1 1 3.3 11.8 11.8 0 0 0-.6-3.2 34 34 0 0 0-1.3-3.7 12.7 12.7 0 0 0-2-3zm11.7 16c-.3.5-.6 1-1 1.2s-.4.8-.7 1.2l-1.2 1.7A12.5 12.5 0 0 0 146 64a8.2 8.2 0 0 0 1-1 25.7 25.7 0 0 0 3-3.7 6.5 6.5 0 0 0 .4-1zm0-1a8 8 0 0 0-1.2 1l-1 1.3a10 10 0 0 0-1.5 1.8 19 19 0 0 0-1.5 2.8l.6-.8c.3-.5 1-.8 1.3-1.4s1-1.2 1.4-1.7l.5-.8a6.3 6.3 0 0 0 1.2-2zM142 71c.3 0 .5-.3.7-.5l.8-.6a5.6 5.6 0 0 1 1-.7 26.7 26.7 0 0 0 2-2.2 3.4 3.4 0 0 0 0-.4 9.2 9.2 0 0 0-1.5 1 6 6 0 0 0-1.4 1.2 4.6 4.6 0 0 0-1 1.5l-.5 1zm5.5-4.8a11.6 11.6 0 0 1-1 1.5c-1 .6-1.5 1.6-2.3 2.2a3.8 3.8 0 0 0-.6.5 14.8 14.8 0 0 1-1.3 1 3.3 3.3 0 0 0 1-.3 22.3 22.3 0 0 0 2-1.2 5 5 0 0 0 .7-1 14 14 0 0 0 1-1.2 8 8 0 0 0 .3-.8 6 6 0 0 0 0-.8zM150 68a7.6 7.6 0 0 0 .4-1.4c0-.5 0-1 .2-1.4l.2-2a11.7 11.7 0 0 0-.3 1.5c0 .6-.2 1-.3 1.6a10 10 0 0 0-.2 1.7 2.2 2.2 0 0 0 0 .6 13.3 13.3 0 0 0 0 1.7 10 10 0 0 0 0-2.4zm1.4-5.7c0 .8-.2 1.6-.3 2.3v2.2l-.4 1.2a7 7 0 0 0 0 1.5c0 .3 0 .5-.2.8a4.4 4.4 0 0 0 0 .7c.6-1.3.6-3 1-4.3a11.5 11.5 0 0 0 0-2.2 14.4 14.4 0 0 0 0-2.2zm.4-8.6l.5 1a9.6 9.6 0 0 0 .5 1 5.5 5.5 0 0 1 .3.8 11.5 11.5 0 0 0 .6 1.2 15 15 0 0 0-.7-2l-.6-1a3.7 3.7 0 0 0-.7-1zm5.2-1a10.2 10.2 0 0 1-.8-.6l-2.5-2a6 6 0 0 0-1.3-1.2 7.2 7.2 0 0 1-1-.7c-.3 0-.6-.3-.8-.5l-1-.6c-.5-.4-1-.5-1.6-.8a7 7 0 0 1 1 .8 19.4 19.4 0 0 1 1.7 1.4l1.5 1a13.4 13.4 0 0 1 1 1 13 13 0 0 0 1.2.8l2 1.3a9.6 9.6 0 0 0 1 .6v-.3zm-9.8-7.4l1.8.8c.3.3.7.4 1 .6a8.7 8.7 0 0 1 1 .7 6.3 6.3 0 0 0 1.2.8 5 5 0 0 1 1.5 1.3l1.2 1a12.2 12.2 0 0 0 1.2 1c.2.2.5.6.8.7l-1.5-1.6-1-1-1.7-1.6a9.2 9.2 0 0 0-1.5-1l-2.3-1.2a3.2 3.2 0 0 0-1.8-.3zm5.3 11a11.3 11.3 0 0 0-.7-1.6c0 1.2.5 2.3.8 3.4 0 .5.3 1 .4 1.3.4 1.3 1 2.5 1.2 3.8a10 10 0 0 0-.5-3.5 7.6 7.6 0 0 0-.5-1.6l-.7-1.8zm-6.5-1.7v-1a4.2 4.2 0 0 0 0-.8 13 13 0 0 0 0-3l-.3-1.8-.4-1.6a11.3 11.3 0 0 0-.5-1.6V46l.2 2c0 1 .3 2 .4 2.8l.4 2v2zm-.2-8.3a14.7 14.7 0 0 1 .3 2.3l.4 1.4v1.4a3 3 0 0 1 0 1 2 2 0 0 1 .2.5v1.6a4.6 4.6 0 0 0 0 1.6 7 7 0 0 0 .8-3 20.4 20.4 0 0 0-1-5.4 16.5 16.5 0 0 0-1-2.8 10.4 10.4 0 0 0 .3 1.3zm-5.4-5.7c.4 0 .8 0 1.2-.2a10.7 10.7 0 0 1 1 0c.6 0 1.2-.4 1.7-.5a6.7 6.7 0 0 0 1.3-.4 15.2 15.2 0 0 0 1.8-.5 3 3 0 0 1 1-.2 15 15 0 0 0-5 .2 8 8 0 0 0-2.2.8 2.2 2.2 0 0 0-.8.8zm3.3.3a26 26 0 0 0 3.2-.6 5.3 5.3 0 0 0 2.4-1 3.8 3.8 0 0 0-1.8.3 5.2 5.2 0 0 1-1.3.3c-.6 0-1.2.4-1.8.5l-1.8.3a9.5 9.5 0 0 0-1.7.3 11 11 0 0 0 1.8 0zM164 83a3.4 3.4 0 0 1 .5.5h-1a14.7 14.7 0 0 0-4.4-2 7.8 7.8 0 0 0-2.3-.3 2.3 2.3 0 0 0-1 .3l1 .4 1 .3a16.3 16.3 0 0 0 1.8.4 6.2 6.2 0 0 0 1.3.3 13.7 13.7 0 0 0 1.7.4 2.4 2.4 0 0 1 1 0H160a3 3 0 0 1-.7 0l-1.7-.6a9.4 9.4 0 0 0-1.6-.6 10.2 10.2 0 0 0 1.6.8l.8.4h.3-1.4c-.4 0-.8-.2-1.2-.4l.6.5h-.8a17.3 17.3 0 0 0-1.8-1.8 16.5 16.5 0 0 1 .2 1.8h-.4c0-.4 0-.8-.2-1.3V82a9.2 9.2 0 0 1-.2 1.5h-.4v-.3.3h-.6a4.8 4.8 0 0 0 .2-.8c0-.5.2-1 .3-1.4 0 0 0-.2.2-.3l-2-1c-.3-.3-.7-.3-1-.5a5 5 0 0 0-1.3-.3 5.6 5.6 0 0 0-1.4-.2 8.7 8.7 0 0 1 .7.7l.6 1a12 12 0 0 1 .7 2l.3.8h-.4c0-.4-.3-.8-.4-1.2-.2-.7-.7-1.2-1-1.8a1.6 1.6 0 0 0-.3-.5 3.6 3.6 0 0 0 .3 1 23.3 23.3 0 0 1 1 2.5h-.6a8.7 8.7 0 0 1-.3-1 11.3 11.3 0 0 0-.4-1 2 2 0 0 0-.3-.8c0 .8.4 1.6.6 2.3 0 .2 0 .4.2.5h-.5l-.6-1.7-.6-1.7a6.6 6.6 0 0 1-.5-1 6 6 0 0 0-1.5 0 7.8 7.8 0 0 0-1.2.3 12.2 12.2 0 0 0-1.2.4c-.2.2-.5 0-.7 0V79h.4a3.8 3.8 0 0 1 1.4-.3c.2 0 .4 0 .5-.2a4.6 4.6 0 0 0 .5-.2c.3-.2.4-.6.7-1s.8-.6 1.2-1L148 75l1-.8s.8-.4 1-.3a1.7 1.7 0 0 1 1 .2 2.8 2.8 0 0 1 .4.7 2 2 0 0 1-.5.6l-1.6 1c-.3.2-.6.5-1 .6a3.2 3.2 0 0 0-.5.4 9.6 9.6 0 0 1-1.8.8h2a4.6 4.6 0 0 1 1.4.4 3.2 3.2 0 0 0 .7 0 1.6 1.6 0 0 1 .2.3 7.7 7.7 0 0 1 1-.6 20.3 20.3 0 0 1 2-1c.3 0 .5-.3.7-.4a14.6 14.6 0 0 1 1.7-.6l1.8-.6a8 8 0 0 0 .8.3 4 4 0 0 1 .2.5 5 5 0 0 1-1 1.2 18.6 18.6 0 0 1-2.2 1.2 8.7 8.7 0 0 1-1.4.6 5.7 5.7 0 0 1-1.7.2l1 .6a10 10 0 0 1 1.2 1 1.4 1.4 0 0 1 .4-.5 1.7 1.7 0 0 1 1-.3 2.7 2.7 0 0 1 1-.3l2 .3a17.7 17.7 0 0 1 2.4 1A8.8 8.8 0 0 1 164 83zm-13.4-8h-.2.2zm-4.5 2.3a7 7 0 0 0 1.4-1 5.5 5.5 0 0 1 1.4-.8 4.2 4.2 0 0 0 1-.6c.3-.2.2-.4.3-.6a2 2 0 0 0-1.2.6l-.8.5-2 1.8zm0 .6l2-1a15.4 15.4 0 0 0 1.5-1.2 4.8 4.8 0 0 0 .8-.6l-1 .7a3 3 0 0 0-1.4.4l-2 1.5zm7.5.2a11 11 0 0 1 1.4-.7 2.3 2.3 0 0 0 1-.5 5.2 5.2 0 0 0-1.6.5 6.4 6.4 0 0 0-1 .7zm-1.5 1h1.6a7.5 7.5 0 0 0 2.6-1.2 3.8 3.8 0 0 0 1.8-1.3c-.4 0-.8.3-1.3.5a8.5 8.5 0 0 0-1 .6c-.5.3-1 .3-1.7.6s-1.4.5-2 1zM115 23a3 3 0 0 0-.3-.5 9.5 9.5 0 0 0-1.3-1.3 17 17 0 0 0-1.6-1.2 17.3 17.3 0 0 0-2-1.2l-2-1c-.4-.3-1-.4-1.3-.6a6.5 6.5 0 0 0-1-.3v.3a12.4 12.4 0 0 1 2.3 1c.6.2 1.2.5 1.8 1s1.2.6 1.8 1a12.7 12.7 0 0 1 2.6 2 22.3 22.3 0 0 0-3-1.8 25.6 25.6 0 0 0-2.4-1l-1.2-1-1.6-.7-.3-.2v.5a5.4 5.4 0 0 1 1 .6 25.7 25.7 0 0 1 3 1.6l1 .7-2.8-1.5c-.4 0-.8-.4-1.2-.6a5.4 5.4 0 0 1-1-1l-.3.6a6.3 6.3 0 0 0 .6.4 5.7 5.7 0 0 0 1.2.7c.6.2 1.2.6 1.8 1s1 .3 1.6.6c1 .4 1.6 1 2.4 1.3a3.4 3.4 0 0 0 2 .7zM108.7 8l-1.2 3.4a7.6 7.6 0 0 1 .6-1 4.7 4.7 0 0 0 .7-1 3.5 3.5 0 0 1 1-1.5 5 5 0 0 1-1 2.3c-.4.8-1 1.6-1.5 2.3l-.5 1.4 1.6-2a11.4 11.4 0 0 0 .7-1l.6-.7a14 14 0 0 0 .8-2c0-.3.3-.7.5-1a2 2 0 0 0-.3-.6 2.2 2.2 0 0 0-.5 0 7 7 0 0 0-1.3.4l-.4 1zM105.2 21.3a8 8 0 0 1 1.4 0 6.2 6.2 0 0 1-1.6.3 4.7 4.7 0 0 1-.8 0l-.2.5h.5a9.4 9.4 0 0 0 1.5 0h1.3a5.3 5.3 0 0 1-2 .4H104v.4H105.8a6.6 6.6 0 0 0 1.2-.2c.5 0 1-.2 1.2-.6l-.3-.6a4 4 0 0 1-1-.2 6 6 0 0 0-1.3-.3h-1.2v.3a6 6 0 0 1 .7 0z"/><path class="cls-2" d="M106.2 15.4l.3-.8h.2c.5 0 1-.4 1.6-.5h1.4a13 13 0 0 1 1.6 0 10.7 10.7 0 0 0 1.5-1.3c.7-.3 1.5-.4 2.3-.6a9.8 9.8 0 0 1 2.4-.5h3.3l2.3.2a9.7 9.7 0 0 1 1.7.2c.4 0 .8.2 1.2.4a1.3 1.3 0 0 1 .3.6 2.3 2.3 0 0 1-1 .4c-.7 0-1.4 0-2.2.2s-1.3.2-2 .3h-2c-.7.2-1.6.2-2.4.3h-1.4a10 10 0 0 1 1.4.5l2 1a6.6 6.6 0 0 1 1 .5 3 3 0 0 0 .6 0 10 10 0 0 1 2.6.6 13 13 0 0 1 1.3.4 12.7 12.7 0 0 1 1.2.7c.6.5 1.2.8 1.8 1l1.2 1 .7.6a17.5 17.5 0 0 1 2 1.8 4.7 4.7 0 0 0 .7.6 1.4 1.4 0 0 1 .5.6c0 .2-.2.3-.3.5-.6 0-1-.2-1.4-.5l-2-1c-1-.8-2.3-1.5-3.5-2l-1.5-1.2a21.7 21.7 0 0 1 1.6 2 5 5 0 0 0 .8.8c.4.5 1 .7 1.3 1a20.4 20.4 0 0 1 3 3.4c.5.5 1 1 1.2 1.6s.8 1 1.2 1.5c.6 1 1 2 1.6 2.8l-.4.5a3 3 0 0 1-1.2-.6 17 17 0 0 1-1.6-1.6c-.7-1-1.5-2-2-3-.5-.5-1-1-1.3-1.7a14.3 14.3 0 0 1 .4 2.6 1.6 1.6 0 0 0 0 .8 13.2 13.2 0 0 1 1 3.4 5.2 5.2 0 0 1 0 1.5 6.6 6.6 0 0 1-.5 2.5 5.4 5.4 0 0 1-.5 1.4 2.2 2.2 0 0 0-.2.6 2.6 2.6 0 0 1-.3.4c-.6-.3-.6-1-1-1.5a6 6 0 0 1-.3-1c0-.5-.2-1-.3-1.3a12 12 0 0 1-.2-1.7 7.6 7.6 0 0 1 .2-1.4 5.5 5.5 0 0 1 0-1l.5-1 .4-1s.3-.2.3-.5a8.3 8.3 0 0 0 0-1.4 9.6 9.6 0 0 0-.3-1.3c0-.3 0-.7-.2-1a3 3 0 0 0-.5-1c-.2-.4-.5-.6-.7-.8s0-.5-.3-.8a9.3 9.3 0 0 0-1-1 12.2 12.2 0 0 1 .7 2.4l.2 1.7V27a15.2 15.2 0 0 1 0 3.6c0 .3-.5.4-.8.5a5 5 0 0 1-.8-1.7 7.8 7.8 0 0 1-.3-1.2c0-1-.6-1.8-.6-2.7a10 10 0 0 0-.2-2.4v-1.6-1.2a12.2 12.2 0 0 0-.3-1.3 7 7 0 0 1-1-1 18 18 0 0 0-3.2-2 11 11 0 0 0-1-.5l-1.3-.4a14.2 14.2 0 0 0-2.2-.4 6 6 0 0 1-.8 0 8.4 8.4 0 0 0-1.5 0 21.3 21.3 0 0 1 2.6 1.2c.6.4 1.2 1 2 1.3a20.5 20.5 0 0 1 2.4 2.2 11.4 11.4 0 0 1 1.4 2 18 18 0 0 1 1.2 2.6l-.3.3h-.7a6.2 6.2 0 0 1-1-1l-1.6-1.4-1.6-1.3a10 10 0 0 1-1-.7l-3.8-3.4-1.2-1a1 1 0 0 1-.3-.5 7 7 0 0 0-1.7.3 8.4 8.4 0 0 1-1.3.5zm17.8 6.2l.5 3c0 .7.2 1.4.3 2a13.3 13.3 0 0 0 0 2.4 8.3 8.3 0 0 0 0-1.4 25.4 25.4 0 0 0-.4-5 7.4 7.4 0 0 0-.4-1zm-1-1a8.5 8.5 0 0 0 0 1.7c.2.5.2 1 .3 1.7a11 11 0 0 0 .2 2.4 20.7 20.7 0 0 0 1 3.2c-.2-.3-.2-.7-.3-1v-2L124 24a10.3 10.3 0 0 1-.2-1 7 7 0 0 0-.7-2.6zm4 16a6.5 6.5 0 0 0 .3-1 5.7 5.7 0 0 1 0-1.3v-3a3.5 3.5 0 0 0-.2-.6 10.2 10.2 0 0 0-.4 2 6 6 0 0 0-.2 2 4.8 4.8 0 0 0 .3 1.6c.2.4.2.8.4 1v-.8zm.6-6.7a12.5 12.5 0 0 1 .2 2c0 1 .2 2 0 3a4.4 4.4 0 0 0 0 1l-.2 1.7a3 3 0 0 0 .4-1 22.3 22.3 0 0 0 .5-2.3 5.2 5.2 0 0 0 0-1.2 9.6 9.6 0 0 0-1-3.3zm4.5 1.3a11 11 0 0 0-1.5-2 8.7 8.7 0 0 0-.7-1.2l-.8-1c-.3-.7-.8-1.2-1.2-1.8a13 13 0 0 0 .8 1.4l1 1.4a12.3 12.3 0 0 0 1 1.4 2.5 2.5 0 0 0 .3.5 16.5 16.5 0 0 0 1 1.3zm-4.5-7.2l1.5 2 1.3 2c.3.4.4.8.7 1a8 8 0 0 0 1 1.3c.3.2.3.5.4.8a5 5 0 0 0 .6.6c-.6-1.4-1.7-2.6-2.5-4a15 15 0 0 0-1.4-1.8 13 13 0 0 0-1.5-1.7zm-5.8-7l2 1a5.8 5.8 0 0 1 1 .4 12.2 12.2 0 0 0 1 .6 15.6 15.6 0 0 0-2-1.2 6.7 6.7 0 0 0-2-.7zm3.7 3c.3.3.8.4 1.2.6 1 .7 2.3 1.4 3.5 2a12.3 12.3 0 0 0-2.8-2.3 7.7 7.7 0 0 0-1.5-1c-.6 0-1-.5-1.7-.7a9.8 9.8 0 0 0-1.6-.6l3 2zm-.6-7.5l-.2.3a8 8 0 0 1-1 0h-3.3a5.7 5.7 0 0 0-1.6 0 8.6 8.6 0 0 1-1.3.3c-.7 0-1.3.3-2 .4s-1 .4-1.8.5a6.6 6.6 0 0 1 1.4-.2h2l2-.2c.8-.2 1.8 0 2.7-.2l2.3-.4a7 7 0 0 0 1.2-.3zm-12.3 1.3a16.4 16.4 0 0 1 1.8-.7h1c.8-.3 1.8-.2 2.6-.5a4.3 4.3 0 0 1 1.8 0h1.5a13.6 13.6 0 0 0 1.7-.2 3 3 0 0 0 1 0 17.2 17.2 0 0 0-2-.3h-1.7a17.5 17.5 0 0 0-2.2 0 9.4 9.4 0 0 0-1.6.2l-2.5.7a3 3 0 0 0-1.5.8zm5.7 8a6.5 6.5 0 0 0-1.3-1.5 12.7 12.7 0 0 0-2.4-2.3c-.5-.3-.8-.8-1.3-1.2a19 19 0 0 0-3-1.8c.4.3.8.6 1 1s1 1 1.5 1.3l2.3 2c1.2.8 2.2 1.6 3.2 2.5zM114 17c.8.7 1.6 1.2 2.2 2a3.4 3.4 0 0 1 .7.6 2.3 2.3 0 0 1 .4.4 18 18 0 0 1 1 1.4 5 5 0 0 0 1.3 1.3 7.3 7.3 0 0 0-1.6-3 18.7 18.7 0 0 0-2-2l-2.3-1.5a17.4 17.4 0 0 0-2.7-1.4 9.5 9.5 0 0 0 1.2.8A12.6 12.6 0 0 1 114 17z"/></svg>